Harmattan-Regular.ufo
<glyph name="quotedbl" format="2">
  <advance width="768"/>
  <unicode hex="0022"/>
  <outline>
    <contour>
      <point x="465" y="783" type="curve"/>
      <point x="558" y="783" type="line"/>
      <point x="562" y="889"/>
      <point x="567" y="1004"/>
      <point x="588" y="1188" type="curve"/>
      <point x="435" y="1188" type="line"/>
      <point x="458" y="1004"/>
      <point x="462" y="889"/>
    </contour>
    <contour>
      <point x="210" y="783" type="curve"/>
      <point x="303" y="783" type="line"/>
      <point x="307" y="889"/>
      <point x="312" y="1004"/>
      <point x="333" y="1188" type="curve"/>
      <point x="180" y="1188" type="line"/>
      <point x="203" y="1004"/>
      <point x="207" y="889"/>
    </contour>
  </outline>
</glyph>
<glyph name="numbersign" format="2">
  <advance width="900"/>
  <unicode hex="0023"/>
  <outline>
    <contour>
      <point x="414" y="150" type="line"/>
      <point x="526" y="150" type="line"/>
      <point x="796" y="1095" type="line"/>
      <point x="684" y="1095" type="line"/>
    </contour>
    <contour>
      <point x="95" y="150" type="line"/>
      <point x="207" y="150" type="line"/>
      <point x="477" y="1095" type="line"/>
      <point x="365" y="1095" type="line"/>
    </contour>
    <contour>
      <point x="18" y="431" type="line"/>
      <point x="837" y="431" type="line"/>
      <point x="837" y="543" type="line"/>
      <point x="18" y="543" type="line"/>
    </contour>
    <contour>
      <point x="63" y="720" type="line"/>
      <point x="881" y="720" type="line"/>
      <point x="881" y="832" type="line"/>
      <point x="63" y="832" type="line"/>
    </contour>
  </outline>
</glyph>
<glyph name="percent" format="2">
  <advance width="1144"/>
  <unicode hex="0025"/>
  <outline>
    <contour>
      <point x="218" y="-18" type="line"/>
      <point x="344" y="-18" type="line"/>
      <point x="929" y="1110" type="line"/>
      <point x="804" y="1110" type="line"/>
    </contour>
    <contour>
      <point x="292" y="513" type="curve" smooth="yes"/>
      <point x="423" y="513"/>
      <point x="517" y="595"/>
      <point x="517" y="816" type="curve" smooth="yes"/>
      <point x="517" y="1021"/>
      <point x="430" y="1110"/>
      <point x="299" y="1110" type="curve" smooth="yes"/>
      <point x="168" y="1110"/>
      <point x="75" y="1020"/>
      <point x="75" y="808" type="curve" smooth="yes"/>
      <point x="75" y="597"/>
      <point x="161" y="513"/>
    </contour>
    <contour>
      <point x="295" y="618" type="curve" smooth="yes"/>
      <point x="228" y="618"/>
      <point x="198" y="668"/>
      <point x="198" y="818" type="curve" smooth="yes"/>
      <point x="198" y="956"/>
      <point x="230" y="1005"/>
      <point x="295" y="1005" type="curve" smooth="yes"/>
      <point x="363" y="1005"/>
      <point x="393" y="957"/>
      <point x="393" y="807" type="curve" smooth="yes"/>
      <point x="393" y="669"/>
      <point x="360" y="618"/>
    </contour>
    <contour>
      <point x="844" y="-18" type="curve" smooth="yes"/>
      <point x="975" y="-18"/>
      <point x="1069" y="63"/>
      <point x="1069" y="284" type="curve" smooth="yes"/>
      <point x="1069" y="489"/>
      <point x="982" y="577"/>
      <point x="851" y="577" type="curve" smooth="yes"/>
      <point x="720" y="577"/>
      <point x="627" y="487"/>
      <point x="627" y="276" type="curve" smooth="yes"/>
      <point x="627" y="64"/>
      <point x="713" y="-18"/>
    </contour>
    <contour>
      <point x="847" y="86" type="curve" smooth="yes"/>
      <point x="780" y="86"/>
      <point x="750" y="135"/>
      <point x="750" y="285" type="curve" smooth="yes"/>
      <point x="750" y="423"/>
      <point x="782" y="472"/>
      <point x="847" y="472" type="curve" smooth="yes"/>
      <point x="915" y="472"/>
      <point x="945" y="424"/>
      <point x="945" y="274" type="curve" smooth="yes"/>
      <point x="945" y="136"/>
      <point x="912" y="86"/>
    </contour>
  </outline>
</glyph>
<glyph name="ampersand" format="2">
  <advance width="916"/>
  <unicode hex="0026"/>
  <outline>
    <contour>
      <point x="330" y="-18" type="curve" smooth="yes"/>
      <point x="534" y="-18"/>
      <point x="751" y="205"/>
      <point x="810" y="326" type="curve"/>
      <point x="731" y="427" type="line"/>
      <point x="683" y="302"/>
      <point x="472" y="112"/>
      <point x="341" y="112" type="curve" smooth="yes"/>
      <point x="232" y="112"/>
      <point x="172" y="200"/>
      <point x="172" y="285" type="curve" smooth="yes"/>
      <point x="172" y="367"/>
      <point x="222" y="440"/>
      <point x="352" y="555" type="curve" smooth="yes"/>
      <point x="488" y="674"/>
      <point x="592" y="801"/>
      <point x="592" y="900" type="curve" smooth="yes"/>
      <point x="592" y="1036"/>
      <point x="481" y="1113"/>
      <point x="367" y="1113" type="curve" smooth="yes"/>
      <point x="248" y="1113"/>
      <point x="116" y="1059"/>
      <point x="116" y="892" type="curve" smooth="yes"/>
      <point x="116" y="757"/>
      <point x="271" y="611"/>
      <point x="401" y="427" type="curve" smooth="yes"/>
      <point x="595" y="151"/>
      <point x="729" y="-18"/>
      <point x="768" y="-18" type="curve" smooth="yes"/>
      <point x="795" y="-18"/>
      <point x="853" y="28"/>
      <point x="881" y="52" type="curve"/>
      <point x="810" y="82"/>
      <point x="685" y="222"/>
      <point x="487" y="510" type="curve" smooth="yes"/>
      <point x="370" y="679"/>
      <point x="236" y="806"/>
      <point x="236" y="900" type="curve" smooth="yes"/>
      <point x="236" y="968"/>
      <point x="298" y="1012"/>
      <point x="356" y="1012" type="curve" smooth="yes"/>
      <point x="416" y="1012"/>
      <point x="472" y="970"/>
      <point x="472" y="903" type="curve" smooth="yes"/>
      <point x="472" y="837"/>
      <point x="392" y="750"/>
      <point x="262" y="630" type="curve" smooth="yes"/>
      <point x="109" y="488"/>
      <point x="41" y="395"/>
      <point x="41" y="281" type="curve" smooth="yes"/>
      <point x="41" y="113"/>
      <point x="162" y="-18"/>
    </contour>
  </outline>
</glyph>
<glyph name="quotesingle" format="2">
  <advance width="453"/>
  <unicode hex="0027"/>
  <outline>
    <contour>
      <point x="180" y="783" type="curve"/>
      <point x="273" y="783" type="line"/>
      <point x="277" y="889"/>
      <point x="282" y="1004"/>
      <point x="303" y="1188" type="curve"/>
      <point x="150" y="1188" type="line"/>
      <point x="173" y="1004"/>
      <point x="177" y="889"/>
    </contour>
  </outline>
</glyph>
<glyph name="parenleft" format="2">
  <advance width="596"/>
  <unicode hex="0028"/>
  <outline>
    <contour>
      <point x="401" y="-307" type="curve"/>
      <point x="472" y="-198" type="line"/>
      <point x="296" y="-6"/>
      <point x="228" y="208"/>
      <point x="228" y="468" type="curve" smooth="yes"/>
      <point x="228" y="736"/>
      <point x="296" y="960"/>
      <point x="472" y="1113" type="curve"/>
      <point x="416" y="1230" type="line"/>
      <point x="217" y="1083"/>
      <point x="86" y="796"/>
      <point x="86" y="468" type="curve" smooth="yes"/>
      <point x="86" y="163"/>
      <point x="195" y="-93"/>
    </contour>
  </outline>
</glyph>
<glyph name="hyphen" format="2">
  <advance width="645"/>
  <unicode hex="002D"/>
  <anchor x="322" y="825" name="U"/>
  <outline>
    <contour>
      <point x="60" y="416" type="line"/>
      <point x="585" y="416" type="line"/>
      <point x="585" y="528" type="line"/>
      <point x="60" y="528" type="line"/>
    </contour>
  </outline>
</glyph>
<glyph name="period" format="2">
  <advance width="480"/>
  <unicode hex="002E"/>
  <outline>
    <contour>
      <point x="240" y="-18" type="curve" smooth="yes"/>
      <point x="295" y="-18"/>
      <point x="341" y="27"/>
      <point x="341" y="82" type="curve" smooth="yes"/>
      <point x="341" y="138"/>
      <point x="295" y="183"/>
      <point x="240" y="183" type="curve" smooth="yes"/>
      <point x="184" y="183"/>
      <point x="138" y="138"/>
      <point x="138" y="82" type="curve" smooth="yes"/>
      <point x="138" y="27"/>
      <point x="184" y="-18"/>
    </contour>
  </outline>
</glyph>
<glyph name="slash" format="2">
  <advance width="750"/>
  <unicode hex="002F"/>
  <outline>
    <contour>
      <point x="7" y="-183" type="line"/>
      <point x="120" y="-183" type="line"/>
      <point x="742" y="1200" type="line"/>
      <point x="630" y="1200" type="line"/>
    </contour>
  </outline>
</glyph>
<glyph name="zero" format="2">
  <advance width="900"/>
  <unicode hex="0030"/>
  <anchor x="453" y="-75" name="L"/>
  <anchor x="453" y="1147" name="U"/>
  <outline>
    <contour>
      <point x="442" y="-18" type="curve" smooth="yes"/>
      <point x="660" y="-18"/>
      <point x="832" y="113"/>
      <point x="832" y="537" type="curve" smooth="yes"/>
      <point x="832" y="931"/>
      <point x="675" y="1080"/>
      <point x="457" y="1080" type="curve" smooth="yes"/>
      <point x="240" y="1080"/>
      <point x="67" y="929"/>
      <point x="67" y="522" type="curve" smooth="yes"/>
      <point x="67" y="116"/>
      <point x="225" y="-18"/>
    </contour>
    <contour>
      <point x="450" y="108" type="curve" smooth="yes"/>
      <point x="301" y="108"/>
      <point x="217" y="228"/>
      <point x="217" y="540" type="curve" smooth="yes"/>
      <point x="217" y="831"/>
      <point x="305" y="953"/>
      <point x="450" y="953" type="curve" smooth="yes"/>
      <point x="601" y="953"/>
      <point x="682" y="834"/>
      <point x="682" y="518" type="curve" smooth="yes"/>
      <point x="682" y="231"/>
      <point x="594" y="108"/>
    </contour>
  </outline>
</glyph>
<glyph name="six" format="2">
  <advance width="900"/>
  <unicode hex="0036"/>
  <anchor x="450" y="-75" name="L"/>
  <anchor x="450" y="1147" name="U"/>
  <outline>
    <contour>
      <point x="450" y="-18" type="curve" smooth="yes"/>
      <point x="680" y="-18"/>
      <point x="836" y="124"/>
      <point x="836" y="347" type="curve" smooth="yes"/>
      <point x="836" y="534"/>
      <point x="707" y="666"/>
      <point x="498" y="666" type="curve" smooth="yes"/>
      <point x="355" y="666"/>
      <point x="246" y="580"/>
      <point x="161" y="463" type="curve"/>
      <point x="210" y="407" type="line"/>
      <point x="271" y="484"/>
      <point x="367" y="535"/>
      <point x="483" y="535" type="curve" smooth="yes"/>
      <point x="608" y="535"/>
      <point x="690" y="453"/>
      <point x="690" y="321" type="curve" smooth="yes"/>
      <point x="690" y="206"/>
      <point x="614" y="112"/>
      <point x="472" y="112" type="curve" smooth="yes"/>
      <point x="306" y="112"/>
      <point x="228" y="294"/>
      <point x="228" y="478" type="curve" smooth="yes"/>
      <point x="228" y="819"/>
      <point x="358" y="952"/>
      <point x="536" y="952" type="curve" smooth="yes"/>
      <point x="608" y="952"/>
      <point x="677" y="934"/>
      <point x="741" y="870" type="curve"/>
      <point x="774" y="1016" type="line"/>
      <point x="696" y="1068"/>
      <point x="632" y="1083"/>
      <point x="543" y="1083" type="curve" smooth="yes"/>
      <point x="187" y="1083"/>
      <point x="82" y="756"/>
      <point x="82" y="505" type="curve" smooth="yes"/>
      <point x="82" y="181"/>
      <point x="217" y="-18"/>
    </contour>
  </outline>
</glyph>
<glyph name="seven" format="2">
  <advance width="900"/>
  <unicode hex="0037"/>
  <anchor x="450" y="-75" name="L"/>
  <anchor x="450" y="1147" name="U"/>
  <outline>
    <contour>
      <point x="206" y="0" type="curve"/>
      <point x="345" y="0" type="line"/>
      <point x="439" y="324"/>
      <point x="583" y="641"/>
      <point x="807" y="945" type="curve"/>
      <point x="807" y="1065" type="line"/>
      <point x="65" y="1065" type="line"/>
      <point x="65" y="926" type="line"/>
      <point x="122" y="938"/>
      <point x="209" y="941"/>
      <point x="350" y="941" type="curve" smooth="yes"/>
      <point x="642" y="941" type="line"/>
      <point x="449" y="660"/>
      <point x="329" y="410"/>
    </contour>
  </outline>
</glyph>
<glyph name="eight" format="2">
  <advance width="900"/>
  <unicode hex="0038"/>
  <anchor x="450" y="-75" name="L"/>
  <anchor x="450" y="1147" name="U"/>
  <outline>
    <contour>
      <point x="450" y="-18" type="curve" smooth="yes"/>
      <point x="642" y="-18"/>
      <point x="832" y="98"/>
      <point x="832" y="296" type="curve" smooth="yes"/>
      <point x="832" y="441"/>
      <point x="723" y="537"/>
      <point x="641" y="579" type="curve"/>
      <point x="699" y="616"/>
      <point x="787" y="675"/>
      <point x="787" y="803" type="curve" smooth="yes"/>
      <point x="787" y="979"/>
      <point x="630" y="1080"/>
      <point x="457" y="1080" type="curve" smooth="yes"/>
      <point x="285" y="1080"/>
      <point x="112" y="979"/>
      <point x="112" y="803" type="curve" smooth="yes"/>
      <point x="112" y="675"/>
      <point x="204" y="611"/>
      <point x="262" y="579" type="curve"/>
      <point x="165" y="526"/>
      <point x="67" y="441"/>
      <point x="67" y="296" type="curve" smooth="yes"/>
      <point x="67" y="98"/>
      <point x="258" y="-18"/>
    </contour>
    <contour>
      <point x="450" y="108" type="curve" smooth="yes"/>
      <point x="315" y="108"/>
      <point x="217" y="185"/>
      <point x="217" y="311" type="curve" smooth="yes"/>
      <point x="217" y="427"/>
      <point x="315" y="515"/>
      <point x="450" y="515" type="curve" smooth="yes"/>
      <point x="583" y="515"/>
      <point x="682" y="427"/>
      <point x="682" y="311" type="curve" smooth="yes"/>
      <point x="682" y="185"/>
      <point x="583" y="108"/>
    </contour>
    <contour>
      <point x="450" y="631" type="curve" smooth="yes"/>
      <point x="342" y="631"/>
      <point x="255" y="694"/>
      <point x="255" y="803" type="curve" smooth="yes"/>
      <point x="255" y="906"/>
      <point x="342" y="960"/>
      <point x="450" y="960" type="curve" smooth="yes"/>
      <point x="557" y="960"/>
      <point x="645" y="906"/>
      <point x="645" y="803" type="curve" smooth="yes"/>
      <point x="645" y="694"/>
      <point x="557" y="631"/>
    </contour>
  </outline>
</glyph>
<glyph name="A" format="2">
  <advance width="1046"/>
  <unicode hex="0041"/>
  <anchor x="530" y="0" name="H"/>
  <anchor x="515" y="-75" name="L"/>
  <anchor x="1087" y="0" name="O"/>
  <anchor x="515" y="1147" name="U"/>
  <outline>
    <contour>
      <point x="30" y="0" type="curve"/>
      <point x="183" y="0" type="line"/>
      <point x="284" y="288" type="line"/>
      <point x="745" y="288" type="line"/>
      <point x="847" y="0" type="line"/>
      <point x="1001" y="0" type="line"/>
      <point x="975" y="60"/>
      <point x="946" y="126"/>
      <point x="896" y="266" type="curve" smooth="yes"/>
      <point x="596" y="1095" type="line"/>
      <point x="435" y="1095" type="line"/>
      <point x="135" y="266" type="line" smooth="yes"/>
      <point x="84" y="126"/>
      <point x="57" y="60"/>
    </contour>
    <contour>
      <point x="324" y="405" type="line"/>
      <point x="513" y="948" type="line"/>
      <point x="705" y="405" type="line"/>
    </contour>
  </outline>
</glyph>
<glyph name="C" format="2">
  <advance width="1016"/>
  <unicode hex="0043"/>
  <anchor x="562" y="0" name="H"/>
  <anchor x="562" y="-75" name="L"/>
  <anchor x="562" y="1147" name="U"/>
  <outline>
    <contour>
      <point x="562" y="-18" type="curve" smooth="yes"/>
      <point x="676" y="-18"/>
      <point x="835" y="24"/>
      <point x="922" y="105" type="curve"/>
      <point x="892" y="251" type="line"/>
      <point x="808" y="167"/>
      <point x="684" y="112"/>
      <point x="570" y="112" type="curve" smooth="yes"/>
      <point x="366" y="112"/>
      <point x="217" y="282"/>
      <point x="217" y="551" type="curve" smooth="yes"/>
      <point x="217" y="839"/>
      <point x="368" y="986"/>
      <point x="577" y="986" type="curve" smooth="yes"/>
      <point x="668" y="986"/>
      <point x="772" y="958"/>
      <point x="866" y="873" type="curve"/>
      <point x="911" y="1008" type="line"/>
      <point x="804" y="1089"/>
      <point x="684" y="1113"/>
      <point x="577" y="1113" type="curve" smooth="yes"/>
      <point x="313" y="1113"/>
      <point x="71" y="918"/>
      <point x="71" y="532" type="curve" smooth="yes"/>
      <point x="71" y="195"/>
      <point x="259" y="-18"/>
    </contour>
  </outline>
</glyph>
<glyph name="K" format="2">
  <advance width="982"/>
  <unicode hex="004B"/>
  <anchor x="202" y="0" name="H"/>
  <anchor x="521" y="-75" name="L"/>
  <anchor x="487" y="1147" name="U"/>
  <outline>
    <contour>
      <point x="738" y="0" type="line"/>
      <point x="922" y="0" type="line"/>
      <point x="363" y="645" type="line"/>
      <point x="262" y="551" type="line"/>
    </contour>
    <contour>
      <point x="120" y="0" type="curve"/>
      <point x="273" y="0" type="line"/>
      <point x="273" y="1095" type="line"/>
      <point x="120" y="1095" type="line"/>
      <point x="131" y="1035"/>
      <point x="131" y="916"/>
      <point x="131" y="768" type="curve" smooth="yes"/>
      <point x="131" y="326" type="line" smooth="yes"/>
      <point x="131" y="178"/>
      <point x="131" y="60"/>
    </contour>
    <contour>
      <point x="397" y="555" type="line"/>
      <point x="873" y="1095" type="line"/>
      <point x="693" y="1095" type="line"/>
      <point x="221" y="527" type="line"/>
      <point x="318" y="558" type="line"/>
    </contour>
  </outline>
</glyph>
<glyph name="M" format="2">
  <advance width="1346"/>
  <unicode hex="004D"/>
  <anchor x="1140" y="0" name="H"/>
  <anchor x="663" y="-75" name="L"/>
  <anchor x="663" y="1147" name="U"/>
  <outline>
    <contour>
      <point x="592" y="0" type="line"/>
      <point x="738" y="0" type="line"/>
      <point x="1115" y="1095" type="line"/>
      <point x="990" y="1095" type="line"/>
      <point x="663" y="153" type="line"/>
      <point x="341" y="1095" type="line"/>
      <point x="213" y="1095" type="line"/>
    </contour>
    <contour>
      <point x="120" y="0" type="curve"/>
      <point x="258" y="0" type="line"/>
      <point x="282" y="903" type="line"/>
      <point x="303" y="1095" type="line"/>
      <point x="172" y="1095" type="line"/>
      <point x="172" y="1095"/>
      <point x="139" y="148"/>
    </contour>
    <contour>
      <point x="1068" y="0" type="line"/>
      <point x="1207" y="0" type="line"/>
      <point x="1185" y="148"/>
      <point x="1155" y="1095"/>
      <point x="1155" y="1095" type="curve"/>
      <point x="1023" y="1095" type="line"/>
      <point x="1047" y="903" type="line"/>
    </contour>
  </outline>
</glyph>
<glyph name="N" format="2">
  <advance width="1125"/>
  <unicode hex="004E"/>
  <anchor x="922" y="0" name="H"/>
  <anchor x="552" y="-75" name="L"/>
  <anchor x="552" y="1147" name="U"/>
  <outline>
    <contour>
      <point x="851" y="0" type="line"/>
      <point x="956" y="75" type="line"/>
      <point x="255" y="1095" type="line"/>
      <point x="150" y="1016" type="line"/>
    </contour>
    <contour>
      <point x="120" y="0" type="curve"/>
      <point x="255" y="0" type="line"/>
      <point x="255" y="1095" type="line"/>
      <point x="120" y="1095" type="line"/>
      <point x="131" y="1035"/>
      <point x="131" y="916"/>
      <point x="131" y="768" type="curve" smooth="yes"/>
      <point x="131" y="326" type="line" smooth="yes"/>
      <point x="131" y="178"/>
      <point x="131" y="60"/>
    </contour>
    <contour>
      <point x="851" y="0" type="line"/>
      <point x="975" y="0" type="line"/>
      <point x="975" y="768" type="line" smooth="yes"/>
      <point x="975" y="916"/>
      <point x="975" y="1035"/>
      <point x="986" y="1095" type="curve"/>
      <point x="851" y="1095" type="line"/>
    </contour>
  </outline>
</glyph>
<glyph name="U" format="2">
  <advance width="1080"/>
  <unicode hex="0055"/>
  <anchor x="530" y="0" name="H"/>
  <anchor x="530" y="-75" name="L"/>
  <anchor x="769" y="0" name="O"/>
  <anchor x="1050" y="900" name="R"/>
  <anchor x="530" y="1147" name="U"/>
  <outline>
    <contour>
      <point x="532" y="-18" type="curve" smooth="yes"/>
      <point x="803" y="-18"/>
      <point x="930" y="142"/>
      <point x="930" y="386" type="curve"/>
      <point x="930" y="768" type="line" smooth="yes"/>
      <point x="930" y="924"/>
      <point x="931" y="1035"/>
      <point x="941" y="1095" type="curve"/>
      <point x="787" y="1095" type="line"/>
      <point x="787" y="420" type="line" smooth="yes"/>
      <point x="787" y="224"/>
      <point x="726" y="101"/>
      <point x="532" y="101" type="curve" smooth="yes"/>
      <point x="335" y="101"/>
      <point x="273" y="224"/>
      <point x="273" y="420" type="curve" smooth="yes"/>
      <point x="273" y="1095" type="line"/>
      <point x="120" y="1095" type="line"/>
      <point x="130" y="1035"/>
      <point x="131" y="916"/>
      <point x="131" y="768" type="curve" smooth="yes"/>
      <point x="131" y="386" type="line"/>
      <point x="131" y="142"/>
      <point x="258" y="-18"/>
    </contour>
  </outline>
</glyph>
<glyph name="X" format="2">
  <advance width="993"/>
  <unicode hex="0058"/>
  <anchor x="487" y="-75" name="L"/>
  <anchor x="487" y="1147" name="U"/>
  <outline>
    <contour>
      <point x="30" y="0" type="curve"/>
      <point x="202" y="0" type="line"/>
      <point x="481" y="460" type="line"/>
      <point x="772" y="0" type="line"/>
      <point x="945" y="0" type="line"/>
      <point x="899" y="61"/>
      <point x="873" y="95"/>
      <point x="774" y="252" type="curve" smooth="yes"/>
      <point x="570" y="575" type="line"/>
      <point x="729" y="832" type="line" smooth="yes"/>
      <point x="822" y="984"/>
      <point x="861" y="1037"/>
      <point x="907" y="1095" type="curve"/>
      <point x="731" y="1095" type="line"/>
      <point x="492" y="700" type="line"/>
      <point x="243" y="1095" type="line"/>
      <point x="67" y="1095" type="line"/>
      <point x="115" y="1032"/>
      <point x="150" y="986"/>
      <point x="247" y="832" type="curve"/>
      <point x="402" y="585" type="line"/>
      <point x="198" y="255" type="line" smooth="yes"/>
      <point x="102" y="99"/>
      <point x="77" y="64"/>
    </contour>
  </outline>
</glyph>
<glyph name="Y" format="2">
  <advance width="990"/>
  <unicode hex="0059"/>
  <anchor x="487" y="-75" name="L"/>
  <anchor x="487" y="1147" name="U"/>
  <outline>
    <contour>
      <point x="405" y="0" type="curve"/>
      <point x="570" y="0" type="line"/>
      <point x="558" y="60"/>
      <point x="558" y="178"/>
      <point x="558" y="326" type="curve" smooth="yes"/>
      <point x="558" y="452" type="line"/>
      <point x="761" y="798" type="line" smooth="yes"/>
      <point x="818" y="896"/>
      <point x="860" y="968"/>
      <point x="948" y="1095" type="curve"/>
      <point x="776" y="1095" type="line"/>
      <point x="495" y="599" type="line"/>
      <point x="198" y="1095" type="line"/>
      <point x="26" y="1095" type="line"/>
      <point x="110" y="983"/>
      <point x="159" y="897"/>
      <point x="217" y="798" type="curve" smooth="yes"/>
      <point x="416" y="458" type="line"/>
      <point x="416" y="326" type="line" smooth="yes"/>
      <point x="416" y="178"/>
      <point x="416" y="60"/>
    </contour>
  </outline>
</glyph>
<glyph name="backslash" format="2">
  <advance width="750"/>
  <unicode hex="005C"/>
  <outline>
    <contour>
      <point x="630" y="-183" type="line"/>
      <point x="742" y="-183" type="line"/>
      <point x="120" y="1200" type="line"/>
      <point x="7" y="1200" type="line"/>
    </contour>
  </outline>
</glyph>
<glyph name="b" format="2">
  <advance width="866"/>
  <unicode hex="0062"/>
  <anchor x="442" y="0" name="H"/>
  <anchor x="442" y="-75" name="L"/>
  <anchor x="866" y="750" name="R"/>
  <anchor x="442" y="1226" name="U"/>
  <outline>
    <contour>
      <point x="431" y="-18" type="curve" smooth="yes"/>
      <point x="652" y="-18"/>
      <point x="795" y="147"/>
      <point x="795" y="405" type="curve" smooth="yes"/>
      <point x="795" y="624"/>
      <point x="687" y="780"/>
      <point x="536" y="780" type="curve" smooth="yes"/>
      <point x="410" y="780"/>
      <point x="317" y="710"/>
      <point x="247" y="618" type="curve"/>
      <point x="247" y="687"/>
      <point x="247" y="1200"/>
      <point x="247" y="1200" type="curve"/>
      <point x="97" y="1200" type="line"/>
      <point x="108" y="1116"/>
      <point x="108" y="954"/>
      <point x="108" y="847" type="curve" smooth="yes"/>
      <point x="108" y="702"/>
      <point x="108" y="171"/>
      <point x="108" y="48" type="curve"/>
      <point x="204" y="19"/>
      <point x="309" y="-18"/>
    </contour>
    <contour>
      <point x="431" y="97" type="curve" smooth="yes"/>
      <point x="366" y="97"/>
      <point x="321" y="108"/>
      <point x="247" y="138" type="curve"/>
      <point x="247" y="438" type="line"/>
      <point x="298" y="563"/>
      <point x="398" y="648"/>
      <point x="491" y="648" type="curve" smooth="yes"/>
      <point x="599" y="648"/>
      <point x="660" y="545"/>
      <point x="660" y="378" type="curve" smooth="yes"/>
      <point x="660" y="210"/>
      <point x="564" y="97"/>
    </contour>
  </outline>
</glyph>
<glyph name="d" format="2">
  <advance width="892"/>
  <unicode hex="0064"/>
  <anchor x="453" y="0" name="H"/>
  <anchor x="453" y="-75" name="L"/>
  <anchor x="892" y="750" name="R"/>
  <anchor x="453" y="1226" name="U"/>
  <outline>
    <contour>
      <point x="378" y="-18" type="curve" smooth="yes"/>
      <point x="489" y="-18"/>
      <point x="581" y="37"/>
      <point x="652" y="138" type="curve"/>
      <point x="665" y="83"/>
      <point x="682" y="25"/>
      <point x="693" y="0" type="curve"/>
      <point x="828" y="0" type="line"/>
      <point x="796" y="84"/>
      <point x="772" y="208"/>
      <point x="772" y="397" type="curve"/>
      <point x="772" y="1200" type="line"/>
      <point x="615" y="1200" type="line"/>
      <point x="629" y="1137"/>
      <point x="633" y="1046"/>
      <point x="633" y="926" type="curve"/>
      <point x="633" y="716" type="line"/>
      <point x="575" y="749"/>
      <point x="498" y="780"/>
      <point x="435" y="780" type="curve" smooth="yes"/>
      <point x="234" y="780"/>
      <point x="78" y="610"/>
      <point x="78" y="345" type="curve" smooth="yes"/>
      <point x="78" y="125"/>
      <point x="195" y="-18"/>
    </contour>
    <contour>
      <point x="405" y="101" type="curve" smooth="yes"/>
      <point x="274" y="101"/>
      <point x="217" y="193"/>
      <point x="217" y="367" type="curve" smooth="yes"/>
      <point x="217" y="545"/>
      <point x="321" y="652"/>
      <point x="435" y="652" type="curve" smooth="yes"/>
      <point x="510" y="652"/>
      <point x="559" y="636"/>
      <point x="633" y="596" type="curve"/>
      <point x="633" y="300" type="line"/>
      <point x="592" y="201"/>
      <point x="496" y="101"/>
    </contour>
  </outline>
</glyph>
<glyph name="i" format="2">
  <advance width="423"/>
  <unicode hex="0069"/>
  <anchor x="219" y="0" name="H"/>
  <anchor x="213" y="-75" name="L"/>
  <anchor x="375" y="0" name="O"/>
  <anchor x="416" y="750" name="R"/>
  <anchor x="211" y="825" name="U"/>
  <outline>
    <contour>
      <point x="142" y="0" type="curve"/>
      <point x="296" y="0" type="line"/>
      <point x="286" y="80"/>
      <point x="281" y="259"/>
      <point x="281" y="356" type="curve" smooth="yes"/>
      <point x="281" y="765" type="line"/>
      <point x="131" y="765" type="line"/>
      <point x="141" y="686"/>
      <point x="142" y="543"/>
      <point x="142" y="397" type="curve" smooth="yes"/>
      <point x="142" y="252"/>
      <point x="142" y="0"/>
    </contour>
    <contour>
      <point x="210" y="907" type="curve" smooth="yes"/>
      <point x="266" y="907"/>
      <point x="307" y="953"/>
      <point x="307" y="1008" type="curve" smooth="yes"/>
      <point x="307" y="1064"/>
      <point x="266" y="1110"/>
      <point x="210" y="1110" type="curve" smooth="yes"/>
      <point x="154" y="1110"/>
      <point x="116" y="1064"/>
      <point x="116" y="1008" type="curve" smooth="yes"/>
      <point x="116" y="953"/>
      <point x="154" y="907"/>
    </contour>
  </outline>
</glyph>
<glyph name="m" format="2">
  <advance width="1263"/>
  <unicode hex="006D"/>
  <anchor x="1087" y="0" name="H"/>
  <anchor x="648" y="-75" name="L"/>
  <anchor x="648" y="825" name="U"/>
  <outline>
    <contour>
      <point x="131" y="0" type="line"/>
      <point x="270" y="0" type="line"/>
      <point x="270" y="495" type="line"/>
      <point x="309" y="585"/>
      <point x="387" y="648"/>
      <point x="461" y="648" type="curve" smooth="yes"/>
      <point x="545" y="648"/>
      <point x="570" y="613"/>
      <point x="570" y="427" type="curve" smooth="yes"/>
      <point x="570" y="0" type="line"/>
      <point x="708" y="0" type="line"/>
      <point x="708" y="495" type="line"/>
      <point x="752" y="588"/>
      <point x="826" y="648"/>
      <point x="900" y="648" type="curve" smooth="yes"/>
      <point x="984" y="648"/>
      <point x="1008" y="606"/>
      <point x="1008" y="412" type="curve" smooth="yes"/>
      <point x="1008" y="0" type="line"/>
      <point x="1147" y="0" type="line"/>
      <point x="1147" y="495" type="line" smooth="yes"/>
      <point x="1147" y="680"/>
      <point x="1097" y="780"/>
      <point x="945" y="780" type="curve" smooth="yes"/>
      <point x="866" y="780"/>
      <point x="784" y="755"/>
      <point x="690" y="654" type="curve"/>
      <point x="666" y="720"/>
      <point x="604" y="780"/>
      <point x="506" y="780" type="curve" smooth="yes"/>
      <point x="420" y="780"/>
      <point x="344" y="754"/>
      <point x="252" y="648" type="curve"/>
      <point x="247" y="684"/>
      <point x="240" y="733"/>
      <point x="228" y="765" type="curve"/>
      <point x="93" y="765" type="line"/>
      <point x="109" y="713"/>
      <point x="131" y="608"/>
      <point x="131" y="461" type="curve" smooth="yes"/>
    </contour>
  </outline>
</glyph>
<glyph name="n" format="2">
  <advance width="888"/>
  <unicode hex="006E"/>
  <anchor x="727" y="0" name="H"/>
  <anchor x="450" y="-75" name="L"/>
  <anchor x="450" y="825" name="U"/>
  <outline>
    <contour>
      <point x="116" y="0" type="curve"/>
      <point x="255" y="0" type="line"/>
      <point x="255" y="435" type="line"/>
      <point x="288" y="537"/>
      <point x="390" y="648"/>
      <point x="498" y="648" type="curve" smooth="yes"/>
      <point x="600" y="648"/>
      <point x="648" y="600"/>
      <point x="648" y="412" type="curve" smooth="yes"/>
      <point x="648" y="309"/>
      <point x="648" y="0"/>
      <point x="648" y="0" type="curve"/>
      <point x="787" y="0" type="line"/>
      <point x="787" y="0"/>
      <point x="787" y="344"/>
      <point x="787" y="468" type="curve" smooth="yes"/>
      <point x="787" y="675"/>
      <point x="699" y="780"/>
      <point x="540" y="780" type="curve" smooth="yes"/>
      <point x="434" y="780"/>
      <point x="339" y="732"/>
      <point x="243" y="618" type="curve"/>
      <point x="238" y="654"/>
      <point x="225" y="733"/>
      <point x="213" y="765" type="curve"/>
      <point x="78" y="765" type="line"/>
      <point x="95" y="713"/>
      <point x="116" y="608"/>
      <point x="116" y="461" type="curve" smooth="yes"/>
      <point x="116" y="315"/>
      <point x="116" y="0"/>
    </contour>
  </outline>
</glyph>
<glyph name="r" format="2">
  <advance width="667"/>
  <unicode hex="0072"/>
  <anchor x="202" y="0" name="H"/>
  <anchor x="191" y="-75" name="L"/>
  <anchor x="341" y="825" name="U"/>
  <outline>
    <contour>
      <point x="116" y="0" type="line"/>
      <point x="255" y="0" type="line"/>
      <point x="255" y="435" type="line"/>
      <point x="288" y="537"/>
      <point x="390" y="645"/>
      <point x="453" y="645" type="curve" smooth="yes"/>
      <point x="513" y="645"/>
      <point x="540" y="577"/>
      <point x="540" y="502" type="curve"/>
      <point x="660" y="528" type="line"/>
      <point x="660" y="660"/>
      <point x="612" y="780"/>
      <point x="487" y="780" type="curve" smooth="yes"/>
      <point x="419" y="780"/>
      <point x="316" y="723"/>
      <point x="243" y="618" type="curve"/>
      <point x="238" y="654"/>
      <point x="225" y="733"/>
      <point x="213" y="765" type="curve"/>
      <point x="78" y="765" type="line"/>
      <point x="95" y="713"/>
      <point x="116" y="608"/>
      <point x="116" y="461" type="curve" smooth="yes"/>
    </contour>
  </outline>
</glyph>
<glyph name="t" format="2">
  <advance width="626"/>
  <unicode hex="0074"/>
  <anchor x="356" y="0" name="H"/>
  <anchor x="356" y="-75" name="L"/>
  <anchor x="626" y="750" name="R"/>
  <anchor x="243" y="1020" name="U"/>
  <outline>
    <contour>
      <point x="384" y="-18" type="curve" smooth="yes"/>
      <point x="436" y="-18"/>
      <point x="501" y="-3"/>
      <point x="570" y="41" type="curve"/>
      <point x="570" y="161" type="line"/>
      <point x="504" y="124"/>
      <point x="450" y="105"/>
      <point x="407" y="105" type="curve" smooth="yes"/>
      <point x="339" y="105"/>
      <point x="311" y="138"/>
      <point x="311" y="292" type="curve" smooth="yes"/>
      <point x="311" y="396"/>
      <point x="311" y="990"/>
      <point x="311" y="990" type="curve"/>
      <point x="172" y="990" type="line"/>
      <point x="172" y="990"/>
      <point x="172" y="326"/>
      <point x="172" y="202" type="curve" smooth="yes"/>
      <point x="172" y="29"/>
      <point x="267" y="-18"/>
    </contour>
    <contour>
      <point x="22" y="637" type="line"/>
      <point x="555" y="637" type="line"/>
      <point x="555" y="746" type="line"/>
      <point x="22" y="746" type="line"/>
    </contour>
  </outline>
</glyph>
<glyph name="w" format="2">
  <advance width="1162"/>
  <unicode hex="0077"/>
  <anchor x="581" y="-75" name="L"/>
  <anchor x="581" y="825" name="U"/>
  <outline>
    <contour>
      <point x="251" y="0" type="line"/>
      <point x="393" y="0" type="line"/>
      <point x="581" y="588" type="line"/>
      <point x="768" y="0" type="line"/>
      <point x="911" y="0" type="line"/>
      <point x="1050" y="498" type="line" smooth="yes"/>
      <point x="1075" y="588"/>
      <point x="1093" y="651"/>
      <point x="1128" y="765" type="curve"/>
      <point x="990" y="765" type="line"/>
      <point x="832" y="161" type="line"/>
      <point x="637" y="765" type="line"/>
      <point x="525" y="765" type="line"/>
      <point x="330" y="161" type="line"/>
      <point x="172" y="765" type="line"/>
      <point x="33" y="765" type="line"/>
      <point x="69" y="650"/>
      <point x="90" y="578"/>
      <point x="112" y="498" type="curve" smooth="yes"/>
    </contour>
  </outline>
</glyph>
<glyph name="y" format="2">
  <advance width="795"/>
  <unicode hex="0079"/>
  <anchor x="596" y="-75" name="L"/>
  <anchor x="840" y="750" name="R"/>
  <anchor x="401" y="825" name="U"/>
  <outline>
    <contour>
      <point x="168" y="-352" type="curve" smooth="yes"/>
      <point x="296" y="-352"/>
      <point x="387" y="-287"/>
      <point x="491" y="0" type="curve"/>
      <point x="671" y="498" type="line"/>
      <point x="696" y="568"/>
      <point x="728" y="648"/>
      <point x="780" y="765" type="curve"/>
      <point x="630" y="765" type="line"/>
      <point x="375" y="41" type="line" smooth="yes"/>
      <point x="295" y="-187"/>
      <point x="236" y="-225"/>
      <point x="168" y="-225" type="curve" smooth="yes"/>
      <point x="119" y="-225"/>
      <point x="61" y="-195"/>
      <point x="30" y="-168" type="curve"/>
      <point x="-15" y="-288" type="line"/>
      <point x="39" y="-329"/>
      <point x="100" y="-352"/>
    </contour>
    <contour>
      <point x="393" y="-123" type="line"/>
      <point x="457" y="45" type="line"/>
      <point x="172" y="765" type="line"/>
      <point x="22" y="765" type="line"/>
      <point x="80" y="648"/>
      <point x="114" y="567"/>
      <point x="142" y="498" type="curve" smooth="yes"/>
    </contour>
  </outline>
</glyph>
<glyph name="braceleft" format="2">
  <advance width="750"/>
  <unicode hex="007B"/>
  <outline>
    <contour>
      <point x="600" y="-307" type="curve"/>
      <point x="630" y="-202" type="line"/>
      <point x="579" y="-185"/>
      <point x="487" y="-148"/>
      <point x="472" y="-127" type="curve" smooth="yes"/>
      <point x="447" y="-92"/>
      <point x="457" y="335"/>
      <point x="442" y="363" type="curve" smooth="yes"/>
      <point x="428" y="390"/>
      <point x="325" y="444"/>
      <point x="322" y="461" type="curve"/>
      <point x="325" y="477"/>
      <point x="428" y="531"/>
      <point x="442" y="558" type="curve" smooth="yes"/>
      <point x="457" y="587"/>
      <point x="447" y="1014"/>
      <point x="472" y="1050" type="curve" smooth="yes"/>
      <point x="487" y="1071"/>
      <point x="579" y="1107"/>
      <point x="630" y="1125" type="curve"/>
      <point x="600" y="1230" type="line"/>
      <point x="522" y="1209"/>
      <point x="401" y="1170"/>
      <point x="371" y="1136" type="curve" smooth="yes"/>
      <point x="318" y="1076"/>
      <point x="325" y="609"/>
      <point x="307" y="585" type="curve" smooth="yes"/>
      <point x="287" y="558"/>
      <point x="157" y="485"/>
      <point x="157" y="461" type="curve" smooth="yes"/>
      <point x="157" y="437"/>
      <point x="287" y="364"/>
      <point x="307" y="337" type="curve" smooth="yes"/>
      <point x="325" y="313"/>
      <point x="318" y="-153"/>
      <point x="371" y="-213" type="curve" smooth="yes"/>
      <point x="401" y="-247"/>
      <point x="522" y="-287"/>
    </contour>
  </outline>
</glyph>
<glyph name="section" format="2">
  <advance width="768"/>
  <unicode hex="00A7"/>
  <outline>
    <contour>
      <point x="371" y="-352" type="curve" smooth="yes"/>
      <point x="532" y="-352"/>
      <point x="660" y="-240"/>
      <point x="660" y="-105" type="curve" smooth="yes"/>
      <point x="660" y="8"/>
      <point x="588" y="109"/>
      <point x="429" y="209" type="curve" smooth="yes"/>
      <point x="276" y="305"/>
      <point x="232" y="364"/>
      <point x="232" y="431" type="curve" smooth="yes"/>
      <point x="232" y="504"/>
      <point x="294" y="551"/>
      <point x="382" y="551" type="curve"/>
      <point x="386" y="671" type="line"/>
      <point x="225" y="671"/>
      <point x="97" y="581"/>
      <point x="97" y="428" type="curve" smooth="yes"/>
      <point x="97" y="296"/>
      <point x="168" y="221"/>
      <point x="303" y="127" type="curve" smooth="yes"/>
      <point x="436" y="35"/>
      <point x="525" y="-27"/>
      <point x="525" y="-123" type="curve" smooth="yes"/>
      <point x="525" y="-175"/>
      <point x="462" y="-232"/>
      <point x="375" y="-232" type="curve" smooth="yes"/>
      <point x="295" y="-232"/>
      <point x="187" y="-192"/>
      <point x="120" y="-131" type="curve"/>
      <point x="82" y="-266" type="line"/>
      <point x="141" y="-312"/>
      <point x="249" y="-352"/>
    </contour>
    <contour>
      <point x="371" y="112" type="line"/>
      <point x="540" y="112"/>
      <point x="660" y="226"/>
      <point x="660" y="384" type="curve" smooth="yes"/>
      <point x="660" y="496"/>
      <point x="588" y="566"/>
      <point x="453" y="663" type="curve" smooth="yes"/>
      <point x="321" y="759"/>
      <point x="232" y="813"/>
      <point x="232" y="890" type="curve" smooth="yes"/>
      <point x="232" y="941"/>
      <point x="276" y="993"/>
      <point x="378" y="993" type="curve" smooth="yes"/>
      <point x="471" y="993"/>
      <point x="549" y="951"/>
      <point x="600" y="922" type="curve"/>
      <point x="626" y="1053" type="line"/>
      <point x="574" y="1082"/>
      <point x="495" y="1113"/>
      <point x="386" y="1113" type="curve" smooth="yes"/>
      <point x="173" y="1113"/>
      <point x="97" y="980"/>
      <point x="97" y="858" type="curve" smooth="yes"/>
      <point x="97" y="765"/>
      <point x="169" y="681"/>
      <point x="328" y="582" type="curve" smooth="yes"/>
      <point x="481" y="486"/>
      <point x="525" y="423"/>
      <point x="525" y="360" type="curve" smooth="yes"/>
      <point x="525" y="290"/>
      <point x="462" y="232"/>
      <point x="375" y="232" type="curve"/>
    </contour>
  </outline>
</glyph>
<glyph name="guillemetleft" format="2">
  <advance width="932"/>
  <unicode hex="00AB"/>
  <outline>
    <contour>
      <point x="441" y="26" type="line"/>
      <point x="360" y="134"/>
      <point x="311" y="233"/>
      <point x="311" y="385" type="curve" smooth="yes"/>
      <point x="311" y="532"/>
      <point x="360" y="653"/>
      <point x="437" y="742" type="curve"/>
      <point x="414" y="768" type="line"/>
      <point x="346" y="724"/>
      <point x="165" y="607"/>
      <point x="165" y="385" type="curve" smooth="yes"/>
      <point x="165" y="165"/>
      <point x="350" y="47"/>
      <point x="414" y="0" type="curve"/>
    </contour>
    <contour>
      <point x="767" y="26" type="line"/>
      <point x="686" y="134"/>
      <point x="637" y="233"/>
      <point x="637" y="385" type="curve" smooth="yes"/>
      <point x="637" y="532"/>
      <point x="686" y="653"/>
      <point x="763" y="742" type="curve"/>
      <point x="740" y="768" type="line"/>
      <point x="672" y="724"/>
      <point x="491" y="607"/>
      <point x="491" y="385" type="curve" smooth="yes"/>
      <point x="491" y="165"/>
      <point x="676" y="47"/>
      <point x="740" y="0" type="curve"/>
    </contour>
  </outline>
</glyph>
<glyph name="macron" format="2">
  <advance width="532"/>
  <unicode hex="00AF"/>
  <outline>
    <contour>
      <point x="0" y="930" type="line"/>
      <point x="532" y="930" type="line"/>
      <point x="532" y="1042" type="line"/>
      <point x="0" y="1042" type="line"/>
    </contour>
  </outline>
</glyph>
<glyph name="degree" format="2">
  <advance width="480"/>
  <unicode hex="00B0"/>
  <outline>
    <contour>
      <point x="240" y="738" type="curve" smooth="yes"/>
      <point x="345" y="738"/>
      <point x="427" y="821"/>
      <point x="427" y="926" type="curve" smooth="yes"/>
      <point x="427" y="1031"/>
      <point x="345" y="1113"/>
      <point x="240" y="1113" type="curve" smooth="yes"/>
      <point x="135" y="1113"/>
      <point x="52" y="1031"/>
      <point x="52" y="926" type="curve"/>
      <point x="52" y="821"/>
      <point x="135" y="738"/>
    </contour>
    <contour>
      <point x="240" y="825" type="curve" smooth="yes"/>
      <point x="183" y="825"/>
      <point x="138" y="870"/>
      <point x="138" y="926" type="curve" smooth="yes"/>
      <point x="138" y="982"/>
      <point x="183" y="1027"/>
      <point x="240" y="1027" type="curve" smooth="yes"/>
      <point x="296" y="1027"/>
      <point x="341" y="982"/>
      <point x="341" y="926" type="curve"/>
      <point x="341" y="870"/>
      <point x="296" y="825"/>
    </contour>
  </outline>
</glyph>
<glyph name="plusminus" format="2">
  <advance width="900"/>
  <unicode hex="00B1"/>
  <outline>
    <contour>
      <point x="116" y="626" type="line"/>
      <point x="783" y="626" type="line"/>
      <point x="783" y="738" type="line"/>
      <point x="116" y="738" type="line"/>
    </contour>
    <contour>
      <point x="393" y="352" type="line"/>
      <point x="506" y="352" type="line"/>
      <point x="506" y="1023" type="line"/>
      <point x="393" y="1023" type="line"/>
    </contour>
    <contour>
      <point x="116" y="150" type="line"/>
      <point x="783" y="150" type="line"/>
      <point x="783" y="262" type="line"/>
      <point x="116" y="262" type="line"/>
    </contour>
  </outline>
</glyph>
<glyph name="micro" format="2">
  <advance width="888"/>
  <unicode hex="00B5"/>
  <outline>
    <contour>
      <point x="116" y="-367" type="line"/>
      <point x="273" y="-367" type="line"/>
      <point x="261" y="-303"/>
      <point x="255" y="-232"/>
      <point x="255" y="-112" type="curve"/>
      <point x="255" y="60" type="line"/>
      <point x="282" y="20"/>
      <point x="339" y="-18"/>
      <point x="408" y="-18" type="curve" smooth="yes"/>
      <point x="505" y="-18"/>
      <point x="601" y="75"/>
      <point x="648" y="150" type="curve"/>
      <point x="656" y="93"/>
      <point x="675" y="34"/>
      <point x="690" y="0" type="curve"/>
      <point x="817" y="0" type="line"/>
      <point x="786" y="84"/>
      <point x="768" y="192"/>
      <point x="768" y="337" type="curve" smooth="yes"/>
      <point x="768" y="484"/>
      <point x="768" y="765"/>
      <point x="768" y="765" type="curve"/>
      <point x="615" y="765" type="line"/>
      <point x="628" y="673"/>
      <point x="630" y="624"/>
      <point x="630" y="525" type="curve" smooth="yes"/>
      <point x="630" y="315" type="line"/>
      <point x="597" y="221"/>
      <point x="498" y="105"/>
      <point x="423" y="105" type="curve" smooth="yes"/>
      <point x="339" y="105"/>
      <point x="255" y="178"/>
      <point x="255" y="348" type="curve" smooth="yes"/>
      <point x="255" y="452"/>
      <point x="255" y="765"/>
      <point x="255" y="765" type="curve"/>
      <point x="101" y="765" type="line"/>
      <point x="114" y="675"/>
      <point x="116" y="620"/>
      <point x="116" y="525" type="curve"/>
    </contour>
  </outline>
</glyph>
<glyph name="ordmasculine" format="2">
  <advance width="598"/>
  <unicode hex="00BA"/>
  <outline>
    <component base="o" xScale="0.68301" yScale="0.68301" xOffset="13" yOffset="508"/>
    <contour>
      <point x="56" y="375" type="line"/>
      <point x="546" y="375" type="line"/>
      <point x="546" y="450" type="line"/>
      <point x="56" y="450" type="line"/>
    </contour>
  </outline>
</glyph>
<glyph name="guillemetright" format="2">
  <advance width="932"/>
  <unicode hex="00BB"/>
  <outline>
    <contour>
      <point x="491" y="26" type="curve"/>
      <point x="518" y="0" type="line"/>
      <point x="582" y="47"/>
      <point x="767" y="165"/>
      <point x="767" y="385" type="curve" smooth="yes"/>
      <point x="767" y="607"/>
      <point x="586" y="724"/>
      <point x="518" y="768" type="curve"/>
      <point x="495" y="742" type="line"/>
      <point x="572" y="653"/>
      <point x="621" y="532"/>
      <point x="621" y="385" type="curve" smooth="yes"/>
      <point x="621" y="233"/>
      <point x="572" y="134"/>
    </contour>
    <contour>
      <point x="165" y="26" type="curve"/>
      <point x="192" y="0" type="line"/>
      <point x="256" y="47"/>
      <point x="441" y="165"/>
      <point x="441" y="385" type="curve" smooth="yes"/>
      <point x="441" y="607"/>
      <point x="260" y="724"/>
      <point x="192" y="768" type="curve"/>
      <point x="169" y="742" type="line"/>
      <point x="246" y="653"/>
      <point x="295" y="532"/>
      <point x="295" y="385" type="curve" smooth="yes"/>
      <point x="295" y="233"/>
      <point x="246" y="134"/>
    </contour>
  </outline>
</glyph>
<glyph name="onehalf" format="2">
  <advance width="1200"/>
  <unicode hex="00BD"/>
  <anchor x="229" y="488" name="L"/>
  <anchor x="229" y="1245" name="U"/>
  <outline>
    <contour>
      <point x="153" y="-37" type="line"/>
      <point x="251" y="-37" type="line"/>
      <point x="1055" y="1200" type="line"/>
      <point x="957" y="1200" type="line"/>
    </contour>
    <contour>
      <point x="207" y="534" type="line"/>
      <point x="306" y="534" type="line"/>
      <point x="300" y="585"/>
      <point x="297" y="696"/>
      <point x="297" y="757" type="curve" smooth="yes"/>
      <point x="297" y="1201" type="line"/>
      <point x="207" y="1201" type="line"/>
      <point x="60" y="1104" type="line"/>
      <point x="73" y="1020" type="line"/>
      <point x="207" y="1106" type="line"/>
    </contour>
    <contour>
      <point x="731" y="0" type="line"/>
      <point x="1162" y="0" type="line"/>
      <point x="1162" y="86" type="line"/>
      <point x="1126" y="80"/>
      <point x="1056" y="78"/>
      <point x="967" y="78" type="curve" smooth="yes"/>
      <point x="858" y="78" type="line"/>
      <point x="957" y="155"/>
      <point x="1132" y="328"/>
      <point x="1132" y="480" type="curve" smooth="yes"/>
      <point x="1132" y="596"/>
      <point x="1037" y="671"/>
      <point x="929" y="671" type="curve" smooth="yes"/>
      <point x="853" y="671"/>
      <point x="768" y="631"/>
      <point x="731" y="581" type="curve"/>
      <point x="753" y="498" type="line"/>
      <point x="793" y="547"/>
      <point x="859" y="581"/>
      <point x="915" y="581" type="curve" smooth="yes"/>
      <point x="979" y="581"/>
      <point x="1035" y="557"/>
      <point x="1035" y="472" type="curve" smooth="yes"/>
      <point x="1035" y="348"/>
      <point x="853" y="170"/>
      <point x="731" y="82" type="curve"/>
    </contour>
  </outline>
</glyph>
<glyph name="threequarters" format="2">
  <advance width="1200"/>
  <unicode hex="00BE"/>
  <outline>
    <contour>
      <point x="172" y="-37" type="line"/>
      <point x="270" y="-37" type="line"/>
      <point x="1074" y="1200" type="line"/>
      <point x="975" y="1200" type="line"/>
    </contour>
    <contour>
      <point x="281" y="521" type="curve" smooth="yes"/>
      <point x="411" y="521"/>
      <point x="506" y="618"/>
      <point x="506" y="723" type="curve" smooth="yes"/>
      <point x="506" y="834"/>
      <point x="420" y="894"/>
      <point x="356" y="900" type="curve"/>
      <point x="420" y="908"/>
      <point x="483" y="965"/>
      <point x="483" y="1038" type="curve" smooth="yes"/>
      <point x="483" y="1134"/>
      <point x="408" y="1203"/>
      <point x="296" y="1203" type="curve" smooth="yes"/>
      <point x="230" y="1203"/>
      <point x="176" y="1183"/>
      <point x="123" y="1143" type="curve"/>
      <point x="142" y="1065" type="line"/>
      <point x="203" y="1108"/>
      <point x="240" y="1117"/>
      <point x="288" y="1117" type="curve" smooth="yes"/>
      <point x="346" y="1117"/>
      <point x="393" y="1095"/>
      <point x="393" y="1035" type="curve" smooth="yes"/>
      <point x="393" y="979"/>
      <point x="336" y="933"/>
      <point x="247" y="933" type="curve" smooth="yes"/>
      <point x="213" y="933" type="line"/>
      <point x="213" y="851" type="line"/>
      <point x="247" y="851" type="line" smooth="yes"/>
      <point x="354" y="851"/>
      <point x="412" y="804"/>
      <point x="412" y="731" type="curve" smooth="yes"/>
      <point x="412" y="644"/>
      <point x="353" y="607"/>
      <point x="277" y="607" type="curve" smooth="yes"/>
      <point x="213" y="607"/>
      <point x="146" y="639"/>
      <point x="105" y="686" type="curve"/>
      <point x="93" y="588" type="line"/>
      <point x="136" y="551"/>
      <point x="206" y="521"/>
    </contour>
    <contour>
      <point x="937" y="0" type="line"/>
      <point x="1035" y="0" type="line"/>
      <point x="1035" y="195" type="line"/>
      <point x="1136" y="195" type="line"/>
      <point x="1136" y="273" type="line"/>
      <point x="1035" y="273" type="line"/>
      <point x="1035" y="667" type="line"/>
      <point x="937" y="667" type="line"/>
      <point x="645" y="273" type="line"/>
      <point x="645" y="195" type="line"/>
      <point x="937" y="195" type="line"/>
    </contour>
    <contour>
      <point x="746" y="273" type="line"/>
      <point x="937" y="540" type="line"/>
      <point x="937" y="273" type="line"/>
    </contour>
  </outline>
</glyph>
<glyph name="questiondown" format="2">
  <advance width="787"/>
  <unicode hex="00BF"/>
  <outline>
    <contour>
      <point x="382" y="-307" type="curve" smooth="yes"/>
      <point x="476" y="-307"/>
      <point x="573" y="-272"/>
      <point x="622" y="-225" type="curve"/>
      <point x="588" y="-90" type="line"/>
      <point x="531" y="-150"/>
      <point x="463" y="-176"/>
      <point x="403" y="-176" type="curve" smooth="yes"/>
      <point x="293" y="-176"/>
      <point x="258" y="-119"/>
      <point x="258" y="-75" type="curve" smooth="yes"/>
      <point x="258" y="-30"/>
      <point x="268" y="11"/>
      <point x="363" y="112" type="curve" smooth="yes"/>
      <point x="444" y="198"/>
      <point x="457" y="270"/>
      <point x="457" y="517" type="curve"/>
      <point x="326" y="517" type="line"/>
      <point x="326" y="285"/>
      <point x="313" y="249"/>
      <point x="222" y="142" type="curve" smooth="yes"/>
      <point x="135" y="42"/>
      <point x="105" y="-5"/>
      <point x="105" y="-82" type="curve" smooth="yes"/>
      <point x="105" y="-234"/>
      <point x="223" y="-307"/>
    </contour>
    <contour>
      <point x="396" y="633" type="curve" smooth="yes"/>
      <point x="451" y="633"/>
      <point x="496" y="678"/>
      <point x="496" y="734" type="curve" smooth="yes"/>
      <point x="496" y="789"/>
      <point x="451" y="834"/>
      <point x="396" y="834" type="curve" smooth="yes"/>
      <point x="340" y="834"/>
      <point x="295" y="789"/>
      <point x="295" y="734" type="curve" smooth="yes"/>
      <point x="295" y="678"/>
      <point x="340" y="633"/>
    </contour>
  </outline>
</glyph>
<glyph name="AE" format="2">
  <advance width="1353"/>
  <unicode hex="00C6"/>
  <anchor x="761" y="-75" name="L"/>
  <anchor x="761" y="1147" name="U"/>
  <outline>
    <contour>
      <point x="60" y="0" type="curve"/>
      <point x="210" y="0" type="line"/>
      <point x="690" y="971" type="line"/>
      <point x="690" y="182"/>
      <point x="690" y="60"/>
      <point x="678" y="0" type="curve"/>
      <point x="1263" y="0" type="line"/>
      <point x="1263" y="135" type="line"/>
      <point x="1203" y="124"/>
      <point x="1103" y="123"/>
      <point x="955" y="123" type="curve" smooth="yes"/>
      <point x="832" y="123" type="line"/>
      <point x="832" y="513" type="line"/>
      <point x="1185" y="513" type="line"/>
      <point x="1185" y="633" type="line"/>
      <point x="832" y="633" type="line"/>
      <point x="832" y="971" type="line"/>
      <point x="1241" y="971" type="line"/>
      <point x="1241" y="1095" type="line"/>
      <point x="607" y="1095" type="line"/>
      <point x="221" y="299" type="line" smooth="yes"/>
      <point x="169" y="192"/>
      <point x="127" y="111"/>
    </contour>
    <contour>
      <point x="299" y="288" type="line"/>
      <point x="792" y="288" type="line"/>
      <point x="747" y="405" type="line"/>
      <point x="344" y="405" type="line"/>
    </contour>
  </outline>
</glyph>
<glyph name="ae" format="2">
  <advance width="1308"/>
  <unicode hex="00E6"/>
  <anchor x="666" y="0" name="H"/>
  <anchor x="648" y="-75" name="L"/>
  <anchor x="1186" y="0" name="O"/>
  <anchor x="1308" y="750" name="R"/>
  <anchor x="648" y="825" name="U"/>
  <outline>
    <contour>
      <point x="315" y="-18" type="curve" smooth="yes"/>
      <point x="408" y="-18"/>
      <point x="500" y="14"/>
      <point x="588" y="108" type="curve" smooth="yes"/>
      <point x="600" y="121"/>
      <point x="612" y="134"/>
      <point x="622" y="147" type="curve"/>
      <point x="687" y="37"/>
      <point x="802" y="-18"/>
      <point x="926" y="-18" type="curve" smooth="yes"/>
      <point x="1041" y="-18"/>
      <point x="1127" y="1"/>
      <point x="1233" y="56" type="curve"/>
      <point x="1218" y="180" type="line"/>
      <point x="1127" y="124"/>
      <point x="1041" y="105"/>
      <point x="945" y="105" type="curve" smooth="yes"/>
      <point x="809" y="105"/>
      <point x="703" y="188"/>
      <point x="697" y="363" type="curve"/>
      <point x="1230" y="363" type="line"/>
      <point x="1230" y="423" type="line"/>
      <point x="1230" y="592"/>
      <point x="1166" y="780"/>
      <point x="933" y="780" type="curve" smooth="yes"/>
      <point x="825" y="780"/>
      <point x="727" y="731"/>
      <point x="660" y="648" type="curve"/>
      <point x="607" y="737"/>
      <point x="507" y="780"/>
      <point x="405" y="780" type="curve" smooth="yes"/>
      <point x="291" y="780"/>
      <point x="234" y="745"/>
      <point x="157" y="712" type="curve"/>
      <point x="153" y="680"/>
      <point x="150" y="599"/>
      <point x="150" y="566" type="curve"/>
      <point x="237" y="627"/>
      <point x="291" y="660"/>
      <point x="371" y="660" type="curve" smooth="yes"/>
      <point x="483" y="660"/>
      <point x="566" y="623"/>
      <point x="566" y="532" type="curve" smooth="yes"/>
      <point x="566" y="468" type="line"/>
      <point x="535" y="466"/>
      <point x="415" y="464"/>
      <point x="363" y="457" type="curve" smooth="yes"/>
      <point x="140" y="426"/>
      <point x="71" y="305"/>
      <point x="71" y="191" type="curve" smooth="yes"/>
      <point x="71" y="80"/>
      <point x="174" y="-18"/>
    </contour>
    <contour>
      <point x="337" y="105" type="curve" smooth="yes"/>
      <point x="262" y="105"/>
      <point x="210" y="150"/>
      <point x="210" y="210" type="curve" smooth="yes"/>
      <point x="210" y="279"/>
      <point x="246" y="330"/>
      <point x="371" y="352" type="curve" smooth="yes"/>
      <point x="418" y="360"/>
      <point x="528" y="362"/>
      <point x="566" y="363" type="curve"/>
      <point x="566" y="327"/>
      <point x="570" y="293"/>
      <point x="577" y="262" type="curve"/>
      <point x="575" y="255"/>
      <point x="570" y="249"/>
      <point x="566" y="243" type="curve" smooth="yes"/>
      <point x="483" y="123"/>
      <point x="414" y="105"/>
    </contour>
    <contour>
      <point x="705" y="468" type="line"/>
      <point x="729" y="604"/>
      <point x="813" y="667"/>
      <point x="922" y="667" type="curve" smooth="yes"/>
      <point x="1016" y="667"/>
      <point x="1095" y="597"/>
      <point x="1095" y="468" type="curve"/>
    </contour>
  </outline>
</glyph>
<glyph name="thorn" format="2">
  <advance width="877"/>
  <unicode hex="00FE"/>
  <anchor x="442" y="-375" name="L"/>
  <anchor x="465" y="1226" name="U"/>
  <outline>
    <contour>
      <point x="116" y="-367" type="line"/>
      <point x="273" y="-367" type="line"/>
      <point x="261" y="-303"/>
      <point x="255" y="-232"/>
      <point x="255" y="-112" type="curve"/>
      <point x="255" y="63" type="line"/>
      <point x="326" y="13"/>
      <point x="384" y="-18"/>
      <point x="465" y="-18" type="curve" smooth="yes"/>
      <point x="653" y="-18"/>
      <point x="806" y="144"/>
      <point x="806" y="401" type="curve" smooth="yes"/>
      <point x="806" y="621"/>
      <point x="692" y="780"/>
      <point x="521" y="780" type="curve" smooth="yes"/>
      <point x="410" y="780"/>
      <point x="312" y="711"/>
      <point x="255" y="636" type="curve"/>
      <point x="255" y="1200" type="line"/>
      <point x="101" y="1200" type="line"/>
      <point x="111" y="1113"/>
      <point x="116" y="993"/>
      <point x="116" y="847" type="curve" smooth="yes"/>
    </contour>
    <contour>
      <point x="465" y="105" type="curve" smooth="yes"/>
      <point x="396" y="105"/>
      <point x="357" y="123"/>
      <point x="255" y="195" type="curve"/>
      <point x="255" y="431" type="line"/>
      <point x="310" y="576"/>
      <point x="408" y="652"/>
      <point x="495" y="652" type="curve" smooth="yes"/>
      <point x="603" y="652"/>
      <point x="667" y="545"/>
      <point x="667" y="378" type="curve" smooth="yes"/>
      <point x="667" y="209"/>
      <point x="570" y="105"/>
    </contour>
  </outline>
</glyph>
<glyph name="OE" format="2">
  <advance width="1462"/>
  <unicode hex="0152"/>
  <anchor x="721" y="-75" name="L"/>
  <anchor x="721" y="1147" name="U"/>
  <outline>
    <contour>
      <point x="502" y="-18" type="curve" smooth="yes"/>
      <point x="614" y="-18"/>
      <point x="720" y="37"/>
      <point x="798" y="123" type="curve"/>
      <point x="798" y="0" type="line"/>
      <point x="1372" y="0" type="line"/>
      <point x="1372" y="135" type="line"/>
      <point x="1312" y="124"/>
      <point x="1212" y="123"/>
      <point x="1064" y="123" type="curve" smooth="yes"/>
      <point x="941" y="123" type="line"/>
      <point x="941" y="513" type="line"/>
      <point x="1293" y="513" type="line"/>
      <point x="1293" y="633" type="line"/>
      <point x="941" y="633" type="line"/>
      <point x="941" y="971" type="line"/>
      <point x="1350" y="971" type="line"/>
      <point x="1350" y="1095" type="line"/>
      <point x="798" y="1095" type="line"/>
      <point x="798" y="972" type="line"/>
      <point x="732" y="1055"/>
      <point x="639" y="1113"/>
      <point x="517" y="1113" type="curve" smooth="yes"/>
      <point x="282" y="1113"/>
      <point x="71" y="899"/>
      <point x="71" y="540" type="curve" smooth="yes"/>
      <point x="71" y="180"/>
      <point x="268" y="-18"/>
    </contour>
    <contour>
      <point x="510" y="112" type="curve" smooth="yes"/>
      <point x="330" y="112"/>
      <point x="217" y="285"/>
      <point x="217" y="558" type="curve" smooth="yes"/>
      <point x="217" y="818"/>
      <point x="335" y="982"/>
      <point x="510" y="982" type="curve" smooth="yes"/>
      <point x="700" y="982"/>
      <point x="806" y="813"/>
      <point x="806" y="536" type="curve" smooth="yes"/>
      <point x="806" y="270"/>
      <point x="693" y="112"/>
    </contour>
  </outline>
</glyph>
<glyph name="hungarumlaut" format="2">
  <advance width="592"/>
  <unicode hex="02DD"/>
  <outline>
    <contour>
      <point x="255" y="862" type="line"/>
      <point x="360" y="862" type="line"/>
      <point x="592" y="1200" type="line"/>
      <point x="435" y="1200" type="line"/>
    </contour>
    <contour>
      <point x="0" y="862" type="line"/>
      <point x="105" y="862" type="line"/>
      <point x="337" y="1200" type="line"/>
      <point x="180" y="1200" type="line"/>
    </contour>
  </outline>
</glyph>
<glyph name="afghani-ar" format="2">
  <advance width="862"/>
  <unicode hex="060B"/>
  <outline>
    <component base="_dot1" xOffset="432" yOffset="1070"/>
    <contour>
      <point x="131" y="47" type="curve"/>
      <point x="598" y="57"/>
      <point x="730" y="81"/>
      <point x="756" y="377" type="curve"/>
      <point x="782" y="391" type="line"/>
      <point x="791" y="415"/>
      <point x="792" y="440"/>
      <point x="792" y="456" type="curve" smooth="yes"/>
      <point x="792" y="477"/>
      <point x="789" y="507"/>
      <point x="783" y="530" type="curve"/>
      <point x="750" y="514" type="line"/>
      <point x="716" y="753"/>
      <point x="604" y="841"/>
      <point x="441" y="841" type="curve" smooth="yes"/>
      <point x="299" y="841"/>
      <point x="160" y="743"/>
      <point x="160" y="566" type="curve" smooth="yes"/>
      <point x="160" y="435"/>
      <point x="256" y="306"/>
      <point x="450" y="306" type="curve" smooth="yes"/>
      <point x="522" y="306"/>
      <point x="572" y="311"/>
      <point x="616" y="331" type="curve"/>
      <point x="606" y="208"/>
      <point x="547" y="183"/>
      <point x="70" y="181" type="curve"/>
      <point x="70" y="126"/>
      <point x="91" y="82"/>
    </contour>
    <contour>
      <point x="417" y="-473" type="line"/>
      <point x="443" y="-473"/>
      <point x="500" y="-442"/>
      <point x="510" y="-422" type="curve"/>
      <point x="517" y="-312"/>
      <point x="515" y="-188"/>
      <point x="515" y="-119" type="curve" smooth="yes"/>
      <point x="515" y="-74"/>
      <point x="508" y="-53"/>
      <point x="505" y="-33" type="curve"/>
      <point x="468" y="-42"/>
      <point x="417" y="-64"/>
      <point x="389" y="-95" type="curve"/>
    </contour>
    <contour>
      <point x="441" y="437" type="curve" smooth="yes"/>
      <point x="363" y="437"/>
      <point x="293" y="490"/>
      <point x="293" y="576" type="curve" smooth="yes"/>
      <point x="293" y="658"/>
      <point x="362" y="713"/>
      <point x="436" y="713" type="curve" smooth="yes"/>
      <point x="520" y="713"/>
      <point x="600" y="646"/>
      <point x="620" y="461" type="curve"/>
      <point x="564" y="445"/>
      <point x="516" y="437"/>
    </contour>
  </outline>
</glyph>
<glyph name="verseComma-ar" format="2">
  <advance width="1245"/>
  <unicode hex="060E"/>
  <outline>
    <contour>
      <point x="534" y="173" type="curve" smooth="yes"/>
      <point x="734" y="173"/>
      <point x="977" y="215"/>
      <point x="1143" y="271" type="curve"/>
      <point x="1163" y="306"/>
      <point x="1175" y="363"/>
      <point x="1175" y="413" type="curve"/>
      <point x="1047" y="355"/>
      <point x="775" y="303"/>
      <point x="552" y="303" type="curve" smooth="yes"/>
      <point x="362" y="303"/>
      <point x="207" y="341"/>
      <point x="207" y="445" type="curve" smooth="yes"/>
      <point x="207" y="503"/>
      <point x="246" y="533"/>
      <point x="287" y="533" type="curve" smooth="yes"/>
      <point x="330" y="533"/>
      <point x="375" y="499"/>
      <point x="375" y="429" type="curve" smooth="yes"/>
      <point x="375" y="387"/>
      <point x="358" y="340"/>
      <point x="320" y="297" type="curve"/>
      <point x="429" y="249" type="line"/>
      <point x="486" y="297"/>
      <point x="514" y="370"/>
      <point x="514" y="442" type="curve" smooth="yes"/>
      <point x="514" y="555"/>
      <point x="434" y="665"/>
      <point x="292" y="665" type="curve" smooth="yes"/>
      <point x="176" y="665"/>
      <point x="70" y="588"/>
      <point x="70" y="445" type="curve" smooth="yes"/>
      <point x="70" y="244"/>
      <point x="272" y="173"/>
    </contour>
  </outline>
</glyph>
<glyph name="alefLamYehabove-ar" format="2">
  <unicode hex="0616"/>
  <anchor x="0" y="1185" name="_diaA"/>
  <anchor x="0" y="1902" name="diaA"/>
  <outline>
    <component base="alef-ar" xScale="0.5" yScale="0.45" xOffset="116" yOffset="1405"/>
    <contour>
      <point x="-95" y="1212" type="curve" smooth="yes"/>
      <point x="-11" y="1212"/>
      <point x="137" y="1227"/>
      <point x="232" y="1250" type="curve"/>
      <point x="237" y="1259"/>
      <point x="240" y="1287"/>
      <point x="240" y="1300" type="curve"/>
      <point x="169" y="1293"/>
      <point x="11" y="1284"/>
      <point x="-78" y="1284" type="curve" smooth="yes"/>
      <point x="-185" y="1284"/>
      <point x="-236" y="1302"/>
      <point x="-236" y="1336" type="curve" smooth="yes"/>
      <point x="-236" y="1381"/>
      <point x="-151" y="1382"/>
      <point x="-101" y="1454" type="curve" smooth="yes"/>
      <point x="-71" y="1496"/>
      <point x="-55" y="1522"/>
      <point x="-25" y="1522" type="curve" smooth="yes"/>
      <point x="-2" y="1522"/>
      <point x="12" y="1506"/>
      <point x="13" y="1458" type="curve"/>
      <point x="26" y="1461"/>
      <point x="57" y="1478"/>
      <point x="61" y="1490" type="curve"/>
      <point x="61" y="1560"/>
      <point x="19" y="1596"/>
      <point x="-18" y="1596" type="curve" smooth="yes"/>
      <point x="-79" y="1596"/>
      <point x="-116" y="1542"/>
      <point x="-144" y="1502" type="curve" smooth="yes"/>
      <point x="-185" y="1444"/>
      <point x="-313" y="1425"/>
      <point x="-313" y="1329" type="curve" smooth="yes"/>
      <point x="-313" y="1252"/>
      <point x="-217" y="1212"/>
    </contour>
  </outline>
</glyph>
<glyph name="endoftext-ar" format="2">
  <advance width="982"/>
  <unicode hex="061D"/>
  <outline>
    <contour>
      <point x="456" y="1155" type="curve" smooth="yes"/>
      <point x="223" y="1155"/>
      <point x="100" y="917"/>
      <point x="100" y="794" type="curve" smooth="yes"/>
      <point x="100" y="682"/>
      <point x="144" y="612"/>
      <point x="226" y="541" type="curve" smooth="yes"/>
      <point x="284" y="491"/>
      <point x="375" y="441"/>
      <point x="424" y="368" type="curve" smooth="yes"/>
      <point x="486" y="275"/>
      <point x="509" y="145"/>
      <point x="558" y="73" type="curve" smooth="yes"/>
      <point x="589" y="27"/>
      <point x="648" y="1"/>
      <point x="695" y="1" type="curve" smooth="yes"/>
      <point x="812" y="1"/>
      <point x="912" y="112"/>
      <point x="912" y="208" type="curve" smooth="yes"/>
      <point x="912" y="262"/>
      <point x="877" y="312"/>
      <point x="808" y="312" type="curve" smooth="yes"/>
      <point x="759" y="312"/>
      <point x="722" y="267"/>
      <point x="722" y="226" type="curve" smooth="yes"/>
      <point x="722" y="197"/>
      <point x="725" y="180"/>
      <point x="734" y="157" type="curve"/>
      <point x="693" y="151"/>
      <point x="647" y="164"/>
      <point x="627" y="215" type="curve" smooth="yes"/>
      <point x="588" y="312"/>
      <point x="563" y="396"/>
      <point x="504" y="493" type="curve" smooth="yes"/>
      <point x="431" y="614"/>
      <point x="230" y="682"/>
      <point x="230" y="778" type="curve" smooth="yes"/>
      <point x="230" y="855"/>
      <point x="307" y="1013"/>
      <point x="431" y="1013" type="curve" smooth="yes"/>
      <point x="474" y="1013"/>
      <point x="527" y="954"/>
      <point x="527" y="888" type="curve" smooth="yes"/>
      <point x="527" y="838"/>
      <point x="516" y="792"/>
      <point x="496" y="753" type="curve"/>
      <point x="510" y="732"/>
      <point x="548" y="717"/>
      <point x="573" y="728" type="curve"/>
      <point x="605" y="784"/>
      <point x="624" y="865"/>
      <point x="624" y="974" type="curve" smooth="yes"/>
      <point x="624" y="1069"/>
      <point x="539" y="1155"/>
    </contour>
  </outline>
</glyph>
<glyph name="ain-ar" format="2">
  <advance width="874"/>
  <unicode hex="0639"/>
  <anchor x="566" y="608" name="above"/>
  <anchor x="169" y="345" name="alef"/>
  <anchor x="510" y="-89" name="below"/>
  <anchor x="534" y="628" name="diaA"/>
  <anchor x="519" y="-703" name="diaB"/>
  <outline>
    <contour>
      <point x="532" y="-673" type="curve" smooth="yes"/>
      <point x="603" y="-673"/>
      <point x="649" y="-667"/>
      <point x="704" y="-657" type="curve"/>
      <point x="738" y="-620"/>
      <point x="759" y="-560"/>
      <point x="759" y="-513" type="curve"/>
      <point x="692" y="-524"/>
      <point x="627" y="-530"/>
      <point x="568" y="-530" type="curve" smooth="yes"/>
      <point x="327" y="-530"/>
      <point x="216" y="-392"/>
      <point x="216" y="-262" type="curve" smooth="yes"/>
      <point x="216" y="-107"/>
      <point x="354" y="0"/>
      <point x="524" y="0" type="curve" smooth="yes"/>
      <point x="562" y="0"/>
      <point x="602" y="-5"/>
      <point x="648" y="-17" type="curve"/>
      <point x="679" y="23"/>
      <point x="699" y="80"/>
      <point x="699" y="126" type="curve"/>
      <point x="496" y="142"/>
      <point x="415" y="236"/>
      <point x="415" y="315" type="curve" smooth="yes"/>
      <point x="415" y="377"/>
      <point x="464" y="430"/>
      <point x="559" y="430" type="curve" smooth="yes"/>
      <point x="633" y="430"/>
      <point x="693" y="397"/>
      <point x="745" y="328" type="curve"/>
      <point x="796" y="346"/>
      <point x="833" y="386"/>
      <point x="853" y="427" type="curve"/>
      <point x="782" y="526"/>
      <point x="672" y="571"/>
      <point x="567" y="571" type="curve" smooth="yes"/>
      <point x="412" y="571"/>
      <point x="266" y="474"/>
      <point x="266" y="306" type="curve" smooth="yes"/>
      <point x="266" y="246"/>
      <point x="299" y="166"/>
      <point x="377" y="104" type="curve"/>
      <point x="167" y="32"/>
      <point x="70" y="-124"/>
      <point x="70" y="-277" type="curve" smooth="yes"/>
      <point x="70" y="-477"/>
      <point x="236" y="-673"/>
    </contour>
  </outline>
</glyph>
<glyph name="alefMaksura-ar" format="2">
  <advance width="1338"/>
  <unicode hex="0649"/>
  <anchor x="952" y="726" name="above"/>
  <anchor x="437" y="554" name="alef"/>
  <anchor x="651" y="-345" name="below"/>
  <anchor x="1015" y="740" name="diaA"/>
  <anchor x="665" y="-371" name="diaB"/>
  <anchor x="649" y="-284" name="ring"/>
  <outline>
    <contour>
      <point x="651" y="-303" type="curve" smooth="yes"/>
      <point x="1032" y="-303"/>
      <point x="1244" y="-123"/>
      <point x="1244" y="62" type="curve" smooth="yes"/>
      <point x="1244" y="305"/>
      <point x="863" y="183"/>
      <point x="863" y="329" type="curve" smooth="yes"/>
      <point x="863" y="424"/>
      <point x="1003" y="548"/>
      <point x="1117" y="548" type="curve" smooth="yes"/>
      <point x="1148" y="548"/>
      <point x="1178" y="542"/>
      <point x="1208" y="529" type="curve"/>
      <point x="1241" y="561"/>
      <point x="1263" y="604"/>
      <point x="1268" y="648" type="curve"/>
      <point x="1226" y="677"/>
      <point x="1187" y="686"/>
      <point x="1140" y="686" type="curve" smooth="yes"/>
      <point x="952" y="686"/>
      <point x="718" y="511"/>
      <point x="718" y="315" type="curve" smooth="yes"/>
      <point x="718" y="51"/>
      <point x="1108" y="159"/>
      <point x="1108" y="44" type="curve" smooth="yes"/>
      <point x="1108" y="-27"/>
      <point x="972" y="-170"/>
      <point x="674" y="-170" type="curve" smooth="yes"/>
      <point x="329" y="-170"/>
      <point x="207" y="-29"/>
      <point x="207" y="147" type="curve" smooth="yes"/>
      <point x="207" y="255"/>
      <point x="268" y="377"/>
      <point x="383" y="486" type="curve"/>
      <point x="367" y="513"/>
      <point x="350" y="529"/>
      <point x="321" y="532" type="curve"/>
      <point x="145" y="405"/>
      <point x="70" y="252"/>
      <point x="70" y="112" type="curve" smooth="yes"/>
      <point x="70" y="-112"/>
      <point x="262" y="-303"/>
    </contour>
  </outline>
</glyph>
<glyph name="dammatan-ar" format="2">
  <unicode hex="064C"/>
  <anchor x="326" y="1276" name="_diaA"/>
  <anchor x="175" y="1736" name="diaA"/>
  <outline>
    <contour>
      <point x="125" y="1263" type="curve"/>
      <point x="341" y="1326"/>
      <point x="460" y="1439"/>
      <point x="460" y="1572" type="curve" smooth="yes"/>
      <point x="460" y="1645"/>
      <point x="417" y="1701"/>
      <point x="336" y="1701" type="curve" smooth="yes"/>
      <point x="281" y="1701"/>
      <point x="217" y="1658"/>
      <point x="217" y="1580" type="curve" smooth="yes"/>
      <point x="217" y="1481"/>
      <point x="308" y="1432"/>
      <point x="462" y="1434" type="curve"/>
      <point x="483" y="1450"/>
      <point x="499" y="1474"/>
      <point x="503" y="1504" type="curve"/>
      <point x="485" y="1503"/>
      <point x="468" y="1502"/>
      <point x="453" y="1502" type="curve" smooth="yes"/>
      <point x="334" y="1502"/>
      <point x="293" y="1540"/>
      <point x="293" y="1582" type="curve" smooth="yes"/>
      <point x="293" y="1616"/>
      <point x="316" y="1630"/>
      <point x="338" y="1630" type="curve" smooth="yes"/>
      <point x="359" y="1630"/>
      <point x="385" y="1613"/>
      <point x="385" y="1568" type="curve" smooth="yes"/>
      <point x="385" y="1443"/>
      <point x="211" y="1363"/>
      <point x="135" y="1343" type="curve"/>
      <point x="157" y="1311" type="line"/>
      <point x="179" y="1356"/>
      <point x="189" y="1400"/>
      <point x="189" y="1439" type="curve" smooth="yes"/>
      <point x="189" y="1517"/>
      <point x="148" y="1575"/>
      <point x="69" y="1575" type="curve" smooth="yes"/>
      <point x="20" y="1575"/>
      <point x="-36" y="1539"/>
      <point x="-49" y="1483" type="curve"/>
      <point x="-31" y="1466"/>
      <point x="-14" y="1457"/>
      <point x="16" y="1457" type="curve"/>
      <point x="25" y="1484"/>
      <point x="44" y="1496"/>
      <point x="64" y="1496" type="curve" smooth="yes"/>
      <point x="96" y="1496"/>
      <point x="111" y="1467"/>
      <point x="111" y="1430" type="curve" smooth="yes"/>
      <point x="111" y="1392"/>
      <point x="96" y="1346"/>
      <point x="70" y="1314" type="curve"/>
      <point x="82" y="1290"/>
      <point x="101" y="1275"/>
    </contour>
  </outline>
</glyph>
<glyph name="fatha-ar" format="2">
  <unicode hex="064E"/>
  <anchor x="307" y="1339" name="_diaA"/>
  <anchor x="294" y="1481" name="diaA"/>
  <outline>
    <contour>
      <point x="118" y="1353" type="curve"/>
      <point x="221" y="1362"/>
      <point x="290" y="1372"/>
      <point x="484" y="1416" type="curve"/>
      <point x="491" y="1432"/>
      <point x="502" y="1465"/>
      <point x="502" y="1494" type="curve"/>
      <point x="334" y="1462"/>
      <point x="249" y="1452"/>
      <point x="131" y="1445" type="curve"/>
      <point x="126" y="1431"/>
      <point x="118" y="1382"/>
    </contour>
  </outline>
</glyph>
<glyph name="damma-ar" format="2">
  <unicode hex="064F"/>
  <anchor x="263" y="1279" name="_diaA"/>
  <anchor x="248" y="1784" name="diaA"/>
  <outline>
    <contour>
      <point x="106" y="1281" type="curve"/>
      <point x="274" y="1340"/>
      <point x="383" y="1464"/>
      <point x="383" y="1585" type="curve" smooth="yes"/>
      <point x="383" y="1663"/>
      <point x="337" y="1727"/>
      <point x="249" y="1727" type="curve" smooth="yes"/>
      <point x="187" y="1727"/>
      <point x="116" y="1680"/>
      <point x="116" y="1593" type="curve" smooth="yes"/>
      <point x="116" y="1484"/>
      <point x="216" y="1431"/>
      <point x="385" y="1433" type="curve"/>
      <point x="408" y="1450"/>
      <point x="426" y="1477"/>
      <point x="430" y="1510" type="curve"/>
      <point x="258" y="1497"/>
      <point x="199" y="1540"/>
      <point x="199" y="1596" type="curve" smooth="yes"/>
      <point x="199" y="1632"/>
      <point x="223" y="1651"/>
      <point x="247" y="1651" type="curve" smooth="yes"/>
      <point x="271" y="1651"/>
      <point x="301" y="1631"/>
      <point x="301" y="1580" type="curve" smooth="yes"/>
      <point x="301" y="1463"/>
      <point x="179" y="1386"/>
      <point x="52" y="1352" type="curve"/>
      <point x="57" y="1332"/>
      <point x="76" y="1296"/>
    </contour>
  </outline>
</glyph>
<glyph name="shadda-ar" format="2">
  <unicode hex="0651"/>
  <anchor x="283" y="1326" name="_diaA"/>
  <anchor x="263" y="1706" name="diaA"/>
  <outline>
    <contour>
      <point x="155" y="1341" type="curve" smooth="yes"/>
      <point x="228" y="1341"/>
      <point x="272" y="1393"/>
      <point x="286" y="1444" type="curve"/>
      <point x="301" y="1413"/>
      <point x="338" y="1388"/>
      <point x="380" y="1388" type="curve" smooth="yes"/>
      <point x="471" y="1388"/>
      <point x="513" y="1462"/>
      <point x="513" y="1549" type="curve" smooth="yes"/>
      <point x="513" y="1598"/>
      <point x="500" y="1652"/>
      <point x="474" y="1699" type="curve"/>
      <point x="449" y="1696"/>
      <point x="416" y="1679"/>
      <point x="402" y="1665" type="curve"/>
      <point x="419" y="1637"/>
      <point x="431" y="1591"/>
      <point x="431" y="1550" type="curve" smooth="yes"/>
      <point x="431" y="1507"/>
      <point x="418" y="1471"/>
      <point x="385" y="1471" type="curve" smooth="yes"/>
      <point x="337" y="1471"/>
      <point x="322" y="1527"/>
      <point x="322" y="1653" type="curve"/>
      <point x="286" y="1653"/>
      <point x="261" y="1647"/>
      <point x="243" y="1638" type="curve"/>
      <point x="244" y="1480"/>
      <point x="203" y="1423"/>
      <point x="166" y="1423" type="curve" smooth="yes"/>
      <point x="139" y="1423"/>
      <point x="129" y="1446"/>
      <point x="129" y="1478" type="curve" smooth="yes"/>
      <point x="129" y="1514"/>
      <point x="142" y="1562"/>
      <point x="156" y="1602" type="curve"/>
      <point x="147" y="1604"/>
      <point x="136" y="1605"/>
      <point x="125" y="1605" type="curve" smooth="yes"/>
      <point x="111" y="1605"/>
      <point x="94" y="1603"/>
      <point x="76" y="1598" type="curve"/>
      <point x="57" y="1554"/>
      <point x="47" y="1508"/>
      <point x="47" y="1468" type="curve" smooth="yes"/>
      <point x="47" y="1396"/>
      <point x="80" y="1341"/>
    </contour>
  </outline>
</glyph>
<glyph name="hamzaabove-ar" format="2">
  <unicode hex="0654"/>
  <anchor x="273" y="1316" name="_diaA"/>
  <anchor x="265" y="1746" name="diaA"/>
  <outline>
    <contour>
      <point x="142" y="1335" type="curve"/>
      <point x="172" y="1345"/>
      <point x="259" y="1375"/>
      <point x="384" y="1385" type="curve"/>
      <point x="400" y="1402"/>
      <point x="414" y="1436"/>
      <point x="414" y="1455" type="curve"/>
      <point x="245" y="1508"/>
      <point x="208" y="1538"/>
      <point x="208" y="1568" type="curve" smooth="yes"/>
      <point x="208" y="1604"/>
      <point x="241" y="1617"/>
      <point x="270" y="1617" type="curve" smooth="yes"/>
      <point x="299" y="1617"/>
      <point x="340" y="1605"/>
      <point x="383" y="1574" type="curve"/>
      <point x="402" y="1584"/>
      <point x="428" y="1608"/>
      <point x="433" y="1633" type="curve"/>
      <point x="387" y="1672"/>
      <point x="337" y="1698"/>
      <point x="275" y="1698" type="curve" smooth="yes"/>
      <point x="173" y="1698"/>
      <point x="116" y="1628"/>
      <point x="116" y="1570" type="curve" smooth="yes"/>
      <point x="116" y="1508"/>
      <point x="155" y="1473"/>
      <point x="247" y="1435" type="curve"/>
      <point x="186" y="1426"/>
      <point x="131" y="1416"/>
      <point x="92" y="1405" type="curve"/>
      <point x="97" y="1385"/>
      <point x="117" y="1350"/>
    </contour>
  </outline>
</glyph>
<glyph name="dammainverted-ar" format="2">
  <unicode hex="0657"/>
  <anchor x="4" y="1238" name="_diaA"/>
  <anchor x="5" y="1832" name="diaA"/>
  <outline>
    <contour>
      <point x="18" y="1313" type="curve" smooth="yes"/>
      <point x="100" y="1313"/>
      <point x="143" y="1374"/>
      <point x="143" y="1433" type="curve" smooth="yes"/>
      <point x="143" y="1488"/>
      <point x="105" y="1542"/>
      <point x="27" y="1542" type="curve" smooth="yes"/>
      <point x="6" y="1542"/>
      <point x="-10" y="1537"/>
      <point x="-35" y="1525" type="curve"/>
      <point x="-30" y="1599"/>
      <point x="13" y="1671"/>
      <point x="95" y="1740" type="curve"/>
      <point x="82" y="1756"/>
      <point x="49" y="1780"/>
      <point x="16" y="1781" type="curve"/>
      <point x="-77" y="1691"/>
      <point x="-121" y="1581"/>
      <point x="-121" y="1490" type="curve" smooth="yes"/>
      <point x="-121" y="1397"/>
      <point x="-70" y="1313"/>
    </contour>
  </outline>
</glyph>
<glyph name="dotvowelbelow-ar" format="2">
  <unicode hex="065C"/>
  <anchor x="218" y="-90" name="_diaB"/>
  <anchor x="218" y="-490" name="diaB"/>
  <outline>
    <contour>
      <point x="221" y="-430" type="curve" smooth="yes"/>
      <point x="300" y="-430"/>
      <point x="363" y="-370"/>
      <point x="363" y="-289" type="curve" smooth="yes"/>
      <point x="363" y="-210"/>
      <point x="300" y="-148"/>
      <point x="221" y="-148" type="curve" smooth="yes"/>
      <point x="140" y="-148"/>
      <point x="79" y="-210"/>
      <point x="79" y="-289" type="curve" smooth="yes"/>
      <point x="79" y="-370"/>
      <point x="140" y="-430"/>
    </contour>
  </outline>
</glyph>
<glyph name="five-ar" format="2">
  <advance width="900"/>
  <unicode hex="0665"/>
  <outline>
    <contour>
      <point x="445" y="183" type="curve"/>
      <point x="664" y="183"/>
      <point x="810" y="356"/>
      <point x="810" y="545" type="curve"/>
      <point x="810" y="686"/>
      <point x="689" y="956"/>
      <point x="457" y="956" type="curve"/>
      <point x="280" y="956"/>
      <point x="90" y="714"/>
      <point x="90" y="519" type="curve"/>
      <point x="90" y="345"/>
      <point x="212" y="183"/>
    </contour>
    <contour>
      <point x="451" y="328" type="curve"/>
      <point x="303" y="328"/>
      <point x="239" y="419"/>
      <point x="239" y="543" type="curve"/>
      <point x="239" y="678"/>
      <point x="370" y="812"/>
      <point x="457" y="812" type="curve"/>
      <point x="544" y="812"/>
      <point x="664" y="676"/>
      <point x="664" y="535" type="curve"/>
      <point x="664" y="408"/>
      <point x="580" y="328"/>
    </contour>
  </outline>
</glyph>
<glyph name="decimalseparator-ar" format="2">
  <advance width="553"/>
  <unicode hex="066B"/>
  <outline>
    <contour>
      <point x="89" y="-386" type="curve"/>
      <point x="404" y="-274"/>
      <point x="513" y="43"/>
      <point x="421" y="401" type="curve"/>
      <point x="377" y="399"/>
      <point x="328" y="387"/>
      <point x="290" y="365" type="curve"/>
      <point x="361" y="36"/>
      <point x="292" y="-185"/>
      <point x="13" y="-260" type="curve"/>
      <point x="17" y="-303"/>
      <point x="42" y="-351"/>
    </contour>
  </outline>
</glyph>
<glyph name="thousandseparator-ar" format="2">
  <advance width="553"/>
  <unicode hex="066C"/>
  <outline>
    <contour>
      <point x="227" y="172" type="line"/>
      <point x="340" y="280"/>
      <point x="395" y="443"/>
      <point x="395" y="577" type="curve" smooth="yes"/>
      <point x="395" y="707"/>
      <point x="323" y="756"/>
      <point x="253" y="756" type="curve" smooth="yes"/>
      <point x="201" y="756"/>
      <point x="151" y="724"/>
      <point x="131" y="665" type="curve"/>
      <point x="131" y="546" type="line"/>
      <point x="270" y="546" type="line"/>
      <point x="270" y="411"/>
      <point x="212" y="287"/>
      <point x="159" y="222" type="curve"/>
    </contour>
  </outline>
</glyph>
<glyph name="fehDotless-ar" format="2">
  <advance width="1767"/>
  <unicode hex="06A1"/>
  <anchor x="1337" y="888" name="above"/>
  <anchor x="382" y="590" name="alef"/>
  <anchor x="1432" y="-36" name="below"/>
  <anchor x="1275" y="898" name="diaA"/>
  <anchor x="921" y="-89" name="diaB"/>
  <outline>
    <contour>
      <point x="815" y="-24" type="curve" smooth="yes"/>
      <point x="1339" y="-24"/>
      <point x="1631" y="34"/>
      <point x="1671" y="357" type="curve"/>
      <point x="1697" y="371" type="line"/>
      <point x="1706" y="395"/>
      <point x="1707" y="420"/>
      <point x="1707" y="436" type="curve" smooth="yes"/>
      <point x="1707" y="457"/>
      <point x="1704" y="487"/>
      <point x="1698" y="510" type="curve"/>
      <point x="1665" y="494" type="line"/>
      <point x="1631" y="733"/>
      <point x="1519" y="821"/>
      <point x="1356" y="821" type="curve" smooth="yes"/>
      <point x="1214" y="821"/>
      <point x="1075" y="723"/>
      <point x="1075" y="546" type="curve" smooth="yes"/>
      <point x="1075" y="415"/>
      <point x="1171" y="286"/>
      <point x="1365" y="286" type="curve" smooth="yes"/>
      <point x="1437" y="286"/>
      <point x="1487" y="291"/>
      <point x="1531" y="311" type="curve"/>
      <point x="1469" y="155"/>
      <point x="1298" y="111"/>
      <point x="853" y="111" type="curve" smooth="yes"/>
      <point x="472" y="111"/>
      <point x="188" y="157"/>
      <point x="188" y="344" type="curve" smooth="yes"/>
      <point x="188" y="389"/>
      <point x="197" y="437"/>
      <point x="242" y="506" type="curve"/>
      <point x="226" y="529"/>
      <point x="204" y="545"/>
      <point x="178" y="552" type="curve"/>
      <point x="91" y="466"/>
      <point x="60" y="382"/>
      <point x="60" y="299" type="curve" smooth="yes"/>
      <point x="60" y="127"/>
      <point x="208" y="-24"/>
    </contour>
    <contour>
      <point x="1356" y="417" type="curve" smooth="yes"/>
      <point x="1278" y="417"/>
      <point x="1208" y="470"/>
      <point x="1208" y="556" type="curve" smooth="yes"/>
      <point x="1208" y="638"/>
      <point x="1277" y="693"/>
      <point x="1351" y="693" type="curve" smooth="yes"/>
      <point x="1435" y="693"/>
      <point x="1515" y="626"/>
      <point x="1535" y="441" type="curve"/>
      <point x="1479" y="425"/>
      <point x="1431" y="417"/>
    </contour>
  </outline>
</glyph>
<glyph name="keheh-ar" format="2">
  <advance width="1428"/>
  <unicode hex="06A9"/>
  <anchor x="206" y="504" name="alef"/>
  <anchor x="853" y="768" name="center"/>
  <anchor x="541" y="904" name="diaA"/>
  <anchor x="706" y="-115" name="diaB"/>
  <anchor x="729" y="752" name="ring"/>
  <outline>
    <contour>
      <point x="680" y="-12" type="curve" smooth="yes"/>
      <point x="872" y="-12"/>
      <point x="1060" y="-9"/>
      <point x="1189" y="-3" type="curve" smooth="yes"/>
      <point x="1287" y="2"/>
      <point x="1358" y="125"/>
      <point x="1358" y="242" type="curve" smooth="yes"/>
      <point x="1358" y="364"/>
      <point x="1280" y="487"/>
      <point x="1076" y="497" type="curve" smooth="yes"/>
      <point x="1041" y="499"/>
      <point x="903" y="500"/>
      <point x="759" y="500" type="curve" smooth="yes"/>
      <point x="656" y="500"/>
      <point x="549" y="499"/>
      <point x="474" y="498" type="curve"/>
      <point x="604" y="640"/>
      <point x="846" y="855"/>
      <point x="1040" y="1020" type="curve"/>
      <point x="1032" y="1048"/>
      <point x="1005" y="1080"/>
      <point x="981" y="1092" type="curve"/>
      <point x="676" y="865"/>
      <point x="403" y="649"/>
      <point x="228" y="469" type="curve"/>
      <point x="236" y="429"/>
      <point x="250" y="393"/>
      <point x="278" y="361" type="curve"/>
      <point x="409" y="363"/>
      <point x="618" y="365"/>
      <point x="789" y="365" type="curve" smooth="yes"/>
      <point x="923" y="365"/>
      <point x="1033" y="364"/>
      <point x="1064" y="362" type="curve" smooth="yes"/>
      <point x="1155" y="357"/>
      <point x="1212" y="303"/>
      <point x="1212" y="238" type="curve" smooth="yes"/>
      <point x="1212" y="205"/>
      <point x="1197" y="169"/>
      <point x="1166" y="135" type="curve"/>
      <point x="1050" y="129"/>
      <point x="904" y="126"/>
      <point x="752" y="126" type="curve" smooth="yes"/>
      <point x="523" y="126"/>
      <point x="283" y="132"/>
      <point x="116" y="143" type="curve"/>
      <point x="82" y="95"/>
      <point x="68" y="36"/>
      <point x="70" y="-2" type="curve"/>
      <point x="225" y="-8"/>
      <point x="456" y="-12"/>
    </contour>
  </outline>
</glyph>
<glyph name="hehDoachashmee-ar" format="2">
  <advance width="1167"/>
  <unicode hex="06BE"/>
  <anchor x="613" y="842" name="above"/>
  <anchor x="238" y="480" name="alef"/>
  <anchor x="650" y="-83" name="below"/>
  <anchor x="633" y="763" name="diaA"/>
  <anchor x="603" y="-163" name="diaB"/>
  <outline>
    <contour>
      <point x="694" y="-83" type="curve" smooth="yes"/>
      <point x="970" y="-83"/>
      <point x="1107" y="112"/>
      <point x="1107" y="309" type="curve" smooth="yes"/>
      <point x="1107" y="512"/>
      <point x="974" y="713"/>
      <point x="659" y="713" type="curve" smooth="yes"/>
      <point x="625" y="713"/>
      <point x="588" y="710"/>
      <point x="549" y="704" type="curve"/>
      <point x="528" y="683"/>
      <point x="522" y="645"/>
      <point x="522" y="611" type="curve" smooth="yes"/>
      <point x="522" y="594"/>
      <point x="524" y="577"/>
      <point x="525" y="564" type="curve"/>
      <point x="573" y="575"/>
      <point x="616" y="580"/>
      <point x="655" y="580" type="curve" smooth="yes"/>
      <point x="870" y="580"/>
      <point x="967" y="445"/>
      <point x="967" y="310" type="curve" smooth="yes"/>
      <point x="967" y="180"/>
      <point x="876" y="48"/>
      <point x="691" y="48" type="curve" smooth="yes"/>
      <point x="484" y="48"/>
      <point x="401" y="166"/>
      <point x="401" y="290" type="curve" smooth="yes"/>
      <point x="401" y="369"/>
      <point x="442" y="430"/>
      <point x="511" y="430" type="curve" smooth="yes"/>
      <point x="575" y="430"/>
      <point x="610" y="376"/>
      <point x="610" y="309" type="curve" smooth="yes"/>
      <point x="610" y="253"/>
      <point x="573" y="125"/>
      <point x="304" y="125" type="curve" smooth="yes"/>
      <point x="190" y="125"/>
      <point x="119" y="136"/>
      <point x="65" y="162" type="curve"/>
      <point x="61" y="145"/>
      <point x="60" y="130"/>
      <point x="60" y="117" type="curve" smooth="yes"/>
      <point x="60" y="77"/>
      <point x="65" y="47"/>
      <point x="87" y="6" type="curve"/>
      <point x="132" y="-10"/>
      <point x="192" y="-20"/>
      <point x="267" y="-20" type="curve" smooth="yes"/>
      <point x="490" y="-20"/>
      <point x="756" y="96"/>
      <point x="756" y="312" type="curve" smooth="yes"/>
      <point x="756" y="445"/>
      <point x="669" y="568"/>
      <point x="519" y="568" type="curve" smooth="yes"/>
      <point x="348" y="568"/>
      <point x="256" y="438"/>
      <point x="256" y="292" type="curve" smooth="yes"/>
      <point x="256" y="125"/>
      <point x="395" y="-83"/>
    </contour>
  </outline>
</glyph>
<glyph name="fullstop-ar" format="2">
  <advance width="641"/>
  <unicode hex="06D4"/>
  <outline>
    <contour>
      <point x="174" y="0" type="line"/>
      <point x="426" y="0" type="line"/>
      <point x="455" y="125" type="line"/>
      <point x="205" y="125" type="line"/>
    </contour>
  </outline>
</glyph>
<glyph name="ae-ar" format="2">
  <advance width="722"/>
  <unicode hex="06D5"/>
  <anchor x="373" y="666" name="above"/>
  <anchor x="82" y="501" name="alef"/>
  <anchor x="348" y="-75" name="below"/>
  <anchor x="371" y="687" name="diaA"/>
  <anchor x="372" y="-89" name="diaB"/>
  <outline>
    <contour>
      <point x="355" y="-35" type="curve" smooth="yes"/>
      <point x="501" y="-35"/>
      <point x="652" y="53"/>
      <point x="652" y="230" type="curve" smooth="yes"/>
      <point x="652" y="367"/>
      <point x="571" y="510"/>
      <point x="332" y="618" type="curve"/>
      <point x="282" y="606"/>
      <point x="231" y="562"/>
      <point x="214" y="527" type="curve"/>
      <point x="456" y="424"/>
      <point x="515" y="331"/>
      <point x="515" y="235" type="curve" smooth="yes"/>
      <point x="515" y="142"/>
      <point x="446" y="95"/>
      <point x="365" y="95" type="curve" smooth="yes"/>
      <point x="272" y="95"/>
      <point x="208" y="146"/>
      <point x="208" y="240" type="curve" smooth="yes"/>
      <point x="208" y="324"/>
      <point x="274" y="409"/>
      <point x="386" y="467" type="curve"/>
      <point x="263" y="534" type="line"/>
      <point x="142" y="458"/>
      <point x="70" y="345"/>
      <point x="70" y="231" type="curve" smooth="yes"/>
      <point x="70" y="57"/>
      <point x="210" y="-35"/>
    </contour>
  </outline>
</glyph>
<glyph name="endofayah-ar" format="2">
  <advance width="2019"/>
  <unicode hex="06DD"/>
  <anchor x="673" y="0" name="digitR"/>
  <outline>
    <contour>
      <point x="978" y="-556" type="curve"/>
      <point x="1039" y="-556" type="line"/>
      <point x="1117" y="-352"/>
      <point x="1283" y="-343"/>
      <point x="1433" y="-269" type="curve" smooth="yes"/>
      <point x="1644" y="-165"/>
      <point x="1698" y="-34"/>
      <point x="1915" y="-34" type="curve"/>
      <point x="1945" y="18" type="line"/>
      <point x="1899" y="108"/>
      <point x="1802" y="164"/>
      <point x="1714" y="164" type="curve" smooth="yes"/>
      <point x="1658" y="164"/>
      <point x="1613" y="148"/>
      <point x="1563" y="120" type="curve"/>
      <point x="1528" y="143"/>
      <point x="1500" y="151"/>
      <point x="1476" y="151" type="curve" smooth="yes"/>
      <point x="1385" y="151"/>
      <point x="1350" y="52"/>
      <point x="1219" y="52" type="curve" smooth="yes"/>
      <point x="1161" y="52"/>
      <point x="1088" y="69"/>
      <point x="1009" y="153" type="curve"/>
      <point x="929" y="68"/>
      <point x="857" y="52"/>
      <point x="798" y="52" type="curve" smooth="yes"/>
      <point x="668" y="52"/>
      <point x="633" y="151"/>
      <point x="542" y="151" type="curve" smooth="yes"/>
      <point x="518" y="151"/>
      <point x="489" y="143"/>
      <point x="455" y="120" type="curve"/>
      <point x="405" y="148"/>
      <point x="359" y="164"/>
      <point x="304" y="164" type="curve" smooth="yes"/>
      <point x="216" y="164"/>
      <point x="119" y="108"/>
      <point x="72" y="18" type="curve"/>
      <point x="103" y="-34" type="line"/>
      <point x="320" y="-34"/>
      <point x="373" y="-165"/>
      <point x="585" y="-269" type="curve" smooth="yes"/>
      <point x="735" y="-343"/>
      <point x="900" y="-352"/>
    </contour>
    <contour>
      <point x="1009" y="-447" type="curve"/>
      <point x="926" y="-315"/>
      <point x="799" y="-290"/>
      <point x="636" y="-218" type="curve" smooth="yes"/>
      <point x="487" y="-152"/>
      <point x="371" y="20"/>
      <point x="167" y="21" type="curve"/>
      <point x="200" y="72"/>
      <point x="256" y="88"/>
      <point x="294" y="88" type="curve" smooth="yes"/>
      <point x="373" y="88"/>
      <point x="431" y="58"/>
      <point x="461" y="22" type="curve"/>
      <point x="493" y="56"/>
      <point x="515" y="69"/>
      <point x="537" y="69" type="curve" smooth="yes"/>
      <point x="620" y="69"/>
      <point x="664" y="-29"/>
      <point x="810" y="-29" type="curve" smooth="yes"/>
      <point x="873" y="-29"/>
      <point x="954" y="5"/>
      <point x="1009" y="67" type="curve"/>
      <point x="1063" y="5"/>
      <point x="1145" y="-29"/>
      <point x="1208" y="-29" type="curve" smooth="yes"/>
      <point x="1353" y="-29"/>
      <point x="1398" y="69"/>
      <point x="1480" y="69" type="curve" smooth="yes"/>
      <point x="1502" y="69"/>
      <point x="1525" y="56"/>
      <point x="1556" y="22" type="curve"/>
      <point x="1587" y="58"/>
      <point x="1644" y="88"/>
      <point x="1724" y="88" type="curve" smooth="yes"/>
      <point x="1762" y="88"/>
      <point x="1817" y="72"/>
      <point x="1851" y="21" type="curve"/>
      <point x="1646" y="20"/>
      <point x="1530" y="-152"/>
      <point x="1381" y="-218" type="curve" smooth="yes"/>
      <point x="1218" y="-290"/>
      <point x="1091" y="-316"/>
    </contour>
    <contour>
      <point x="1009" y="-267" type="curve"/>
      <point x="1064" y="-245"/>
      <point x="1100" y="-221"/>
      <point x="1100" y="-163" type="curve" smooth="yes"/>
      <point x="1100" y="-107"/>
      <point x="1064" y="-84"/>
      <point x="1009" y="-63" type="curve"/>
      <point x="953" y="-84"/>
      <point x="919" y="-107"/>
      <point x="919" y="-163" type="curve" smooth="yes"/>
      <point x="919" y="-221"/>
      <point x="953" y="-245"/>
    </contour>
    <contour>
      <point x="829" y="-199" type="curve"/>
      <point x="836" y="-175"/>
      <point x="840" y="-132"/>
      <point x="840" y="-120" type="curve"/>
      <point x="734" y="-109"/>
      <point x="603" y="-55"/>
      <point x="526" y="-3" type="curve"/>
      <point x="512" y="-8"/>
      <point x="491" y="-32"/>
      <point x="486" y="-44" type="curve"/>
      <point x="554" y="-107"/>
      <point x="761" y="-189"/>
    </contour>
    <contour>
      <point x="1187" y="-199" type="curve"/>
      <point x="1255" y="-189"/>
      <point x="1462" y="-107"/>
      <point x="1530" y="-44" type="curve"/>
      <point x="1525" y="-32"/>
      <point x="1504" y="-8"/>
      <point x="1490" y="-3" type="curve"/>
      <point x="1413" y="-55"/>
      <point x="1282" y="-109"/>
      <point x="1176" y="-120" type="curve"/>
      <point x="1176" y="-132"/>
      <point x="1180" y="-175"/>
    </contour>
    <contour>
      <point x="246" y="134" type="curve"/>
      <point x="314" y="155" type="line"/>
      <point x="220" y="294"/>
      <point x="160" y="477"/>
      <point x="160" y="654" type="curve" smooth="yes"/>
      <point x="160" y="837"/>
      <point x="220" y="1014"/>
      <point x="334" y="1160" type="curve"/>
      <point x="253" y="1165" type="line"/>
      <point x="132" y="1011"/>
      <point x="70" y="838"/>
      <point x="70" y="654" type="curve" smooth="yes"/>
      <point x="70" y="466"/>
      <point x="144" y="253"/>
    </contour>
    <contour>
      <point x="1772" y="134" type="line"/>
      <point x="1875" y="253"/>
      <point x="1949" y="466"/>
      <point x="1949" y="654" type="curve" smooth="yes"/>
      <point x="1949" y="838"/>
      <point x="1887" y="1011"/>
      <point x="1766" y="1165" type="curve"/>
      <point x="1684" y="1160" type="line"/>
      <point x="1799" y="1014"/>
      <point x="1858" y="837"/>
      <point x="1858" y="654" type="curve" smooth="yes"/>
      <point x="1858" y="477"/>
      <point x="1799" y="294"/>
      <point x="1704" y="155" type="curve"/>
    </contour>
    <contour>
      <point x="1009" y="1154" type="curve"/>
      <point x="1091" y="1241"/>
      <point x="1164" y="1257"/>
      <point x="1224" y="1257" type="curve" smooth="yes"/>
      <point x="1327" y="1257"/>
      <point x="1373" y="1166"/>
      <point x="1465" y="1166" type="curve" smooth="yes"/>
      <point x="1490" y="1166"/>
      <point x="1519" y="1174"/>
      <point x="1554" y="1198" type="curve"/>
      <point x="1695" y="1112"/>
      <point x="1869" y="1157"/>
      <point x="1965" y="1292" type="curve"/>
      <point x="1933" y="1366" type="line"/>
      <point x="1712" y="1366"/>
      <point x="1657" y="1487"/>
      <point x="1441" y="1594" type="curve" smooth="yes"/>
      <point x="1288" y="1670"/>
      <point x="1120" y="1679"/>
      <point x="1041" y="1897" type="curve"/>
      <point x="977" y="1897" type="line"/>
      <point x="898" y="1679"/>
      <point x="730" y="1670"/>
      <point x="577" y="1594" type="curve" smooth="yes"/>
      <point x="360" y="1488"/>
      <point x="306" y="1366"/>
      <point x="85" y="1366" type="curve"/>
      <point x="53" y="1292" type="line"/>
      <point x="149" y="1157"/>
      <point x="323" y="1112"/>
      <point x="464" y="1198" type="curve"/>
      <point x="499" y="1174"/>
      <point x="528" y="1166"/>
      <point x="553" y="1166" type="curve" smooth="yes"/>
      <point x="645" y="1166"/>
      <point x="691" y="1257"/>
      <point x="794" y="1257" type="curve" smooth="yes"/>
      <point x="854" y="1257"/>
      <point x="927" y="1241"/>
    </contour>
    <contour>
      <point x="308" y="1249" type="curve" smooth="yes"/>
      <point x="271" y="1249"/>
      <point x="216" y="1265"/>
      <point x="175" y="1301" type="curve"/>
      <point x="384" y="1310"/>
      <point x="457" y="1452"/>
      <point x="643" y="1531" type="curve" smooth="yes"/>
      <point x="812" y="1603"/>
      <point x="928" y="1638"/>
      <point x="1009" y="1756" type="curve"/>
      <point x="1090" y="1638"/>
      <point x="1206" y="1603"/>
      <point x="1375" y="1531" type="curve" smooth="yes"/>
      <point x="1561" y="1452"/>
      <point x="1634" y="1310"/>
      <point x="1843" y="1301" type="curve"/>
      <point x="1802" y="1265"/>
      <point x="1747" y="1249"/>
      <point x="1710" y="1249" type="curve" smooth="yes"/>
      <point x="1633" y="1249"/>
      <point x="1576" y="1279"/>
      <point x="1546" y="1308" type="curve"/>
      <point x="1515" y="1275"/>
      <point x="1493" y="1262"/>
      <point x="1472" y="1262" type="curve" smooth="yes"/>
      <point x="1390" y="1262"/>
      <point x="1327" y="1358"/>
      <point x="1204" y="1358" type="curve" smooth="yes"/>
      <point x="1142" y="1358"/>
      <point x="1063" y="1325"/>
      <point x="1009" y="1265" type="curve"/>
      <point x="955" y="1325"/>
      <point x="876" y="1358"/>
      <point x="814" y="1358" type="curve" smooth="yes"/>
      <point x="691" y="1358"/>
      <point x="628" y="1262"/>
      <point x="546" y="1262" type="curve" smooth="yes"/>
      <point x="525" y="1262"/>
      <point x="503" y="1275"/>
      <point x="472" y="1308" type="curve"/>
      <point x="442" y="1279"/>
      <point x="385" y="1249"/>
    </contour>
    <contour>
      <point x="1009" y="1377" type="curve"/>
      <point x="1064" y="1399"/>
      <point x="1100" y="1421"/>
      <point x="1100" y="1477" type="curve" smooth="yes"/>
      <point x="1100" y="1535"/>
      <point x="1064" y="1559"/>
      <point x="1009" y="1581" type="curve"/>
      <point x="953" y="1559"/>
      <point x="919" y="1535"/>
      <point x="919" y="1477" type="curve" smooth="yes"/>
      <point x="919" y="1421"/>
      <point x="953" y="1399"/>
    </contour>
    <contour>
      <point x="526" y="1315" type="curve"/>
      <point x="603" y="1367"/>
      <point x="734" y="1421"/>
      <point x="840" y="1432" type="curve"/>
      <point x="840" y="1444"/>
      <point x="836" y="1487"/>
      <point x="829" y="1511" type="curve"/>
      <point x="761" y="1501"/>
      <point x="554" y="1419"/>
      <point x="486" y="1356" type="curve"/>
      <point x="491" y="1344"/>
      <point x="512" y="1320"/>
    </contour>
    <contour>
      <point x="1490" y="1315" type="curve"/>
      <point x="1504" y="1320"/>
      <point x="1525" y="1344"/>
      <point x="1530" y="1356" type="curve"/>
      <point x="1462" y="1419"/>
      <point x="1255" y="1501"/>
      <point x="1187" y="1511" type="curve"/>
      <point x="1180" y="1487"/>
      <point x="1176" y="1444"/>
      <point x="1176" y="1432" type="curve"/>
      <point x="1282" y="1421"/>
      <point x="1413" y="1367"/>
    </contour>
  </outline>
</glyph>
<glyph name="five-persian" format="2">
  <advance width="900"/>
  <unicode hex="06F5"/>
  <outline>
    <contour>
      <point x="236" y="-9" type="curve" smooth="yes"/>
      <point x="335" y="-9"/>
      <point x="428" y="29"/>
      <point x="488" y="192" type="curve"/>
      <point x="415" y="174" type="line"/>
      <point x="437" y="61"/>
      <point x="531" y="-9"/>
      <point x="640" y="-9" type="curve" smooth="yes"/>
      <point x="767" y="-9"/>
      <point x="884" y="87"/>
      <point x="884" y="265" type="curve" smooth="yes"/>
      <point x="884" y="537"/>
      <point x="596" y="874"/>
      <point x="467" y="1087" type="curve"/>
      <point x="421" y="1084"/>
      <point x="360" y="1001"/>
      <point x="347" y="966" type="curve"/>
      <point x="489" y="777"/>
      <point x="747" y="506"/>
      <point x="747" y="245" type="curve" smooth="yes"/>
      <point x="747" y="177"/>
      <point x="710" y="123"/>
      <point x="641" y="123" type="curve" smooth="yes"/>
      <point x="562" y="123"/>
      <point x="529" y="190"/>
      <point x="512" y="330" type="curve"/>
      <point x="474" y="329"/>
      <point x="420" y="321"/>
      <point x="387" y="301" type="curve"/>
      <point x="389" y="218"/>
      <point x="356" y="122"/>
      <point x="262" y="122" type="curve" smooth="yes"/>
      <point x="193" y="122"/>
      <point x="150" y="158"/>
      <point x="150" y="259" type="curve" smooth="yes"/>
      <point x="150" y="465"/>
      <point x="335" y="712"/>
      <point x="443" y="864" type="curve"/>
      <point x="424" y="905"/>
      <point x="388" y="945"/>
      <point x="347" y="967" type="curve"/>
      <point x="237" y="772"/>
      <point x="16" y="510"/>
      <point x="16" y="240" type="curve" smooth="yes"/>
      <point x="16" y="61"/>
      <point x="128" y="-9"/>
    </contour>
  </outline>
</glyph>
<glyph name="hahFourbelow-ar" format="2">
  <advance width="1054"/>
  <unicode hex="077C"/>
  <anchor x="12" y="470" name="alef"/>
  <anchor x="401" y="681" name="diaA"/>
  <anchor x="502" y="-788" name="diaB"/>
  <outline>
    <component base="hah-ar"/>
    <contour>
      <point x="429" y="-525" type="curve"/>
      <point x="447" y="-525"/>
      <point x="490" y="-522"/>
      <point x="500" y="-506" type="curve"/>
      <point x="501" y="-495"/>
      <point x="501" y="-484"/>
      <point x="501" y="-474" type="curve" smooth="yes"/>
      <point x="501" y="-346"/>
      <point x="458" y="-269"/>
      <point x="458" y="-188" type="curve" smooth="yes"/>
      <point x="458" y="-133"/>
      <point x="478" y="-101"/>
      <point x="509" y="-101" type="curve" smooth="yes"/>
      <point x="537" y="-101"/>
      <point x="555" y="-132"/>
      <point x="560" y="-190" type="curve" smooth="yes"/>
      <point x="562" y="-213"/>
      <point x="562" y="-241"/>
      <point x="563" y="-272" type="curve"/>
      <point x="590" y="-272"/>
      <point x="614" y="-269"/>
      <point x="635" y="-263" type="curve"/>
      <point x="631" y="-180"/>
      <point x="665" y="-95"/>
      <point x="740" y="-89" type="curve"/>
      <point x="748" y="-63"/>
      <point x="752" y="-36"/>
      <point x="751" y="-10" type="curve"/>
      <point x="669" y="-10"/>
      <point x="611" y="-69"/>
      <point x="604" y="-123" type="curve"/>
      <point x="620" y="-129" type="line"/>
      <point x="614" y="-57"/>
      <point x="563" y="-20"/>
      <point x="509" y="-20" type="curve" smooth="yes"/>
      <point x="445" y="-20"/>
      <point x="377" y="-73"/>
      <point x="377" y="-185" type="curve" smooth="yes"/>
      <point x="377" y="-294"/>
      <point x="429" y="-365"/>
    </contour>
  </outline>
</glyph>
<glyph name="kashidaWaw-ar" format="2">
  <advance width="701"/>
  <unicode hex="0884"/>
  <anchor x="342" y="716" name="diaA"/>
  <anchor x="231" y="-590" name="diaB"/>
  <outline>
    <contour>
      <point x="-20" y="-10" type="line"/>
      <point x="721" y="-10" type="line"/>
      <point x="721" y="125" type="line"/>
      <point x="-20" y="125" type="line"/>
    </contour>
    <contour>
      <point x="342" y="615" type="curve" smooth="yes"/>
      <point x="146" y="615"/>
      <point x="36" y="462"/>
      <point x="36" y="314" type="curve" smooth="yes"/>
      <point x="36" y="128"/>
      <point x="181" y="37"/>
      <point x="355" y="37" type="curve" smooth="yes"/>
      <point x="466" y="37"/>
      <point x="569" y="63"/>
      <point x="632" y="107" type="curve"/>
      <point x="644" y="159"/>
      <point x="643" y="203"/>
      <point x="634" y="255" type="curve"/>
      <point x="557" y="198"/>
      <point x="459" y="171"/>
      <point x="356" y="171" type="curve" smooth="yes"/>
      <point x="251" y="171"/>
      <point x="173" y="218"/>
      <point x="173" y="323" type="curve" smooth="yes"/>
      <point x="173" y="401"/>
      <point x="231" y="479"/>
      <point x="328" y="479" type="curve" smooth="yes"/>
      <point x="471" y="479"/>
      <point x="518" y="342"/>
      <point x="518" y="183" type="curve" smooth="yes"/>
      <point x="518" y="-154"/>
      <point x="278" y="-358"/>
      <point x="-95" y="-443" type="curve"/>
      <point x="-85" y="-494"/>
      <point x="-53" y="-551"/>
      <point x="-20" y="-576" type="curve"/>
      <point x="455" y="-457"/>
      <point x="654" y="-97"/>
      <point x="658" y="196" type="curve" smooth="yes"/>
      <point x="660" y="426"/>
      <point x="542" y="615"/>
    </contour>
  </outline>
</glyph>
<glyph name="piastremarkabove-ar" format="2">
  <advance width="980"/>
  <unicode hex="0891"/>
  <anchor x="130" y="0" name="digitR"/>
  <outline>
    <contour>
      <point x="544" y="1175" type="curve" smooth="yes"/>
      <point x="831" y="1175"/>
      <point x="959" y="1183"/>
      <point x="1049" y="1191" type="curve"/>
      <point x="1064" y="1213"/>
      <point x="1100" y="1251"/>
      <point x="1111" y="1325" type="curve"/>
      <point x="1027" y="1316"/>
      <point x="855" y="1303"/>
      <point x="522" y="1303" type="curve" smooth="yes"/>
      <point x="-114" y="1303"/>
      <point x="370" y="1308"/>
      <point x="-104" y="1308" type="curve" smooth="yes"/>
      <point x="-130" y="1308"/>
      <point x="-130" y="1268"/>
      <point x="-131" y="1244" type="curve" smooth="yes"/>
      <point x="-132" y="1206"/>
      <point x="-128" y="1175"/>
      <point x="-93" y="1175" type="curve" smooth="yes"/>
      <point x="130" y="1175"/>
      <point x="343" y="1175"/>
    </contour>
    <contour>
      <point x="-76" y="1302" type="curve"/>
      <point x="196" y="1302" type="line"/>
      <point x="456" y="1413"/>
      <point x="514" y="1555"/>
      <point x="732" y="1555" type="curve" smooth="yes"/>
      <point x="788" y="1555"/>
      <point x="839" y="1527"/>
      <point x="839" y="1481" type="curve" smooth="yes"/>
      <point x="839" y="1415"/>
      <point x="774" y="1357"/>
      <point x="623" y="1299" type="curve"/>
      <point x="653" y="1293"/>
      <point x="814" y="1310"/>
      <point x="844" y="1304" type="curve"/>
      <point x="914" y="1327"/>
      <point x="971" y="1412"/>
      <point x="971" y="1491" type="curve" smooth="yes"/>
      <point x="971" y="1598"/>
      <point x="894" y="1691"/>
      <point x="722" y="1691" type="curve" smooth="yes"/>
      <point x="426" y="1691"/>
      <point x="351" y="1460"/>
    </contour>
  </outline>
</glyph>
<glyph name="halfmaddaovermadda-ar" format="2">
  <unicode hex="089F"/>
  <anchor x="9" y="1283" name="_diaA"/>
  <anchor x="-4" y="1641" name="diaA"/>
  <outline>
    <component base="_madda" xOffset="-86" yOffset="1390"/>
    <contour>
      <point x="72" y="1594" type="curve"/>
      <point x="-57" y="1594"/>
      <point x="-98" y="1626"/>
      <point x="-192" y="1626" type="curve" smooth="yes"/>
      <point x="-212" y="1626"/>
      <point x="-231" y="1623"/>
      <point x="-248" y="1617" type="curve" smooth="yes"/>
      <point x="-279" y="1606"/>
      <point x="-297" y="1585"/>
      <point x="-300" y="1572" type="curve" smooth="yes"/>
      <point x="-304" y="1557"/>
      <point x="-303" y="1543"/>
      <point x="-294" y="1526" type="curve"/>
      <point x="-274" y="1551"/>
      <point x="-247" y="1571"/>
      <point x="-211" y="1571" type="curve" smooth="yes"/>
      <point x="-108" y="1571"/>
      <point x="-55" y="1542"/>
      <point x="26" y="1542" type="curve" smooth="yes"/>
      <point x="46" y="1542"/>
      <point x="65" y="1566"/>
    </contour>
  </outline>
</glyph>
<glyph name="kehehElongatedhamzaabove-ar" format="2">
  <advance width="1428"/>
  <unicode hex="08C8"/>
  <anchor x="126" y="1004" name="alef"/>
  <anchor x="334" y="1231" name="diaA"/>
  <anchor x="766" y="-115" name="diaB"/>
  <outline>
    <component base="keheh-ar"/>
    <component base="_gafBarShort" xOffset="281" yOffset="668"/>
    <contour>
      <point x="877" y="1090" type="curve"/>
      <point x="882" y="1155" type="line"/>
      <point x="801" y="1127"/>
      <point x="742" y="1113"/>
      <point x="707" y="1113" type="curve" smooth="yes"/>
      <point x="666" y="1113"/>
      <point x="653" y="1144"/>
      <point x="653" y="1168" type="curve" smooth="yes"/>
      <point x="653" y="1216"/>
      <point x="740" y="1233"/>
      <point x="788" y="1233" type="curve"/>
      <point x="798" y="1252"/>
      <point x="804" y="1287"/>
      <point x="793" y="1310" type="curve"/>
      <point x="783" y="1311"/>
      <point x="773" y="1311"/>
      <point x="764" y="1311" type="curve" smooth="yes"/>
      <point x="662" y="1311"/>
      <point x="570" y="1258"/>
      <point x="570" y="1154" type="curve" smooth="yes"/>
      <point x="570" y="1094"/>
      <point x="599" y="1034"/>
      <point x="706" y="1034" type="curve" smooth="yes"/>
      <point x="719" y="1034"/>
      <point x="775" y="1052"/>
    </contour>
  </outline>
</glyph>
<glyph name="yehSmall-farsi" format="2">
  <advance width="689"/>
  <unicode hex="08C9"/>
  <anchor x="347" y="316" name="diaA"/>
  <anchor x="337" y="-215" name="diaB"/>
  <outline>
    <contour>
      <point x="336" y="-193" type="curve" smooth="yes"/>
      <point x="526" y="-193"/>
      <point x="632" y="-103"/>
      <point x="632" y="-11" type="curve" smooth="yes"/>
      <point x="632" y="121"/>
      <point x="452" y="50"/>
      <point x="452" y="123" type="curve" smooth="yes"/>
      <point x="452" y="171"/>
      <point x="512" y="233"/>
      <point x="569" y="233" type="curve" smooth="yes"/>
      <point x="584" y="233"/>
      <point x="599" y="230"/>
      <point x="614" y="223" type="curve"/>
      <point x="631" y="239"/>
      <point x="642" y="261"/>
      <point x="644" y="283" type="curve"/>
      <point x="623" y="297"/>
      <point x="604" y="302"/>
      <point x="580" y="302" type="curve" smooth="yes"/>
      <point x="486" y="302"/>
      <point x="359" y="214"/>
      <point x="359" y="116" type="curve" smooth="yes"/>
      <point x="359" y="-26"/>
      <point x="534" y="38"/>
      <point x="534" y="-20" type="curve" smooth="yes"/>
      <point x="534" y="-55"/>
      <point x="496" y="-107"/>
      <point x="347" y="-107" type="curve" smooth="yes"/>
      <point x="192" y="-107"/>
      <point x="131" y="-56"/>
      <point x="131" y="32" type="curve" smooth="yes"/>
      <point x="131" y="86"/>
      <point x="146" y="131"/>
      <point x="204" y="190" type="curve"/>
      <point x="196" y="203"/>
      <point x="185" y="223"/>
      <point x="171" y="225" type="curve"/>
      <point x="83" y="161"/>
      <point x="45" y="84"/>
      <point x="45" y="14" type="curve" smooth="yes"/>
      <point x="45" y="-98"/>
      <point x="141" y="-193"/>
    </contour>
  </outline>
</glyph>
<glyph name="largerounddotinsidecirclebelow-ar" format="2">
  <unicode hex="08D2"/>
  <anchor x="0" y="-833" name="_diaB"/>
  <anchor x="0" y="-1250" name="diaB"/>
  <outline>
    <component base="dotStopabove-ar" yOffset="-2460"/>
    <contour>
      <point x="2" y="-1238" type="curve" smooth="yes"/>
      <point x="111" y="-1238"/>
      <point x="199" y="-1151"/>
      <point x="199" y="-1042" type="curve" smooth="yes"/>
      <point x="199" y="-933"/>
      <point x="111" y="-845"/>
      <point x="2" y="-845" type="curve" smooth="yes"/>
      <point x="-107" y="-845"/>
      <point x="-195" y="-933"/>
      <point x="-195" y="-1042" type="curve" smooth="yes"/>
      <point x="-195" y="-1151"/>
      <point x="-107" y="-1238"/>
    </contour>
    <contour>
      <point x="2" y="-1199" type="curve" smooth="yes"/>
      <point x="-85" y="-1199"/>
      <point x="-156" y="-1129"/>
      <point x="-156" y="-1042" type="curve" smooth="yes"/>
      <point x="-156" y="-955"/>
      <point x="-85" y="-884"/>
      <point x="2" y="-884" type="curve" smooth="yes"/>
      <point x="89" y="-884"/>
      <point x="160" y="-955"/>
      <point x="160" y="-1042" type="curve" smooth="yes"/>
      <point x="160" y="-1129"/>
      <point x="89" y="-1199"/>
    </contour>
  </outline>
</glyph>
<glyph name="wawbelow-ar" format="2">
  <advance width="345"/>
  <unicode hex="08D3"/>
  <anchor x="170" y="-579" name="_diaB"/>
  <anchor x="164" y="-1249" name="diaB"/>
  <outline>
    <contour>
      <point x="2" y="-1245" type="curve"/>
      <point x="220" y="-1191"/>
      <point x="347" y="-1029"/>
      <point x="347" y="-859" type="curve" smooth="yes"/>
      <point x="347" y="-708"/>
      <point x="282" y="-636"/>
      <point x="187" y="-636" type="curve" smooth="yes"/>
      <point x="87" y="-636"/>
      <point x="31" y="-714"/>
      <point x="31" y="-790" type="curve" smooth="yes"/>
      <point x="31" y="-885"/>
      <point x="105" y="-932"/>
      <point x="194" y="-932" type="curve" smooth="yes"/>
      <point x="251" y="-932"/>
      <point x="314" y="-913"/>
      <point x="368" y="-876" type="curve"/>
      <point x="371" y="-862"/>
      <point x="372" y="-849"/>
      <point x="372" y="-836" type="curve" smooth="yes"/>
      <point x="372" y="-820"/>
      <point x="371" y="-798"/>
      <point x="369" y="-786" type="curve"/>
      <point x="314" y="-826"/>
      <point x="247" y="-849"/>
      <point x="195" y="-849" type="curve" smooth="yes"/>
      <point x="151" y="-849"/>
      <point x="116" y="-825"/>
      <point x="116" y="-785" type="curve" smooth="yes"/>
      <point x="116" y="-755"/>
      <point x="141" y="-719"/>
      <point x="180" y="-719" type="curve" smooth="yes"/>
      <point x="244" y="-719"/>
      <point x="265" y="-785"/>
      <point x="265" y="-857" type="curve" smooth="yes"/>
      <point x="265" y="-1019"/>
      <point x="154" y="-1120"/>
      <point x="-37" y="-1163" type="curve"/>
      <point x="-32" y="-1189"/>
      <point x="-15" y="-1233"/>
    </contour>
  </outline>
</glyph>
<glyph name="ainabove-ar" format="2">
  <unicode hex="08D6"/>
  <anchor x="-28" y="1049" name="_diaA"/>
  <anchor x="-75" y="1798" name="alef"/>
  <anchor x="39" y="1819" name="diaA"/>
  <outline>
    <contour>
      <point x="36" y="1089" type="curve" smooth="yes"/>
      <point x="75" y="1089"/>
      <point x="101" y="1093"/>
      <point x="131" y="1098" type="curve"/>
      <point x="150" y="1118"/>
      <point x="161" y="1151"/>
      <point x="161" y="1177" type="curve"/>
      <point x="124" y="1171"/>
      <point x="89" y="1168"/>
      <point x="56" y="1168" type="curve" smooth="yes"/>
      <point x="-76" y="1168"/>
      <point x="-137" y="1244"/>
      <point x="-137" y="1315" type="curve" smooth="yes"/>
      <point x="-137" y="1401"/>
      <point x="-62" y="1459"/>
      <point x="32" y="1459" type="curve" smooth="yes"/>
      <point x="53" y="1459"/>
      <point x="75" y="1457"/>
      <point x="100" y="1450" type="curve"/>
      <point x="117" y="1472"/>
      <point x="128" y="1503"/>
      <point x="128" y="1529" type="curve"/>
      <point x="17" y="1538"/>
      <point x="-28" y="1589"/>
      <point x="-28" y="1633" type="curve" smooth="yes"/>
      <point x="-28" y="1667"/>
      <point x="-1" y="1696"/>
      <point x="51" y="1696" type="curve" smooth="yes"/>
      <point x="92" y="1696"/>
      <point x="125" y="1678"/>
      <point x="154" y="1640" type="curve"/>
      <point x="182" y="1650"/>
      <point x="202" y="1672"/>
      <point x="213" y="1694" type="curve"/>
      <point x="174" y="1749"/>
      <point x="113" y="1773"/>
      <point x="56" y="1773" type="curve" smooth="yes"/>
      <point x="-30" y="1773"/>
      <point x="-110" y="1720"/>
      <point x="-110" y="1628" type="curve" smooth="yes"/>
      <point x="-110" y="1595"/>
      <point x="-92" y="1551"/>
      <point x="-49" y="1517" type="curve"/>
      <point x="-164" y="1477"/>
      <point x="-218" y="1391"/>
      <point x="-218" y="1307" type="curve" smooth="yes"/>
      <point x="-218" y="1197"/>
      <point x="-126" y="1089"/>
    </contour>
  </outline>
</glyph>
<glyph name="noonKasraabove-ar" format="2">
  <unicode hex="08D8"/>
  <anchor x="-5" y="1031" name="_diaA"/>
  <anchor x="-117" y="1834" name="alef"/>
  <anchor x="-7" y="1873" name="diaA"/>
  <outline>
    <component base="_dot1" xScale="0.56448" yScale="0.56448" xOffset="8" yOffset="1791"/>
    <component base="kasrasmall-ar" yOffset="1370"/>
    <contour>
      <point x="-3" y="1216" type="curve" smooth="yes"/>
      <point x="181" y="1216"/>
      <point x="273" y="1346"/>
      <point x="273" y="1511" type="curve" smooth="yes"/>
      <point x="273" y="1583"/>
      <point x="251" y="1661"/>
      <point x="207" y="1731" type="curve"/>
      <point x="190" y="1730"/>
      <point x="164" y="1723"/>
      <point x="150" y="1712" type="curve"/>
      <point x="178" y="1644"/>
      <point x="191" y="1575"/>
      <point x="191" y="1514" type="curve" smooth="yes"/>
      <point x="191" y="1392"/>
      <point x="134" y="1299"/>
      <point x="2" y="1299" type="curve" smooth="yes"/>
      <point x="-109" y="1299"/>
      <point x="-174" y="1382"/>
      <point x="-174" y="1477" type="curve" smooth="yes"/>
      <point x="-174" y="1538"/>
      <point x="-150" y="1604"/>
      <point x="-99" y="1658" type="curve"/>
      <point x="-109" y="1674"/>
      <point x="-131" y="1684"/>
      <point x="-145" y="1689" type="curve"/>
      <point x="-222" y="1625"/>
      <point x="-257" y="1538"/>
      <point x="-257" y="1458" type="curve" smooth="yes"/>
      <point x="-257" y="1295"/>
      <point x="-134" y="1216"/>
    </contour>
  </outline>
</glyph>
<glyph name="noonKasrabelow-ar" format="2">
  <unicode hex="08D9"/>
  <anchor x="-7" y="-227" name="_diaB"/>
  <anchor x="-5" y="-1069" name="diaB"/>
  <outline>
    <component base="_dot1" xScale="0.56448" yScale="0.56448" xOffset="8" yOffset="-309"/>
    <component base="kasrasmall-ar" yOffset="-730"/>
    <contour>
      <point x="-3" y="-884" type="curve" smooth="yes"/>
      <point x="181" y="-884"/>
      <point x="273" y="-754"/>
      <point x="273" y="-589" type="curve" smooth="yes"/>
      <point x="273" y="-517"/>
      <point x="251" y="-439"/>
      <point x="207" y="-369" type="curve"/>
      <point x="190" y="-370"/>
      <point x="164" y="-377"/>
      <point x="150" y="-388" type="curve"/>
      <point x="178" y="-456"/>
      <point x="191" y="-525"/>
      <point x="191" y="-586" type="curve" smooth="yes"/>
      <point x="191" y="-708"/>
      <point x="134" y="-801"/>
      <point x="2" y="-801" type="curve" smooth="yes"/>
      <point x="-109" y="-801"/>
      <point x="-174" y="-718"/>
      <point x="-174" y="-623" type="curve" smooth="yes"/>
      <point x="-174" y="-562"/>
      <point x="-150" y="-496"/>
      <point x="-99" y="-442" type="curve"/>
      <point x="-109" y="-426"/>
      <point x="-131" y="-416"/>
      <point x="-145" y="-411" type="curve"/>
      <point x="-222" y="-475"/>
      <point x="-257" y="-562"/>
      <point x="-257" y="-642" type="curve" smooth="yes"/>
      <point x="-257" y="-805"/>
      <point x="-134" y="-884"/>
    </contour>
  </outline>
</glyph>
<glyph name="safhaabove-ar" format="2">
  <unicode hex="08E1"/>
  <anchor x="0" y="1504" name="_diaA"/>
  <anchor x="1" y="1907" name="diaA"/>
  <outline>
    <contour>
      <point x="-87" y="1781" type="curve"/>
      <point x="-115" y="1712"/>
      <point x="-186" y="1688"/>
      <point x="-253" y="1688" type="curve" smooth="yes"/>
      <point x="-329" y="1688"/>
      <point x="-372" y="1702"/>
      <point x="-450" y="1754" type="curve"/>
      <point x="-467" y="1745"/>
      <point x="-481" y="1729"/>
      <point x="-487" y="1710" type="curve"/>
      <point x="-395" y="1635"/>
      <point x="-335" y="1614"/>
      <point x="-244" y="1614" type="curve" smooth="yes"/>
      <point x="-172" y="1614"/>
      <point x="-105" y="1637"/>
      <point x="-79" y="1686" type="curve"/>
      <point x="-68" y="1662"/>
      <point x="-27" y="1644"/>
      <point x="14" y="1644" type="curve" smooth="yes"/>
      <point x="124" y="1644"/>
      <point x="175" y="1822"/>
      <point x="283" y="1822" type="curve" smooth="yes"/>
      <point x="326" y="1822"/>
      <point x="347" y="1798"/>
      <point x="347" y="1772" type="curve" smooth="yes"/>
      <point x="347" y="1741"/>
      <point x="317" y="1707"/>
      <point x="256" y="1707" type="curve" smooth="yes"/>
      <point x="211" y="1707"/>
      <point x="172" y="1712"/>
      <point x="127" y="1736" type="curve"/>
      <point x="114" y="1746"/>
      <point x="99" y="1791"/>
      <point x="90" y="1839" type="curve"/>
      <point x="67" y="1834"/>
      <point x="46" y="1821"/>
      <point x="29" y="1800" type="curve"/>
      <point x="41" y="1764"/>
      <point x="56" y="1717"/>
      <point x="65" y="1697" type="curve"/>
      <point x="142" y="1645"/>
      <point x="203" y="1637"/>
      <point x="251" y="1637" type="curve" smooth="yes"/>
      <point x="365" y="1637"/>
      <point x="421" y="1709"/>
      <point x="421" y="1776" type="curve" smooth="yes"/>
      <point x="421" y="1836"/>
      <point x="377" y="1892"/>
      <point x="289" y="1892" type="curve" smooth="yes"/>
      <point x="134" y="1892"/>
      <point x="90" y="1705"/>
      <point x="13" y="1705" type="curve" smooth="yes"/>
      <point x="-38" y="1705"/>
      <point x="-76" y="1757"/>
    </contour>
  </outline>
</glyph>
<glyph name="highwaw-ar" format="2">
  <unicode hex="08F3"/>
  <anchor x="167" y="797" name="_diaA"/>
  <anchor x="189" y="1471" name="diaA"/>
  <outline>
    <contour>
      <point x="12" y="794" type="curve"/>
      <point x="230" y="848"/>
      <point x="371" y="1016"/>
      <point x="371" y="1186" type="curve" smooth="yes"/>
      <point x="371" y="1337"/>
      <point x="296" y="1409"/>
      <point x="197" y="1409" type="curve" smooth="yes"/>
      <point x="89" y="1409"/>
      <point x="33" y="1331"/>
      <point x="33" y="1255" type="curve" smooth="yes"/>
      <point x="33" y="1160"/>
      <point x="107" y="1103"/>
      <point x="204" y="1103" type="curve" smooth="yes"/>
      <point x="261" y="1103"/>
      <point x="338" y="1122"/>
      <point x="398" y="1159" type="curve"/>
      <point x="412" y="1181"/>
      <point x="411" y="1234"/>
      <point x="399" y="1252" type="curve"/>
      <point x="338" y="1212"/>
      <point x="256" y="1188"/>
      <point x="204" y="1188" type="curve" smooth="yes"/>
      <point x="92" y="1188"/>
      <point x="106" y="1325"/>
      <point x="191" y="1325" type="curve" smooth="yes"/>
      <point x="254" y="1325"/>
      <point x="284" y="1265"/>
      <point x="284" y="1195" type="curve" smooth="yes"/>
      <point x="284" y="1032"/>
      <point x="161" y="924"/>
      <point x="-30" y="881" type="curve"/>
      <point x="-29" y="849"/>
      <point x="-9" y="807"/>
    </contour>
  </outline>
</glyph>
<glyph name="rightarrowheadabove-ar" format="2">
  <unicode hex="08F8"/>
  <anchor x="207" y="1223" name="_diaA"/>
  <anchor x="135" y="1688" name="diaA"/>
  <outline>
    <contour>
      <point x="-8" y="1246" type="curve"/>
      <point x="94" y="1246"/>
      <point x="311" y="1289"/>
      <point x="371" y="1343" type="curve"/>
      <point x="371" y="1402"/>
      <point x="329" y="1595"/>
      <point x="298" y="1668" type="curve"/>
      <point x="276" y="1679"/>
      <point x="230" y="1679"/>
      <point x="206" y="1671" type="curve"/>
      <point x="239" y="1577"/>
      <point x="274" y="1426"/>
      <point x="274" y="1391" type="curve"/>
      <point x="239" y="1365"/>
      <point x="65" y="1337"/>
      <point x="-37" y="1335" type="curve"/>
      <point x="-37" y="1300"/>
      <point x="-23" y="1274"/>
    </contour>
  </outline>
</glyph>
<glyph name="hyphentwo" format="2">
  <advance width="645"/>
  <unicode hex="2010"/>
  <anchor x="322" y="825" name="U"/>
  <outline>
    <contour>
      <point x="60" y="416" type="line"/>
      <point x="585" y="416" type="line"/>
      <point x="585" y="528" type="line"/>
      <point x="60" y="528" type="line"/>
    </contour>
  </outline>
</glyph>
<glyph name="figuredash" format="2">
  <advance width="900"/>
  <unicode hex="2012"/>
  <outline>
    <contour>
      <point x="60" y="416" type="line"/>
      <point x="840" y="416" type="line"/>
      <point x="840" y="528" type="line"/>
      <point x="60" y="528" type="line"/>
    </contour>
  </outline>
</glyph>
<glyph name="quoteright" format="2">
  <advance width="408"/>
  <unicode hex="2019"/>
  <outline>
    <contour>
      <point x="202" y="798" type="line"/>
      <point x="290" y="881"/>
      <point x="333" y="973"/>
      <point x="333" y="1065" type="curve" smooth="yes"/>
      <point x="333" y="1140"/>
      <point x="285" y="1188"/>
      <point x="225" y="1188" type="curve" smooth="yes"/>
      <point x="182" y="1188"/>
      <point x="133" y="1161"/>
      <point x="123" y="1113" type="curve"/>
      <point x="123" y="1038" type="line"/>
      <point x="228" y="1038" type="line"/>
      <point x="228" y="963"/>
      <point x="171" y="872"/>
      <point x="127" y="828" type="curve"/>
    </contour>
  </outline>
</glyph>
<glyph name="quotesinglbase" format="2">
  <advance width="570"/>
  <unicode hex="201A"/>
  <outline>
    <contour>
      <point x="277" y="-202" type="line"/>
      <point x="365" y="-120"/>
      <point x="408" y="-27"/>
      <point x="408" y="63" type="curve" smooth="yes"/>
      <point x="408" y="139"/>
      <point x="360" y="187"/>
      <point x="300" y="187" type="curve" smooth="yes"/>
      <point x="257" y="187"/>
      <point x="208" y="159"/>
      <point x="198" y="112" type="curve"/>
      <point x="198" y="37" type="line"/>
      <point x="303" y="37" type="line"/>
      <point x="303" y="-38"/>
      <point x="246" y="-129"/>
      <point x="202" y="-172" type="curve"/>
    </contour>
  </outline>
</glyph>
<glyph name="quotedblbase" format="2">
  <advance width="855"/>
  <unicode hex="201E"/>
  <outline>
    <contour>
      <point x="562" y="-202" type="line"/>
      <point x="650" y="-120"/>
      <point x="693" y="-27"/>
      <point x="693" y="63" type="curve" smooth="yes"/>
      <point x="693" y="139"/>
      <point x="645" y="187"/>
      <point x="585" y="187" type="curve" smooth="yes"/>
      <point x="542" y="187"/>
      <point x="493" y="159"/>
      <point x="483" y="112" type="curve"/>
      <point x="483" y="37" type="line"/>
      <point x="588" y="37" type="line"/>
      <point x="588" y="-38"/>
      <point x="531" y="-129"/>
      <point x="487" y="-172" type="curve"/>
    </contour>
    <contour>
      <point x="240" y="-202" type="line"/>
      <point x="327" y="-120"/>
      <point x="371" y="-27"/>
      <point x="371" y="63" type="curve" smooth="yes"/>
      <point x="371" y="139"/>
      <point x="322" y="187"/>
      <point x="262" y="187" type="curve" smooth="yes"/>
      <point x="219" y="187"/>
      <point x="171" y="159"/>
      <point x="161" y="112" type="curve"/>
      <point x="161" y="37" type="line"/>
      <point x="266" y="37" type="line"/>
      <point x="266" y="-38"/>
      <point x="208" y="-129"/>
      <point x="165" y="-172" type="curve"/>
    </contour>
  </outline>
</glyph>
<glyph name="quotedblrightreversed" format="2">
  <advance width="757"/>
  <unicode hex="201F"/>
  <outline>
    <contour>
      <point x="202" y="798" type="curve"/>
      <point x="277" y="828" type="line"/>
      <point x="234" y="872"/>
      <point x="176" y="963"/>
      <point x="176" y="1038" type="curve"/>
      <point x="281" y="1038" type="line"/>
      <point x="281" y="1113" type="line"/>
      <point x="271" y="1161"/>
      <point x="223" y="1188"/>
      <point x="180" y="1188" type="curve" smooth="yes"/>
      <point x="120" y="1188"/>
      <point x="71" y="1140"/>
      <point x="71" y="1065" type="curve" smooth="yes"/>
      <point x="71" y="973"/>
      <point x="115" y="881"/>
    </contour>
    <contour>
      <point x="525" y="798" type="curve"/>
      <point x="600" y="828" type="line"/>
      <point x="556" y="872"/>
      <point x="499" y="963"/>
      <point x="499" y="1038" type="curve"/>
      <point x="604" y="1038" type="line"/>
      <point x="604" y="1113" type="line"/>
      <point x="594" y="1161"/>
      <point x="545" y="1188"/>
      <point x="502" y="1188" type="curve" smooth="yes"/>
      <point x="442" y="1188"/>
      <point x="394" y="1140"/>
      <point x="394" y="1065" type="curve" smooth="yes"/>
      <point x="394" y="973"/>
      <point x="437" y="881"/>
    </contour>
  </outline>
</glyph>
<glyph name="daggerdbl" format="2">
  <advance width="768"/>
  <unicode hex="2021"/>
  <outline>
    <contour>
      <point x="311" y="-176" type="curve"/>
      <point x="457" y="-176" type="line"/>
      <point x="442" y="-16"/>
      <point x="442" y="210"/>
      <point x="442" y="352" type="curve"/>
      <point x="442" y="603" type="line"/>
      <point x="442" y="745"/>
      <point x="442" y="972"/>
      <point x="457" y="1132" type="curve"/>
      <point x="311" y="1132" type="line"/>
      <point x="326" y="972"/>
      <point x="326" y="745"/>
      <point x="326" y="603" type="curve"/>
      <point x="326" y="352" type="line"/>
      <point x="326" y="210"/>
      <point x="326" y="-16"/>
    </contour>
    <contour>
      <point x="22" y="126" type="line"/>
      <point x="182" y="133"/>
      <point x="278" y="135"/>
      <point x="386" y="135" type="curve" smooth="yes"/>
      <point x="494" y="135"/>
      <point x="586" y="133"/>
      <point x="746" y="126" type="curve"/>
      <point x="746" y="250" type="line"/>
      <point x="586" y="243"/>
      <point x="528" y="243"/>
      <point x="386" y="243" type="curve" smooth="yes"/>
      <point x="278" y="243"/>
      <point x="182" y="243"/>
      <point x="22" y="250" type="curve"/>
    </contour>
    <contour>
      <point x="22" y="678" type="line"/>
      <point x="182" y="684"/>
      <point x="278" y="686"/>
      <point x="386" y="686" type="curve" smooth="yes"/>
      <point x="494" y="686"/>
      <point x="586" y="684"/>
      <point x="746" y="678" type="curve"/>
      <point x="746" y="801" type="line"/>
      <point x="586" y="795"/>
      <point x="528" y="795"/>
      <point x="386" y="795" type="curve" smooth="yes"/>
      <point x="278" y="795"/>
      <point x="182" y="795"/>
      <point x="22" y="801" type="curve"/>
    </contour>
  </outline>
</glyph>
<glyph name="bullet" format="2">
  <advance width="705"/>
  <unicode hex="2022"/>
  <outline>
    <contour>
      <point x="351" y="384" type="curve" smooth="yes"/>
      <point x="441" y="384"/>
      <point x="517" y="459"/>
      <point x="517" y="549" type="curve" smooth="yes"/>
      <point x="517" y="639"/>
      <point x="441" y="714"/>
      <point x="351" y="714" type="curve" smooth="yes"/>
      <point x="261" y="714"/>
      <point x="187" y="639"/>
      <point x="187" y="549" type="curve" smooth="yes"/>
      <point x="187" y="459"/>
      <point x="261" y="384"/>
    </contour>
  </outline>
</glyph>
<glyph name="ellipsis" format="2">
  <advance width="1293"/>
  <unicode hex="2026"/>
  <outline>
    <contour>
      <point x="1053" y="-18" type="curve" smooth="yes"/>
      <point x="1109" y="-18"/>
      <point x="1155" y="27"/>
      <point x="1155" y="82" type="curve" smooth="yes"/>
      <point x="1155" y="138"/>
      <point x="1109" y="183"/>
      <point x="1053" y="183" type="curve" smooth="yes"/>
      <point x="998" y="183"/>
      <point x="952" y="138"/>
      <point x="952" y="82" type="curve" smooth="yes"/>
      <point x="952" y="27"/>
      <point x="998" y="-18"/>
    </contour>
    <contour>
      <point x="240" y="-18" type="curve" smooth="yes"/>
      <point x="295" y="-18"/>
      <point x="341" y="27"/>
      <point x="341" y="82" type="curve" smooth="yes"/>
      <point x="341" y="138"/>
      <point x="295" y="183"/>
      <point x="240" y="183" type="curve" smooth="yes"/>
      <point x="184" y="183"/>
      <point x="138" y="138"/>
      <point x="138" y="82" type="curve" smooth="yes"/>
      <point x="138" y="27"/>
      <point x="184" y="-18"/>
    </contour>
    <contour>
      <point x="645" y="-18" type="curve" smooth="yes"/>
      <point x="700" y="-18"/>
      <point x="746" y="27"/>
      <point x="746" y="82" type="curve" smooth="yes"/>
      <point x="746" y="138"/>
      <point x="700" y="183"/>
      <point x="645" y="183" type="curve" smooth="yes"/>
      <point x="589" y="183"/>
      <point x="543" y="138"/>
      <point x="543" y="82" type="curve" smooth="yes"/>
      <point x="543" y="27"/>
      <point x="589" y="-18"/>
    </contour>
  </outline>
</glyph>
<glyph name="guilsinglleft" format="2">
  <advance width="592"/>
  <unicode hex="2039"/>
  <outline>
    <contour>
      <point x="471" y="26" type="line"/>
      <point x="390" y="134"/>
      <point x="341" y="233"/>
      <point x="341" y="385" type="curve" smooth="yes"/>
      <point x="341" y="532"/>
      <point x="390" y="653"/>
      <point x="467" y="742" type="curve"/>
      <point x="444" y="768" type="line"/>
      <point x="376" y="724"/>
      <point x="195" y="607"/>
      <point x="195" y="385" type="curve" smooth="yes"/>
      <point x="195" y="165"/>
      <point x="380" y="47"/>
      <point x="444" y="0" type="curve"/>
    </contour>
  </outline>
</glyph>
<glyph name="guilsinglright" format="2">
  <advance width="592"/>
  <unicode hex="203A"/>
  <outline>
    <contour>
      <point x="89" y="26" type="curve"/>
      <point x="116" y="0" type="line"/>
      <point x="180" y="47"/>
      <point x="365" y="165"/>
      <point x="365" y="385" type="curve" smooth="yes"/>
      <point x="365" y="607"/>
      <point x="184" y="724"/>
      <point x="116" y="768" type="curve"/>
      <point x="93" y="742" type="line"/>
      <point x="170" y="653"/>
      <point x="219" y="532"/>
      <point x="219" y="385" type="curve" smooth="yes"/>
      <point x="219" y="233"/>
      <point x="170" y="134"/>
    </contour>
  </outline>
</glyph>
<glyph name="fraction" format="2">
  <advance width="900"/>
  <unicode hex="2044"/>
  <outline>
    <contour>
      <point x="7" y="-183" type="line"/>
      <point x="120" y="-183" type="line"/>
      <point x="892" y="1200" type="line"/>
      <point x="780" y="1200" type="line"/>
    </contour>
  </outline>
</glyph>
<glyph name="euro" format="2">
  <advance width="900"/>
  <unicode hex="20AC"/>
  <outline>
    <contour>
      <point x="543" y="-18" type="curve" smooth="yes"/>
      <point x="667" y="-18"/>
      <point x="768" y="20"/>
      <point x="851" y="97" type="curve"/>
      <point x="821" y="243" type="line"/>
      <point x="741" y="164"/>
      <point x="659" y="112"/>
      <point x="566" y="112" type="curve" smooth="yes"/>
      <point x="387" y="112"/>
      <point x="277" y="289"/>
      <point x="277" y="551" type="curve" smooth="yes"/>
      <point x="277" y="832"/>
      <point x="411" y="984"/>
      <point x="558" y="984" type="curve" smooth="yes"/>
      <point x="645" y="984"/>
      <point x="709" y="961"/>
      <point x="798" y="881" type="curve"/>
      <point x="843" y="1016" type="line"/>
      <point x="741" y="1092"/>
      <point x="675" y="1113"/>
      <point x="573" y="1113" type="curve" smooth="yes"/>
      <point x="336" y="1113"/>
      <point x="135" y="918"/>
      <point x="135" y="532" type="curve" smooth="yes"/>
      <point x="135" y="195"/>
      <point x="291" y="-18"/>
    </contour>
    <contour>
      <point x="22" y="397" type="line"/>
      <point x="561" y="397" type="line"/>
      <point x="591" y="506" type="line"/>
      <point x="52" y="506" type="line"/>
    </contour>
    <contour>
      <point x="22" y="600" type="line"/>
      <point x="612" y="600" type="line"/>
      <point x="642" y="708" type="line"/>
      <point x="52" y="708" type="line"/>
    </contour>
  </outline>
</glyph>
<glyph name="partialdiff" format="2">
  <advance width="832"/>
  <unicode hex="2202"/>
  <outline>
    <contour>
      <point x="360" y="-18" type="curve" smooth="yes"/>
      <point x="635" y="-18"/>
      <point x="768" y="321"/>
      <point x="768" y="630" type="curve" smooth="yes"/>
      <point x="768" y="837"/>
      <point x="696" y="1091"/>
      <point x="375" y="1091" type="curve" smooth="yes"/>
      <point x="295" y="1091"/>
      <point x="218" y="1062"/>
      <point x="172" y="1035" type="curve"/>
      <point x="206" y="922" type="line"/>
      <point x="275" y="960"/>
      <point x="318" y="975"/>
      <point x="378" y="975" type="curve" smooth="yes"/>
      <point x="563" y="975"/>
      <point x="637" y="820"/>
      <point x="637" y="663" type="curve" smooth="yes"/>
      <point x="637" y="635"/>
      <point x="636" y="606"/>
      <point x="633" y="577" type="curve"/>
      <point x="555" y="646"/>
      <point x="472" y="667"/>
      <point x="378" y="667" type="curve" smooth="yes"/>
      <point x="261" y="667"/>
      <point x="63" y="559"/>
      <point x="63" y="318" type="curve" smooth="yes"/>
      <point x="63" y="142"/>
      <point x="172" y="-18"/>
    </contour>
    <contour>
      <point x="352" y="97" type="curve" smooth="yes"/>
      <point x="247" y="97"/>
      <point x="191" y="216"/>
      <point x="191" y="300" type="curve" smooth="yes"/>
      <point x="191" y="435"/>
      <point x="273" y="558"/>
      <point x="412" y="558" type="curve" smooth="yes"/>
      <point x="495" y="558"/>
      <point x="585" y="509"/>
      <point x="618" y="472" type="curve"/>
      <point x="589" y="254"/>
      <point x="497" y="97"/>
    </contour>
  </outline>
</glyph>
<glyph name="infinity" format="2">
  <advance width="900"/>
  <unicode hex="221E"/>
  <outline>
    <contour>
      <point x="228" y="348" type="curve" smooth="yes"/>
      <point x="300" y="348"/>
      <point x="381" y="380"/>
      <point x="450" y="453" type="curve"/>
      <point x="519" y="374"/>
      <point x="600" y="348"/>
      <point x="671" y="348" type="curve" smooth="yes"/>
      <point x="771" y="348"/>
      <point x="870" y="427"/>
      <point x="870" y="547" type="curve" smooth="yes"/>
      <point x="870" y="652"/>
      <point x="783" y="750"/>
      <point x="671" y="750" type="curve" smooth="yes"/>
      <point x="600" y="750"/>
      <point x="519" y="707"/>
      <point x="450" y="633" type="curve"/>
      <point x="381" y="713"/>
      <point x="300" y="750"/>
      <point x="228" y="750" type="curve" smooth="yes"/>
      <point x="129" y="750"/>
      <point x="30" y="667"/>
      <point x="30" y="547" type="curve" smooth="yes"/>
      <point x="30" y="442"/>
      <point x="116" y="348"/>
    </contour>
    <contour>
      <point x="236" y="446" type="curve" smooth="yes"/>
      <point x="180" y="446"/>
      <point x="135" y="495"/>
      <point x="135" y="547" type="curve" smooth="yes"/>
      <point x="135" y="607"/>
      <point x="180" y="652"/>
      <point x="236" y="652" type="curve" smooth="yes"/>
      <point x="281" y="652"/>
      <point x="346" y="621"/>
      <point x="397" y="547" type="curve"/>
      <point x="354" y="486"/>
      <point x="281" y="446"/>
    </contour>
    <contour>
      <point x="663" y="442" type="curve" smooth="yes"/>
      <point x="618" y="442"/>
      <point x="553" y="474"/>
      <point x="502" y="547" type="curve"/>
      <point x="545" y="609"/>
      <point x="618" y="648"/>
      <point x="663" y="648" type="curve" smooth="yes"/>
      <point x="720" y="648"/>
      <point x="765" y="600"/>
      <point x="765" y="547" type="curve" smooth="yes"/>
      <point x="765" y="487"/>
      <point x="720" y="442"/>
    </contour>
  </outline>
</glyph>
<glyph name="greaterequal" format="2">
  <advance width="900"/>
  <unicode hex="2265"/>
  <outline>
    <contour>
      <point x="90" y="183" type="line"/>
      <point x="825" y="483" type="line"/>
      <point x="825" y="611" type="line"/>
      <point x="90" y="911" type="line"/>
      <point x="90" y="776" type="line"/>
      <point x="682" y="547" type="line"/>
      <point x="90" y="318" type="line"/>
    </contour>
    <contour>
      <point x="90" y="0" type="line"/>
      <point x="825" y="0" type="line"/>
      <point x="825" y="112" type="line"/>
      <point x="90" y="112" type="line"/>
    </contour>
  </outline>
</glyph>
<glyph name="reverseSolidusOperator" format="2">
  <advance width="750"/>
  <unicode hex="29F5"/>
  <outline>
    <contour>
      <point x="743" y="-183" type="line"/>
      <point x="120" y="1200" type="line"/>
      <point x="8" y="1200" type="line"/>
      <point x="630" y="-183" type="line"/>
    </contour>
  </outline>
</glyph>
<glyph name="fi" format="2">
  <advance width="911"/>
  <unicode hex="FB01"/>
  <anchor x="705" y="-75" name="L"/>
  <anchor x="911" y="750" name="R"/>
  <anchor x="697" y="1226" name="U"/>
  <outline>
    <contour>
      <point x="630" y="0" type="line"/>
      <point x="783" y="0" type="line"/>
      <point x="774" y="80"/>
      <point x="768" y="259"/>
      <point x="768" y="356" type="curve" smooth="yes"/>
      <point x="768" y="418"/>
      <point x="768" y="746"/>
      <point x="768" y="746" type="curve"/>
      <point x="15" y="746" type="line"/>
      <point x="15" y="637" type="line"/>
      <point x="630" y="637" type="line"/>
    </contour>
    <contour>
      <point x="165" y="0" type="curve"/>
      <point x="326" y="0" type="line"/>
      <point x="309" y="78"/>
      <point x="303" y="225"/>
      <point x="303" y="371" type="curve"/>
      <point x="303" y="907" type="line"/>
      <point x="303" y="1043"/>
      <point x="345" y="1095"/>
      <point x="423" y="1095" type="curve" smooth="yes"/>
      <point x="467" y="1095"/>
      <point x="516" y="1077"/>
      <point x="554" y="1050" type="curve"/>
      <point x="588" y="1162" type="line"/>
      <point x="542" y="1195"/>
      <point x="482" y="1215"/>
      <point x="423" y="1215" type="curve" smooth="yes"/>
      <point x="261" y="1215"/>
      <point x="165" y="1102"/>
      <point x="165" y="877" type="curve" smooth="yes"/>
      <point x="165" y="815"/>
      <point x="165" y="0"/>
    </contour>
    <contour>
      <point x="697" y="907" type="curve" smooth="yes"/>
      <point x="753" y="907"/>
      <point x="795" y="953"/>
      <point x="795" y="1008" type="curve" smooth="yes"/>
      <point x="795" y="1064"/>
      <point x="753" y="1110"/>
      <point x="697" y="1110" type="curve" smooth="yes"/>
      <point x="642" y="1110"/>
      <point x="603" y="1064"/>
      <point x="603" y="1008" type="curve" smooth="yes"/>
      <point x="603" y="953"/>
      <point x="642" y="907"/>
    </contour>
  </outline>
</glyph>
<glyph name="allah-ar" format="2">
  <advance width="1778"/>
  <unicode hex="FDF2"/>
  <anchor x="896" y="1793" name="diaA"/>
  <anchor x="897" y="-100" name="diaB"/>
  <outline>
    <component base="shadda-ar" xOffset="624" yOffset="-488"/>
    <component base="alefabove-ar" xOffset="657" yOffset="544"/>
    <contour>
      <point x="742" y="-17" type="curve" smooth="yes"/>
      <point x="813" y="-17"/>
      <point x="890" y="15"/>
      <point x="938" y="78" type="curve"/>
      <point x="860" y="112" type="line"/>
      <point x="895" y="39"/>
      <point x="966" y="-15"/>
      <point x="1067" y="-15" type="curve" smooth="yes"/>
      <point x="1201" y="-15"/>
      <point x="1300" y="80"/>
      <point x="1315" y="265" type="curve" smooth="yes"/>
      <point x="1326" y="399"/>
      <point x="1331" y="573"/>
      <point x="1331" y="712" type="curve" smooth="yes"/>
      <point x="1331" y="800"/>
      <point x="1329" y="874"/>
      <point x="1324" y="916" type="curve"/>
      <point x="1280" y="909"/>
      <point x="1203" y="879"/>
      <point x="1180" y="832" type="curve"/>
      <point x="1183" y="785"/>
      <point x="1188" y="623"/>
      <point x="1188" y="465" type="curve" smooth="yes"/>
      <point x="1188" y="379"/>
      <point x="1185" y="295"/>
      <point x="1178" y="230" type="curve" smooth="yes"/>
      <point x="1168" y="141"/>
      <point x="1113" y="121"/>
      <point x="1075" y="121" type="curve" smooth="yes"/>
      <point x="1010" y="121"/>
      <point x="978" y="156"/>
      <point x="978" y="208" type="curve" smooth="yes"/>
      <point x="978" y="330"/>
      <point x="979" y="425"/>
      <point x="979" y="514" type="curve" smooth="yes"/>
      <point x="979" y="633"/>
      <point x="978" y="723"/>
      <point x="973" y="831" type="curve"/>
      <point x="929" y="824"/>
      <point x="840" y="794"/>
      <point x="817" y="747" type="curve"/>
      <point x="822" y="710"/>
      <point x="846" y="365"/>
      <point x="846" y="200" type="curve" smooth="yes"/>
      <point x="846" y="180"/>
      <point x="846" y="166"/>
      <point x="845" y="160" type="curve"/>
      <point x="830" y="136"/>
      <point x="802" y="119"/>
      <point x="764" y="119" type="curve" smooth="yes"/>
      <point x="654" y="119"/>
      <point x="635" y="238"/>
      <point x="612" y="754" type="curve"/>
      <point x="565" y="744"/>
      <point x="507" y="714"/>
      <point x="481" y="675" type="curve"/>
      <point x="492" y="469"/>
      <point x="503" y="361"/>
      <point x="523" y="220" type="curve" smooth="yes"/>
      <point x="547" y="52"/>
      <point x="651" y="-17"/>
    </contour>
    <contour>
      <point x="331" y="94" type="curve" smooth="yes"/>
      <point x="423" y="94"/>
      <point x="506" y="125"/>
      <point x="565" y="204" type="curve"/>
      <point x="524" y="347" type="line"/>
      <point x="484" y="257"/>
      <point x="404" y="230"/>
      <point x="331" y="230" type="curve" smooth="yes"/>
      <point x="273" y="230"/>
      <point x="218" y="250"/>
      <point x="218" y="282" type="curve" smooth="yes"/>
      <point x="218" y="313"/>
      <point x="363" y="447"/>
      <point x="544" y="534" type="curve"/>
      <point x="511" y="661" type="line"/>
      <point x="211" y="487"/>
      <point x="86" y="368"/>
      <point x="86" y="266" type="curve" smooth="yes"/>
      <point x="86" y="155"/>
      <point x="210" y="94"/>
    </contour>
    <contour>
      <point x="1532" y="-43" type="curve"/>
      <point x="1581" y="-37"/>
      <point x="1634" y="-17"/>
      <point x="1661" y="18" type="curve"/>
      <point x="1672" y="230"/>
      <point x="1678" y="741"/>
      <point x="1678" y="906" type="curve" smooth="yes"/>
      <point x="1678" y="918"/>
      <point x="1677" y="995"/>
      <point x="1673" y="1019" type="curve"/>
      <point x="1629" y="1012"/>
      <point x="1543" y="982"/>
      <point x="1520" y="935" type="curve"/>
      <point x="1520" y="904"/>
      <point x="1534" y="446"/>
      <point x="1534" y="110" type="curve" smooth="yes"/>
      <point x="1534" y="52"/>
      <point x="1533" y="0"/>
    </contour>
  </outline>
</glyph>
<glyph name="subhaanahuWaTaaalaa-ar" format="2">
  <advance width="2987"/>
  <unicode hex="FDFE"/>
  <outline>
    <component base="_dot1" xScale="0.729" yScale="0.729" xOffset="1824" yOffset="-671"/>
    <component base="_dot2h" xScale="0.9" yScale="0.9" xOffset="1821" yOffset="655"/>
    <component base="alefabove-ar" xScale="0.53144" yScale="0.53144" xOffset="876" yOffset="-1075"/>
    <component base="alefabove-ar" xScale="0.9" yScale="0.9" xOffset="1110" yOffset="715"/>
    <component base="_dot1" xScale="0.729" yScale="0.729" xOffset="1044" yOffset="-23"/>
    <component base="damma-ar" xScale="0.729" yScale="0.729" xOffset="196" yOffset="-739"/>
    <component base="damma-ar" xScale="0.729" yScale="0.729" xOffset="2428" yOffset="-961"/>
    <component base="fatha-ar" xScale="0.729" yScale="0.729" xOffset="1868" yOffset="173"/>
    <component base="fatha-ar" xScale="0.729" yScale="0.729" xOffset="1183" yOffset="-367"/>
    <component base="fatha-ar" xScale="0.729" yScale="0.729" xOffset="2419" yOffset="-107"/>
    <contour>
      <point x="2002" y="-83" type="curve"/>
      <point x="2290" y="-17"/>
      <point x="2461" y="194"/>
      <point x="2461" y="396" type="curve" smooth="yes"/>
      <point x="2461" y="610"/>
      <point x="2368" y="713"/>
      <point x="2234" y="713" type="curve" smooth="yes"/>
      <point x="2092" y="713"/>
      <point x="2011" y="602"/>
      <point x="2011" y="494" type="curve" smooth="yes"/>
      <point x="2011" y="348"/>
      <point x="2117" y="282"/>
      <point x="2244" y="282" type="curve" smooth="yes"/>
      <point x="2325" y="282"/>
      <point x="2414" y="309"/>
      <point x="2490" y="351" type="curve"/>
      <point x="2500" y="375"/>
      <point x="2504" y="399"/>
      <point x="2504" y="421" type="curve" smooth="yes"/>
      <point x="2504" y="442"/>
      <point x="2500" y="462"/>
      <point x="2492" y="479" type="curve"/>
      <point x="2414" y="423"/>
      <point x="2319" y="399"/>
      <point x="2245" y="399" type="curve" smooth="yes"/>
      <point x="2188" y="399"/>
      <point x="2130" y="434"/>
      <point x="2130" y="500" type="curve" smooth="yes"/>
      <point x="2130" y="558"/>
      <point x="2173" y="594"/>
      <point x="2224" y="594" type="curve" smooth="yes"/>
      <point x="2308" y="594"/>
      <point x="2344" y="514"/>
      <point x="2344" y="398" type="curve" smooth="yes"/>
      <point x="2344" y="193"/>
      <point x="2197" y="64"/>
      <point x="1947" y="15" type="curve"/>
      <point x="1954" y="-22"/>
      <point x="1977" y="-64"/>
    </contour>
    <contour>
      <point x="2097" y="-188" type="line"/>
      <point x="2099" y="-198"/>
      <point x="2100" y="-217"/>
      <point x="2100" y="-237" type="curve" smooth="yes"/>
      <point x="2100" y="-315"/>
      <point x="2064" y="-412"/>
      <point x="1976" y="-412" type="curve" smooth="yes"/>
      <point x="1920" y="-412"/>
      <point x="1879" y="-309"/>
      <point x="1852" y="-134" type="curve"/>
      <point x="1814" y="-136"/>
      <point x="1763" y="-144"/>
      <point x="1736" y="-158" type="curve"/>
      <point x="1736" y="-166"/>
      <point x="1776" y="-324"/>
      <point x="1776" y="-335" type="curve" smooth="yes"/>
      <point x="1776" y="-425"/>
      <point x="1446" y="-490"/>
      <point x="1290" y="-490" type="curve"/>
      <point x="1290" y="-609" type="line"/>
      <point x="1489" y="-609"/>
      <point x="1817" y="-527"/>
      <point x="1842" y="-421" type="curve"/>
      <point x="1807" y="-417" type="line"/>
      <point x="1839" y="-492"/>
      <point x="1905" y="-529"/>
      <point x="1973" y="-529" type="curve" smooth="yes"/>
      <point x="2067" y="-529"/>
      <point x="2162" y="-454"/>
      <point x="2193" y="-313" type="curve"/>
      <point x="2140" y="-313" type="line"/>
      <point x="2163" y="-409"/>
      <point x="2244" y="-459"/>
      <point x="2325" y="-459" type="curve" smooth="yes"/>
      <point x="2389" y="-459"/>
      <point x="2454" y="-428"/>
      <point x="2492" y="-367" type="curve"/>
      <point x="2532" y="-429"/>
      <point x="2586" y="-453"/>
      <point x="2645" y="-453" type="curve" smooth="yes"/>
      <point x="2756" y="-453"/>
      <point x="2837" y="-364"/>
      <point x="2837" y="-220" type="curve" smooth="yes"/>
      <point x="2837" y="-166"/>
      <point x="2825" y="-104"/>
      <point x="2804" y="-40" type="curve"/>
      <point x="2767" y="-43"/>
      <point x="2711" y="-54"/>
      <point x="2685" y="-69" type="curve"/>
      <point x="2697" y="-100"/>
      <point x="2720" y="-169"/>
      <point x="2720" y="-231" type="curve" smooth="yes"/>
      <point x="2720" y="-286"/>
      <point x="2699" y="-334"/>
      <point x="2647" y="-334" type="curve" smooth="yes"/>
      <point x="2598" y="-334"/>
      <point x="2568" y="-269"/>
      <point x="2533" y="-93" type="curve"/>
      <point x="2502" y="-96"/>
      <point x="2436" y="-106"/>
      <point x="2413" y="-119" type="curve"/>
      <point x="2415" y="-128"/>
      <point x="2419" y="-144"/>
      <point x="2423" y="-175" type="curve"/>
      <point x="2423" y="-181"/>
      <point x="2424" y="-188"/>
      <point x="2424" y="-195" type="curve" smooth="yes"/>
      <point x="2424" y="-268"/>
      <point x="2415" y="-342"/>
      <point x="2331" y="-342" type="curve" smooth="yes"/>
      <point x="2252" y="-342"/>
      <point x="2226" y="-232"/>
      <point x="2207" y="-117" type="curve"/>
      <point x="2164" y="-120"/>
      <point x="2117" y="-127"/>
      <point x="2087" y="-141" type="curve"/>
    </contour>
    <contour>
      <point x="997" y="201" type="curve" smooth="yes"/>
      <point x="723" y="201"/>
      <point x="712" y="244"/>
      <point x="712" y="335" type="curve" smooth="yes"/>
      <point x="712" y="471"/>
      <point x="718" y="681"/>
      <point x="718" y="802" type="curve" smooth="yes"/>
      <point x="718" y="821"/>
      <point x="717" y="866"/>
      <point x="714" y="884" type="curve"/>
      <point x="682" y="879"/>
      <point x="591" y="857"/>
      <point x="574" y="822" type="curve"/>
      <point x="578" y="769"/>
      <point x="582" y="405"/>
      <point x="592" y="269" type="curve" smooth="yes"/>
      <point x="599" y="175"/>
      <point x="660" y="83"/>
      <point x="997" y="83" type="curve" smooth="yes"/>
      <point x="1341" y="83"/>
      <point x="1451" y="153"/>
      <point x="1606" y="427" type="curve"/>
      <point x="1595" y="471"/>
      <point x="1578" y="495"/>
      <point x="1561" y="511" type="curve"/>
      <point x="1503" y="532"/>
      <point x="1430" y="543"/>
      <point x="1352" y="543" type="curve" smooth="yes"/>
      <point x="1301" y="543"/>
      <point x="1248" y="538"/>
      <point x="1196" y="526" type="curve"/>
      <point x="1172" y="496"/>
      <point x="1154" y="455"/>
      <point x="1145" y="400" type="curve"/>
      <point x="1218" y="194"/>
      <point x="1405" y="83"/>
      <point x="1679" y="83" type="curve" smooth="yes"/>
      <point x="1842" y="83"/>
      <point x="1929" y="185"/>
      <point x="1929" y="313" type="curve" smooth="yes"/>
      <point x="1929" y="360"/>
      <point x="1919" y="416"/>
      <point x="1898" y="476" type="curve"/>
      <point x="1869" y="474"/>
      <point x="1803" y="459"/>
      <point x="1783" y="449" type="curve"/>
      <point x="1793" y="397"/>
      <point x="1803" y="353"/>
      <point x="1803" y="316" type="curve" smooth="yes"/>
      <point x="1803" y="249"/>
      <point x="1772" y="201"/>
      <point x="1679" y="201" type="curve" smooth="yes"/>
      <point x="1432" y="201"/>
      <point x="1280" y="282"/>
      <point x="1230" y="483" type="curve"/>
      <point x="1229" y="410" type="line"/>
      <point x="1229" y="423"/>
      <point x="1294" y="431"/>
      <point x="1352" y="431" type="curve" smooth="yes"/>
      <point x="1423" y="431"/>
      <point x="1481" y="419"/>
      <point x="1521" y="402" type="curve"/>
      <point x="1513" y="470" type="line"/>
      <point x="1399" y="285"/>
      <point x="1349" y="201"/>
    </contour>
    <contour>
      <point x="344" y="-288" type="curve" smooth="yes"/>
      <point x="411" y="-288"/>
      <point x="472" y="-266"/>
      <point x="515" y="-208" type="curve"/>
      <point x="485" y="-88" type="line"/>
      <point x="455" y="-153"/>
      <point x="398" y="-173"/>
      <point x="344" y="-173" type="curve" smooth="yes"/>
      <point x="301" y="-173"/>
      <point x="262" y="-158"/>
      <point x="262" y="-135" type="curve" smooth="yes"/>
      <point x="262" y="-112"/>
      <point x="367" y="-30"/>
      <point x="499" y="34" type="curve"/>
      <point x="455" y="141" type="line"/>
      <point x="236" y="15"/>
      <point x="150" y="-72"/>
      <point x="150" y="-147" type="curve" smooth="yes"/>
      <point x="150" y="-243"/>
      <point x="256" y="-288"/>
    </contour>
    <contour>
      <point x="855" y="-417" type="curve" smooth="yes"/>
      <point x="1288" y="-417"/>
      <point x="1381" y="-342"/>
      <point x="1381" y="-167" type="curve" smooth="yes"/>
      <point x="1381" y="-119"/>
      <point x="1371" y="-64"/>
      <point x="1349" y="-4" type="curve"/>
      <point x="1321" y="-5"/>
      <point x="1255" y="-20"/>
      <point x="1234" y="-31" type="curve"/>
      <point x="1245" y="-83"/>
      <point x="1255" y="-126"/>
      <point x="1255" y="-164" type="curve" smooth="yes"/>
      <point x="1255" y="-248"/>
      <point x="1224" y="-299"/>
      <point x="851" y="-299" type="curve" smooth="yes"/>
      <point x="600" y="-299"/>
      <point x="590" y="-240"/>
      <point x="569" y="209" type="curve"/>
      <point x="535" y="202"/>
      <point x="472" y="180"/>
      <point x="454" y="152" type="curve"/>
      <point x="462" y="2"/>
      <point x="474" y="-98"/>
      <point x="489" y="-200" type="curve" smooth="yes"/>
      <point x="506" y="-323"/>
      <point x="618" y="-417"/>
    </contour>
    <contour>
      <point x="1051" y="-948" type="curve"/>
      <point x="1247" y="-943"/>
      <point x="1398" y="-849"/>
      <point x="1555" y="-849" type="curve" smooth="yes"/>
      <point x="1627" y="-849"/>
      <point x="1655" y="-854"/>
      <point x="1689" y="-878" type="curve"/>
      <point x="1718" y="-864"/>
      <point x="1739" y="-839"/>
      <point x="1752" y="-808" type="curve"/>
      <point x="1592" y="-652"/>
      <point x="1428" y="-490"/>
      <point x="1290" y="-490" type="curve" smooth="yes"/>
      <point x="1218" y="-490"/>
      <point x="1155" y="-528"/>
      <point x="1079" y="-622" type="curve"/>
      <point x="1085" y="-646"/>
      <point x="1098" y="-666"/>
      <point x="1116" y="-673" type="curve"/>
      <point x="1167" y="-637"/>
      <point x="1217" y="-619"/>
      <point x="1266" y="-619" type="curve" smooth="yes"/>
      <point x="1365" y="-619"/>
      <point x="1467" y="-689"/>
      <point x="1604" y="-797" type="curve"/>
      <point x="1612" y="-738" type="line"/>
      <point x="1368" y="-719"/>
      <point x="1296" y="-832"/>
      <point x="1052" y="-830" type="curve" smooth="yes"/>
      <point x="945" y="-829"/>
      <point x="934" y="-786"/>
      <point x="934" y="-695" type="curve" smooth="yes"/>
      <point x="934" y="-559"/>
      <point x="921" y="-403"/>
      <point x="921" y="536" type="curve" smooth="yes"/>
      <point x="921" y="555"/>
      <point x="920" y="601"/>
      <point x="917" y="619" type="curve"/>
      <point x="885" y="614"/>
      <point x="795" y="592"/>
      <point x="778" y="558" type="curve"/>
      <point x="781" y="505"/>
      <point x="804" y="-625"/>
      <point x="814" y="-762" type="curve" smooth="yes"/>
      <point x="820" y="-855"/>
      <point x="871" y="-948"/>
    </contour>
    <contour>
      <point x="1646" y="1223" type="curve" smooth="yes"/>
      <point x="1790" y="1223"/>
      <point x="1863" y="1318"/>
      <point x="1863" y="1426" type="curve" smooth="yes"/>
      <point x="1863" y="1603"/>
      <point x="1860" y="1735"/>
      <point x="1860" y="1857" type="curve" smooth="yes"/>
      <point x="1860" y="1916"/>
      <point x="1860" y="2007"/>
      <point x="1856" y="2024" type="curve"/>
      <point x="1824" y="2019"/>
      <point x="1733" y="1997"/>
      <point x="1716" y="1963" type="curve"/>
      <point x="1720" y="1910"/>
      <point x="1739" y="1513"/>
      <point x="1739" y="1417" type="curve" smooth="yes"/>
      <point x="1739" y="1364"/>
      <point x="1714" y="1321"/>
      <point x="1616" y="1321" type="curve" smooth="yes"/>
      <point x="1504" y="1321"/>
      <point x="1444" y="1268"/>
      <point x="1444" y="1201" type="curve" smooth="yes"/>
      <point x="1444" y="1036"/>
      <point x="1728" y="1113"/>
      <point x="1728" y="1029" type="curve" smooth="yes"/>
      <point x="1728" y="1005"/>
      <point x="1629" y="913"/>
      <point x="1412" y="913" type="curve" smooth="yes"/>
      <point x="1180" y="913"/>
      <point x="1092" y="1006"/>
      <point x="1092" y="1106" type="curve" smooth="yes"/>
      <point x="1092" y="1173"/>
      <point x="1135" y="1242"/>
      <point x="1220" y="1321" type="curve"/>
      <point x="1208" y="1341"/>
      <point x="1175" y="1372"/>
      <point x="1155" y="1374" type="curve"/>
      <point x="1026" y="1282"/>
      <point x="972" y="1170"/>
      <point x="972" y="1081" type="curve" smooth="yes"/>
      <point x="972" y="935"/>
      <point x="1112" y="796"/>
      <point x="1395" y="796" type="curve" smooth="yes"/>
      <point x="1673" y="796"/>
      <point x="1848" y="925"/>
      <point x="1848" y="1042" type="curve" smooth="yes"/>
      <point x="1848" y="1187"/>
      <point x="1573" y="1147"/>
      <point x="1573" y="1196" type="curve" smooth="yes"/>
      <point x="1573" y="1213"/>
      <point x="1589" y="1223"/>
    </contour>
    <contour>
      <point x="789" y="1285" type="curve"/>
      <point x="715" y="1218"/>
      <point x="672" y="1146"/>
      <point x="672" y="1066" type="curve" smooth="yes"/>
      <point x="672" y="994"/>
      <point x="719" y="952"/>
      <point x="776" y="952" type="curve" smooth="yes"/>
      <point x="837" y="952"/>
      <point x="883" y="997"/>
      <point x="902" y="1071" type="curve"/>
      <point x="902" y="1076"/>
      <point x="882" y="1098"/>
      <point x="873" y="1101" type="curve"/>
      <point x="858" y="1062"/>
      <point x="835" y="1020"/>
      <point x="788" y="1020" type="curve" smooth="yes"/>
      <point x="753" y="1020"/>
      <point x="737" y="1047"/>
      <point x="737" y="1080" type="curve" smooth="yes"/>
      <point x="737" y="1131"/>
      <point x="761" y="1187"/>
      <point x="811" y="1257" type="curve"/>
      <point x="807" y="1272"/>
      <point x="793" y="1282"/>
    </contour>
    <contour>
      <point x="1081" y="839" type="curve"/>
      <point x="1007" y="773"/>
      <point x="964" y="701"/>
      <point x="964" y="620" type="curve" smooth="yes"/>
      <point x="964" y="548"/>
      <point x="1011" y="506"/>
      <point x="1069" y="506" type="curve" smooth="yes"/>
      <point x="1130" y="506"/>
      <point x="1176" y="551"/>
      <point x="1195" y="626" type="curve"/>
      <point x="1195" y="630"/>
      <point x="1175" y="653"/>
      <point x="1166" y="656" type="curve"/>
      <point x="1151" y="617"/>
      <point x="1127" y="575"/>
      <point x="1080" y="575" type="curve" smooth="yes"/>
      <point x="1045" y="575"/>
      <point x="1030" y="602"/>
      <point x="1030" y="635" type="curve" smooth="yes"/>
      <point x="1030" y="685"/>
      <point x="1053" y="741"/>
      <point x="1104" y="811" type="curve"/>
      <point x="1099" y="827"/>
      <point x="1086" y="836"/>
    </contour>
    <contour>
      <point x="631" y="-435" type="curve"/>
      <point x="557" y="-502"/>
      <point x="514" y="-574"/>
      <point x="514" y="-654" type="curve" smooth="yes"/>
      <point x="514" y="-726"/>
      <point x="561" y="-768"/>
      <point x="618" y="-768" type="curve" smooth="yes"/>
      <point x="680" y="-768"/>
      <point x="726" y="-723"/>
      <point x="744" y="-648" type="curve"/>
      <point x="744" y="-644"/>
      <point x="725" y="-621"/>
      <point x="716" y="-619" type="curve"/>
      <point x="700" y="-657"/>
      <point x="677" y="-700"/>
      <point x="630" y="-700" type="curve" smooth="yes"/>
      <point x="595" y="-700"/>
      <point x="580" y="-673"/>
      <point x="580" y="-639" type="curve" smooth="yes"/>
      <point x="580" y="-589"/>
      <point x="603" y="-533"/>
      <point x="654" y="-463" type="curve"/>
      <point x="649" y="-448"/>
      <point x="636" y="-438"/>
    </contour>
    <contour>
      <point x="2190" y="-551" type="curve"/>
      <point x="2116" y="-617"/>
      <point x="2073" y="-689"/>
      <point x="2073" y="-770" type="curve" smooth="yes"/>
      <point x="2073" y="-842"/>
      <point x="2120" y="-884"/>
      <point x="2178" y="-884" type="curve" smooth="yes"/>
      <point x="2239" y="-884"/>
      <point x="2285" y="-839"/>
      <point x="2304" y="-764" type="curve"/>
      <point x="2304" y="-760"/>
      <point x="2284" y="-737"/>
      <point x="2275" y="-734" type="curve"/>
      <point x="2260" y="-773"/>
      <point x="2236" y="-815"/>
      <point x="2189" y="-815" type="curve" smooth="yes"/>
      <point x="2154" y="-815"/>
      <point x="2139" y="-788"/>
      <point x="2139" y="-755" type="curve" smooth="yes"/>
      <point x="2139" y="-705"/>
      <point x="2162" y="-649"/>
      <point x="2213" y="-579" type="curve"/>
      <point x="2208" y="-563"/>
      <point x="2195" y="-554"/>
    </contour>
    <contour>
      <point x="2240" y="1135" type="curve"/>
      <point x="2166" y="1069"/>
      <point x="2123" y="997"/>
      <point x="2123" y="917" type="curve" smooth="yes"/>
      <point x="2123" y="845"/>
      <point x="2170" y="802"/>
      <point x="2227" y="802" type="curve" smooth="yes"/>
      <point x="2289" y="802"/>
      <point x="2334" y="847"/>
      <point x="2353" y="922" type="curve"/>
      <point x="2353" y="926"/>
      <point x="2334" y="949"/>
      <point x="2325" y="952" type="curve"/>
      <point x="2309" y="913"/>
      <point x="2286" y="871"/>
      <point x="2239" y="871" type="curve" smooth="yes"/>
      <point x="2204" y="871"/>
      <point x="2189" y="898"/>
      <point x="2189" y="931" type="curve" smooth="yes"/>
      <point x="2189" y="981"/>
      <point x="2212" y="1037"/>
      <point x="2262" y="1107" type="curve"/>
      <point x="2258" y="1123"/>
      <point x="2244" y="1133"/>
    </contour>
    <contour>
      <point x="2667" y="832" type="curve"/>
      <point x="2593" y="766"/>
      <point x="2550" y="694"/>
      <point x="2550" y="614" type="curve" smooth="yes"/>
      <point x="2550" y="542"/>
      <point x="2597" y="499"/>
      <point x="2654" y="499" type="curve" smooth="yes"/>
      <point x="2716" y="499"/>
      <point x="2761" y="544"/>
      <point x="2780" y="619" type="curve"/>
      <point x="2780" y="624"/>
      <point x="2761" y="646"/>
      <point x="2752" y="649" type="curve"/>
      <point x="2736" y="610"/>
      <point x="2713" y="568"/>
      <point x="2666" y="568" type="curve" smooth="yes"/>
      <point x="2631" y="568"/>
      <point x="2616" y="595"/>
      <point x="2616" y="628" type="curve" smooth="yes"/>
      <point x="2616" y="678"/>
      <point x="2639" y="734"/>
      <point x="2689" y="804" type="curve"/>
      <point x="2685" y="820"/>
      <point x="2671" y="830"/>
    </contour>
    <contour>
      <point x="2111" y="1634" type="curve"/>
      <point x="2037" y="1567"/>
      <point x="1994" y="1495"/>
      <point x="1994" y="1415" type="curve" smooth="yes"/>
      <point x="1994" y="1343"/>
      <point x="2041" y="1301"/>
      <point x="2098" y="1301" type="curve" smooth="yes"/>
      <point x="2160" y="1301"/>
      <point x="2205" y="1346"/>
      <point x="2224" y="1421" type="curve"/>
      <point x="2224" y="1425"/>
      <point x="2205" y="1448"/>
      <point x="2196" y="1450" type="curve"/>
      <point x="2180" y="1412"/>
      <point x="2157" y="1369"/>
      <point x="2110" y="1369" type="curve" smooth="yes"/>
      <point x="2075" y="1369"/>
      <point x="2060" y="1396"/>
      <point x="2060" y="1430" type="curve" smooth="yes"/>
      <point x="2060" y="1480"/>
      <point x="2083" y="1536"/>
      <point x="2133" y="1606" type="curve"/>
      <point x="2129" y="1621"/>
      <point x="2115" y="1631"/>
    </contour>
  </outline>
</glyph>
<glyph name="azzaWaJall-ar" format="2">
  <advance width="2352"/>
  <unicode hex="FDFF"/>
  <outline>
    <component base="_dot1" xScale="0.81" yScale="0.81" xOffset="1218" yOffset="-210"/>
    <component base="_dot1" xScale="0.81" yScale="0.81" xOffset="434" yOffset="1084"/>
    <component base="shadda-ar" xScale="0.81" yScale="0.81" xOffset="573" yOffset="17"/>
    <component base="fatha-ar" xScale="0.81" yScale="0.81" xOffset="1668" yOffset="-492"/>
    <component base="shadda-ar" xScale="0.81" yScale="0.81" xOffset="144" yOffset="127"/>
    <component base="fatha-ar" xScale="0.81" yScale="0.81" xOffset="111" yOffset="441"/>
    <component base="fatha-ar" xScale="0.81" yScale="0.81" xOffset="541" yOffset="330"/>
    <component base="fatha-ar" xScale="0.81" yScale="0.81" xOffset="1003" yOffset="279"/>
    <contour>
      <point x="1560" y="-456" type="curve"/>
      <point x="2010" y="-343"/>
      <point x="2212" y="-87"/>
      <point x="2212" y="182" type="curve" smooth="yes"/>
      <point x="2212" y="420"/>
      <point x="2108" y="535"/>
      <point x="1959" y="535" type="curve" smooth="yes"/>
      <point x="1801" y="535"/>
      <point x="1711" y="411"/>
      <point x="1711" y="291" type="curve" smooth="yes"/>
      <point x="1711" y="140"/>
      <point x="1829" y="67"/>
      <point x="1970" y="67" type="curve" smooth="yes"/>
      <point x="2060" y="67"/>
      <point x="2159" y="97"/>
      <point x="2244" y="155" type="curve"/>
      <point x="2249" y="177"/>
      <point x="2252" y="196"/>
      <point x="2252" y="217" type="curve" smooth="yes"/>
      <point x="2252" y="235"/>
      <point x="2249" y="255"/>
      <point x="2246" y="275" type="curve"/>
      <point x="2159" y="212"/>
      <point x="2054" y="175"/>
      <point x="1971" y="175" type="curve" smooth="yes"/>
      <point x="1886" y="175"/>
      <point x="1822" y="213"/>
      <point x="1822" y="298" type="curve" smooth="yes"/>
      <point x="1822" y="362"/>
      <point x="1869" y="425"/>
      <point x="1948" y="425" type="curve" smooth="yes"/>
      <point x="2064" y="425"/>
      <point x="2102" y="314"/>
      <point x="2102" y="185" type="curve" smooth="yes"/>
      <point x="2102" y="-88"/>
      <point x="1907" y="-253"/>
      <point x="1499" y="-348" type="curve"/>
      <point x="1507" y="-389"/>
      <point x="1533" y="-435"/>
    </contour>
    <contour>
      <point x="989" y="-79" type="curve" smooth="yes"/>
      <point x="1156" y="-73"/>
      <point x="1323" y="31"/>
      <point x="1498" y="31" type="curve" smooth="yes"/>
      <point x="1578" y="31"/>
      <point x="1609" y="25"/>
      <point x="1647" y="-1" type="curve"/>
      <point x="1679" y="14"/>
      <point x="1702" y="42"/>
      <point x="1716" y="77" type="curve"/>
      <point x="1539" y="250"/>
      <point x="1357" y="430"/>
      <point x="1203" y="430" type="curve" smooth="yes"/>
      <point x="1123" y="430"/>
      <point x="1053" y="388"/>
      <point x="969" y="283" type="curve"/>
      <point x="980" y="267"/>
      <point x="990" y="257"/>
      <point x="1010" y="249" type="curve"/>
      <point x="1067" y="289"/>
      <point x="1122" y="309"/>
      <point x="1177" y="309" type="curve" smooth="yes"/>
      <point x="1274" y="309"/>
      <point x="1374" y="248"/>
      <point x="1502" y="134" type="curve"/>
      <point x="1277" y="134"/>
      <point x="1189" y="30"/>
      <point x="989" y="30" type="curve" smooth="yes"/>
      <point x="918" y="30"/>
      <point x="884" y="45"/>
      <point x="856" y="88" type="curve"/>
      <point x="785" y="1" type="line"/>
      <point x="831" y="-47"/>
      <point x="873" y="-79"/>
    </contour>
    <contour>
      <point x="492" y="-529" type="curve" smooth="yes"/>
      <point x="690" y="-529"/>
      <point x="834" y="-397"/>
      <point x="853" y="-81" type="curve" smooth="yes"/>
      <point x="858" y="25"/>
      <point x="863" y="622"/>
      <point x="863" y="835" type="curve" smooth="yes"/>
      <point x="863" y="929"/>
      <point x="863" y="1001"/>
      <point x="859" y="1021" type="curve"/>
      <point x="824" y="1015"/>
      <point x="745" y="991"/>
      <point x="726" y="953" type="curve"/>
      <point x="731" y="744"/>
      <point x="742" y="238"/>
      <point x="742" y="31" type="curve" smooth="yes"/>
      <point x="742" y="-134"/>
      <point x="742" y="-421"/>
      <point x="504" y="-421" type="curve" smooth="yes"/>
      <point x="385" y="-421"/>
      <point x="298" y="-363"/>
      <point x="298" y="-223" type="curve" smooth="yes"/>
      <point x="298" y="-141"/>
      <point x="333" y="-55"/>
      <point x="402" y="16" type="curve"/>
      <point x="391" y="38"/>
      <point x="372" y="54"/>
      <point x="349" y="62" type="curve"/>
      <point x="234" y="-22"/>
      <point x="181" y="-140"/>
      <point x="181" y="-250" type="curve" smooth="yes"/>
      <point x="181" y="-425"/>
      <point x="309" y="-529"/>
    </contour>
    <contour>
      <point x="812" y="556" type="curve" smooth="yes"/>
      <point x="1091" y="556"/>
      <point x="1511" y="708"/>
      <point x="1793" y="773" type="curve"/>
      <point x="1817" y="805"/>
      <point x="1835" y="848"/>
      <point x="1841" y="903" type="curve"/>
      <point x="1753" y="887"/>
      <point x="1674" y="880"/>
      <point x="1606" y="880" type="curve" smooth="yes"/>
      <point x="1350" y="880"/>
      <point x="1235" y="976"/>
      <point x="1235" y="1071" type="curve" smooth="yes"/>
      <point x="1235" y="1184"/>
      <point x="1366" y="1246"/>
      <point x="1498" y="1246" type="curve" smooth="yes"/>
      <point x="1569" y="1246"/>
      <point x="1640" y="1228"/>
      <point x="1693" y="1191" type="curve"/>
      <point x="1711" y="1217"/>
      <point x="1739" y="1240"/>
      <point x="1752" y="1293" type="curve"/>
      <point x="1686" y="1347"/>
      <point x="1586" y="1362"/>
      <point x="1501" y="1362" type="curve" smooth="yes"/>
      <point x="1302" y="1362"/>
      <point x="1112" y="1240"/>
      <point x="1112" y="1048" type="curve" smooth="yes"/>
      <point x="1112" y="924"/>
      <point x="1217" y="806"/>
      <point x="1472" y="780" type="curve"/>
      <point x="1447" y="792" type="line"/>
      <point x="1270" y="762"/>
      <point x="1048" y="665"/>
      <point x="823" y="665" type="curve" smooth="yes"/>
      <point x="633" y="665"/>
      <point x="573" y="774"/>
      <point x="537" y="921" type="curve"/>
      <point x="493" y="919"/>
      <point x="456" y="908"/>
      <point x="424" y="891" type="curve"/>
      <point x="434" y="807"/>
      <point x="441" y="730"/>
      <point x="441" y="660" type="curve" smooth="yes"/>
      <point x="441" y="421"/>
      <point x="364" y="263"/>
      <point x="100" y="167" type="curve"/>
      <point x="104" y="132"/>
      <point x="124" y="93"/>
      <point x="162" y="65" type="curve"/>
      <point x="432" y="169"/>
      <point x="543" y="353"/>
      <point x="543" y="629" type="curve" smooth="yes"/>
      <point x="543" y="656"/>
      <point x="543" y="684"/>
      <point x="539" y="716" type="curve"/>
      <point x="526" y="710" type="line"/>
      <point x="553" y="639"/>
      <point x="639" y="556"/>
    </contour>
    <contour>
      <point x="1056" y="-303" type="curve"/>
      <point x="974" y="-377"/>
      <point x="926" y="-457"/>
      <point x="926" y="-546" type="curve" smooth="yes"/>
      <point x="926" y="-626"/>
      <point x="978" y="-673"/>
      <point x="1042" y="-673" type="curve" smooth="yes"/>
      <point x="1110" y="-673"/>
      <point x="1161" y="-623"/>
      <point x="1182" y="-540" type="curve"/>
      <point x="1182" y="-535"/>
      <point x="1160" y="-510"/>
      <point x="1150" y="-507" type="curve"/>
      <point x="1133" y="-550"/>
      <point x="1107" y="-597"/>
      <point x="1055" y="-597" type="curve" smooth="yes"/>
      <point x="1016" y="-597"/>
      <point x="999" y="-567"/>
      <point x="999" y="-530" type="curve" smooth="yes"/>
      <point x="999" y="-474"/>
      <point x="1025" y="-412"/>
      <point x="1081" y="-334" type="curve"/>
      <point x="1076" y="-317"/>
      <point x="1061" y="-306"/>
    </contour>
    <contour>
      <point x="1216" y="1887" type="curve"/>
      <point x="1134" y="1813"/>
      <point x="1085" y="1733"/>
      <point x="1085" y="1645" type="curve" smooth="yes"/>
      <point x="1085" y="1564"/>
      <point x="1138" y="1517"/>
      <point x="1201" y="1517" type="curve" smooth="yes"/>
      <point x="1270" y="1517"/>
      <point x="1321" y="1568"/>
      <point x="1342" y="1650" type="curve"/>
      <point x="1342" y="1655"/>
      <point x="1319" y="1680"/>
      <point x="1310" y="1683" type="curve"/>
      <point x="1293" y="1640"/>
      <point x="1267" y="1594"/>
      <point x="1215" y="1594" type="curve" smooth="yes"/>
      <point x="1175" y="1594"/>
      <point x="1158" y="1623"/>
      <point x="1158" y="1660" type="curve" smooth="yes"/>
      <point x="1158" y="1717"/>
      <point x="1184" y="1778"/>
      <point x="1241" y="1856" type="curve"/>
      <point x="1236" y="1873"/>
      <point x="1221" y="1884"/>
    </contour>
    <contour>
      <point x="1796" y="1791" type="curve"/>
      <point x="1715" y="1718"/>
      <point x="1666" y="1637"/>
      <point x="1666" y="1549" type="curve" smooth="yes"/>
      <point x="1666" y="1469"/>
      <point x="1719" y="1422"/>
      <point x="1782" y="1422" type="curve" smooth="yes"/>
      <point x="1851" y="1422"/>
      <point x="1902" y="1472"/>
      <point x="1923" y="1555" type="curve"/>
      <point x="1923" y="1560"/>
      <point x="1900" y="1585"/>
      <point x="1890" y="1588" type="curve"/>
      <point x="1873" y="1544"/>
      <point x="1847" y="1498"/>
      <point x="1796" y="1498" type="curve" smooth="yes"/>
      <point x="1756" y="1498"/>
      <point x="1739" y="1527"/>
      <point x="1739" y="1564" type="curve" smooth="yes"/>
      <point x="1739" y="1621"/>
      <point x="1765" y="1683"/>
      <point x="1822" y="1760" type="curve"/>
      <point x="1817" y="1777"/>
      <point x="1801" y="1789"/>
    </contour>
  </outline>
</glyph>
<glyph name="biblicalendofverse-ar" format="2">
  <advance width="978"/>
  <unicode hex="10ED0"/>
  <outline>
    <contour>
      <point x="489" y="321" type="curve" smooth="yes"/>
      <point x="706" y="321"/>
      <point x="882" y="497"/>
      <point x="882" y="714" type="curve" smooth="yes"/>
      <point x="882" y="931"/>
      <point x="706" y="1107"/>
      <point x="489" y="1107" type="curve" smooth="yes"/>
      <point x="272" y="1107"/>
      <point x="96" y="931"/>
      <point x="96" y="714" type="curve" smooth="yes"/>
      <point x="96" y="497"/>
      <point x="272" y="321"/>
    </contour>
    <contour>
      <point x="489" y="453" type="curve" smooth="yes"/>
      <point x="345" y="453"/>
      <point x="228" y="570"/>
      <point x="228" y="714" type="curve" smooth="yes"/>
      <point x="228" y="858"/>
      <point x="345" y="975"/>
      <point x="489" y="975" type="curve" smooth="yes"/>
      <point x="633" y="975"/>
      <point x="750" y="858"/>
      <point x="750" y="714" type="curve" smooth="yes"/>
      <point x="750" y="570"/>
      <point x="633" y="453"/>
    </contour>
    <contour>
      <point x="70" y="135" type="line"/>
      <point x="70" y="0" type="line"/>
      <point x="908" y="0" type="line"/>
      <point x="908" y="135" type="line"/>
    </contour>
  </outline>
</glyph>
<glyph name="noonbelow-ar" format="2">
  <unicode hex="10EFB"/>
  <anchor x="-7" y="-227" name="_diaB"/>
  <anchor x="-5" y="-1069" name="diaB"/>
  <outline>
    <contour>
      <point x="-3" y="-884" type="curve" smooth="yes"/>
      <point x="181" y="-884"/>
      <point x="273" y="-754"/>
      <point x="273" y="-589" type="curve" smooth="yes"/>
      <point x="273" y="-517"/>
      <point x="251" y="-439"/>
      <point x="207" y="-369" type="curve"/>
      <point x="190" y="-370"/>
      <point x="164" y="-377"/>
      <point x="150" y="-388" type="curve"/>
      <point x="178" y="-456"/>
      <point x="191" y="-525"/>
      <point x="191" y="-586" type="curve" smooth="yes"/>
      <point x="191" y="-708"/>
      <point x="134" y="-801"/>
      <point x="2" y="-801" type="curve" smooth="yes"/>
      <point x="-109" y="-801"/>
      <point x="-174" y="-718"/>
      <point x="-174" y="-623" type="curve" smooth="yes"/>
      <point x="-174" y="-562"/>
      <point x="-150" y="-496"/>
      <point x="-99" y="-442" type="curve"/>
      <point x="-109" y="-426"/>
      <point x="-131" y="-416"/>
      <point x="-145" y="-411" type="curve"/>
      <point x="-222" y="-475"/>
      <point x="-257" y="-562"/>
      <point x="-257" y="-642" type="curve" smooth="yes"/>
      <point x="-257" y="-805"/>
      <point x="-134" y="-884"/>
    </contour>
    <contour>
      <point x="16" y="-380" type="curve"/>
      <point x="25" y="-377"/>
      <point x="50" y="-352"/>
      <point x="83" y="-307" type="curve"/>
      <point x="-3" y="-239" type="line"/>
      <point x="-61" y="-311" type="line"/>
      <point x="-56" y="-323"/>
      <point x="-26" y="-350"/>
    </contour>
  </outline>
</glyph>
<glyph name="_bar" format="2">
  <anchor x="20" y="-10" name="_through"/>
  <outline>
    <contour>
      <point x="-275" y="-124" type="curve"/>
      <point x="-86" y="-97"/>
      <point x="186" y="-23"/>
      <point x="260" y="18" type="curve"/>
      <point x="271" y="57"/>
      <point x="274" y="119"/>
      <point x="274" y="142" type="curve"/>
      <point x="115" y="71"/>
      <point x="-83" y="5"/>
      <point x="-267" y="-39" type="curve"/>
      <point x="-272" y="-51"/>
      <point x="-275" y="-105"/>
    </contour>
  </outline>
</glyph>
<glyph name="_breve" format="2">
  <anchor x="-427" y="1226" name="U"/>
  <anchor x="-427" y="825" name="_U"/>
  <outline>
    <contour>
      <point x="-427" y="862" type="curve" smooth="yes"/>
      <point x="-252" y="862"/>
      <point x="-146" y="1017"/>
      <point x="-146" y="1162" type="curve"/>
      <point x="-237" y="1162" type="line"/>
      <point x="-252" y="1061"/>
      <point x="-329" y="975"/>
      <point x="-427" y="975" type="curve" smooth="yes"/>
      <point x="-525" y="975"/>
      <point x="-606" y="1061"/>
      <point x="-618" y="1162" type="curve"/>
      <point x="-708" y="1162" type="line"/>
      <point x="-708" y="1017"/>
      <point x="-603" y="862"/>
    </contour>
  </outline>
</glyph>
<glyph name="_caron" format="2">
  <anchor x="-427" y="1226" name="U"/>
  <anchor x="-427" y="825" name="_U"/>
  <outline>
    <contour>
      <point x="-491" y="877" type="line"/>
      <point x="-363" y="877" type="line"/>
      <point x="-108" y="1200" type="line"/>
      <point x="-221" y="1200" type="line"/>
      <point x="-427" y="990" type="line"/>
      <point x="-633" y="1200" type="line"/>
      <point x="-746" y="1200" type="line"/>
    </contour>
  </outline>
</glyph>
<glyph name="_circumflex" format="2">
  <anchor x="-427" y="1226" name="U"/>
  <anchor x="-427" y="825" name="_U"/>
  <outline>
    <contour>
      <point x="-746" y="877" type="line"/>
      <point x="-633" y="877" type="line"/>
      <point x="-427" y="1087" type="line"/>
      <point x="-221" y="877" type="line"/>
      <point x="-108" y="877" type="line"/>
      <point x="-363" y="1200" type="line"/>
      <point x="-491" y="1200" type="line"/>
    </contour>
  </outline>
</glyph>
<glyph name="_dot2v" format="2">
  <anchor x="0" y="-308" name="_above"/>
  <anchor x="0" y="261" name="_below"/>
  <anchor x="-15" y="-7" name="_center"/>
  <outline>
    <contour>
      <point x="16" y="-236" type="curve"/>
      <point x="30" y="-231"/>
      <point x="71" y="-188"/>
      <point x="127" y="-113" type="curve"/>
      <point x="-17" y="2" type="line"/>
      <point x="-115" y="-120" type="line"/>
      <point x="-106" y="-139"/>
      <point x="-56" y="-184"/>
    </contour>
    <contour>
      <point x="-14" y="-23" type="curve"/>
      <point x="1" y="-18"/>
      <point x="42" y="25"/>
      <point x="97" y="100" type="curve"/>
      <point x="-46" y="214" type="line"/>
      <point x="-144" y="93" type="line"/>
      <point x="-134" y="74"/>
      <point x="-85" y="28"/>
    </contour>
  </outline>
</glyph>
<glyph name="_gafBarCenter" format="2">
  <anchor x="13" y="168" name="_center"/>
  <outline>
    <contour>
      <point x="-121" y="-46" type="curve" smooth="yes"/>
      <point x="-107" y="-46"/>
      <point x="-92" y="-46"/>
      <point x="-75" y="-44" type="curve"/>
      <point x="62" y="93"/>
      <point x="196" y="218"/>
      <point x="294" y="315" type="curve"/>
      <point x="289" y="333"/>
      <point x="277" y="353"/>
      <point x="261" y="365" type="curve"/>
      <point x="130" y="261"/>
      <point x="-32" y="124"/>
      <point x="-181" y="-11" type="curve"/>
      <point x="-181" y="-21"/>
      <point x="-179" y="-32"/>
      <point x="-173" y="-42" type="curve"/>
      <point x="-157" y="-45"/>
      <point x="-140" y="-46"/>
    </contour>
  </outline>
</glyph>
<glyph name="_wavyHamza" format="2">
  <anchor x="-3" y="1118" name="_diaA"/>
  <anchor x="-3" y="1566" name="diaA"/>
  <outline>
    <contour>
      <point x="-104" y="1155" type="curve" smooth="yes"/>
      <point x="-48" y="1155"/>
      <point x="19" y="1192"/>
      <point x="121" y="1220" type="curve"/>
      <point x="134" y="1234"/>
      <point x="139" y="1258"/>
      <point x="139" y="1277" type="curve" smooth="yes"/>
      <point x="139" y="1282"/>
      <point x="139" y="1286"/>
      <point x="138" y="1290" type="curve"/>
      <point x="-16" y="1310"/>
      <point x="-55" y="1353"/>
      <point x="-55" y="1383" type="curve" smooth="yes"/>
      <point x="-55" y="1419"/>
      <point x="-22" y="1432"/>
      <point x="7" y="1432" type="curve" smooth="yes"/>
      <point x="36" y="1432"/>
      <point x="77" y="1420"/>
      <point x="120" y="1389" type="curve"/>
      <point x="139" y="1399"/>
      <point x="165" y="1423"/>
      <point x="170" y="1448" type="curve"/>
      <point x="124" y="1487"/>
      <point x="74" y="1513"/>
      <point x="12" y="1513" type="curve" smooth="yes"/>
      <point x="-90" y="1513"/>
      <point x="-147" y="1443"/>
      <point x="-147" y="1385" type="curve" smooth="yes"/>
      <point x="-147" y="1323"/>
      <point x="-108" y="1277"/>
      <point x="-13" y="1250" type="curve"/>
      <point x="-44" y="1237"/>
      <point x="-69" y="1232"/>
      <point x="-89" y="1232" type="curve" smooth="yes"/>
      <point x="-158" y="1232"/>
      <point x="-180" y="1288"/>
      <point x="-245" y="1288" type="curve" smooth="yes"/>
      <point x="-294" y="1288"/>
      <point x="-349" y="1239"/>
      <point x="-360" y="1226" type="curve"/>
      <point x="-360" y="1202"/>
      <point x="-357" y="1179"/>
      <point x="-339" y="1156" type="curve"/>
      <point x="-302" y="1195"/>
      <point x="-276" y="1208"/>
      <point x="-254" y="1208" type="curve" smooth="yes"/>
      <point x="-209" y="1208"/>
      <point x="-178" y="1155"/>
    </contour>
  </outline>
</glyph>
<glyph name="ain-ar.init" format="2">
  <advance width="775"/>
  <anchor x="390" y="713" name="above"/>
  <anchor x="36" y="619" name="alef"/>
  <anchor x="394" y="-89" name="below"/>
  <anchor x="354" y="717" name="diaA"/>
  <anchor x="357" y="-89" name="diaB"/>
  <outline>
    <contour>
      <point x="606" y="-23" type="curve"/>
      <point x="645" y="8"/>
      <point x="679" y="53"/>
      <point x="705" y="116" type="curve"/>
      <point x="450" y="228"/>
      <point x="256" y="314"/>
      <point x="256" y="434" type="curve" smooth="yes"/>
      <point x="256" y="495"/>
      <point x="307" y="553"/>
      <point x="397" y="553" type="curve" smooth="yes"/>
      <point x="471" y="553"/>
      <point x="527" y="520"/>
      <point x="589" y="458" type="curve"/>
      <point x="640" y="478"/>
      <point x="670" y="516"/>
      <point x="692" y="557" type="curve"/>
      <point x="640" y="629"/>
      <point x="525" y="690"/>
      <point x="412" y="690" type="curve" smooth="yes"/>
      <point x="211" y="690"/>
      <point x="105" y="557"/>
      <point x="105" y="432" type="curve" smooth="yes"/>
      <point x="105" y="315"/>
      <point x="168" y="231"/>
      <point x="383" y="113" type="curve"/>
      <point x="193" y="125"/>
      <point x="125" y="125"/>
      <point x="0" y="125" type="curve" smooth="yes"/>
      <point x="-20" y="125" type="line"/>
      <point x="-20" y="-10" type="line"/>
      <point x="0" y="-10" type="line" smooth="yes"/>
      <point x="290" y="-10"/>
      <point x="469" y="-10"/>
    </contour>
  </outline>
</glyph>
<glyph name="alefabove-ar.large" format="2">
  <anchor x="259" y="421" name="_alef"/>
  <anchor x="252" y="424" name="_diaA"/>
  <anchor x="234" y="1235" name="diaA"/>
  <outline>
    <contour>
      <point x="211" y="471" type="line"/>
      <point x="237" y="471"/>
      <point x="282" y="502"/>
      <point x="292" y="522" type="curve"/>
      <point x="299" y="632"/>
      <point x="304" y="1066"/>
      <point x="304" y="1135" type="curve" smooth="yes"/>
      <point x="304" y="1180"/>
      <point x="297" y="1201"/>
      <point x="287" y="1221" type="curve"/>
      <point x="250" y="1212"/>
      <point x="206" y="1186"/>
      <point x="178" y="1155" type="curve"/>
    </contour>
  </outline>
</glyph>
<glyph name="dal-ar.fina" format="2">
  <advance width="872"/>
  <anchor x="400" y="917" name="above"/>
  <anchor x="180" y="723" name="alef"/>
  <anchor x="434" y="-51" name="below"/>
  <anchor x="470" y="952" name="diaA"/>
  <anchor x="434" y="-71" name="diaB"/>
  <anchor x="462" y="84" name="ring"/>
  <outline>
    <contour>
      <point x="872" y="-10" type="curve" smooth="yes"/>
      <point x="892" y="-10" type="line"/>
      <point x="892" y="125" type="line"/>
      <point x="872" y="125" type="line" smooth="yes"/>
      <point x="803" y="125"/>
      <point x="736" y="152"/>
      <point x="689" y="286" type="curve" smooth="yes"/>
      <point x="646" y="409"/>
      <point x="599" y="595"/>
      <point x="531" y="871" type="curve"/>
      <point x="472" y="850"/>
      <point x="434" y="817"/>
      <point x="399" y="769" type="curve"/>
      <point x="473" y="532"/>
      <point x="495" y="456"/>
      <point x="549" y="284" type="curve"/>
      <point x="502" y="176"/>
      <point x="382" y="136"/>
      <point x="239" y="136" type="curve" smooth="yes"/>
      <point x="180" y="136"/>
      <point x="122" y="143"/>
      <point x="73" y="155" type="curve"/>
      <point x="71" y="142"/>
      <point x="70" y="128"/>
      <point x="70" y="115" type="curve" smooth="yes"/>
      <point x="70" y="74"/>
      <point x="78" y="44"/>
      <point x="93" y="13" type="curve"/>
      <point x="137" y="7"/>
      <point x="184" y="3"/>
      <point x="232" y="3" type="curve" smooth="yes"/>
      <point x="426" y="3"/>
      <point x="597" y="62"/>
      <point x="654" y="224" type="curve"/>
      <point x="573" y="220" type="line"/>
      <point x="639" y="41"/>
      <point x="749" y="-10"/>
    </contour>
  </outline>
</glyph>
